<?xml version="1.0" encoding="UTF-8"?>
<svg width="570px" height="380px" viewBox="0 0 570 380" version="1.1" xmlns="http://www.w3.org/2000/svg" xmlns:xlink="http://www.w3.org/1999/xlink">
    <!-- Generator: Sketch 51.3 (57544) - http://www.bohemiancoding.com/sketch -->
    <title>Group 4</title>
    <desc>Created with Sketch.</desc>
    <defs></defs>
    <g id="Page-1" stroke="none" stroke-width="1" fill="none" fill-rule="evenodd">
        <g id="研習課程" transform="translate(-750.000000, -334.000000)">
            <g id="Group-4" transform="translate(750.000000, 334.000000)">
                <rect id="Rectangle-6" fill="#F8F8F8" x="0" y="0" width="570" height="380"></rect>
                <g id="Group-3" transform="translate(229.000000, 124.000000)">
                    <g id="coworking" fill-rule="nonzero">
                        <path d="M74.5,98 C71.4676667,98 69,95.5323333 69,92.5 C69,89.4676667 71.4676667,87 74.5,87 C77.5323333,87 80,89.4676667 80,92.5 C80,95.5323333 77.5323333,98 74.5,98 Z M74.5,90.6666667 C73.488,90.6666667 72.6666667,91.4898333 72.6666667,92.5 C72.6666667,93.5101667 73.488,94.3333333 74.5,94.3333333 C75.512,94.3333333 76.3333333,93.5101667 76.3333333,92.5 C76.3333333,91.4898333 75.512,90.6666667 74.5,90.6666667 Z" id="Shape" fill="#F0BC5E"></path>
                        <path d="M20.5,98 C17.4676667,98 15,95.5323333 15,92.5 C15,89.4676667 17.4676667,87 20.5,87 C23.5323333,87 26,89.4676667 26,92.5 C26,95.5323333 23.5323333,98 20.5,98 Z M20.5,90.6666667 C19.488,90.6666667 18.6666667,91.4898333 18.6666667,92.5 C18.6666667,93.5101667 19.488,94.3333333 20.5,94.3333333 C21.512,94.3333333 22.3333333,93.5101667 22.3333333,92.5 C22.3333333,91.4898333 21.512,90.6666667 20.5,90.6666667 Z" id="Shape" fill="#F0BC5E"></path>
                        <path d="M56.5,47 C53.4676667,47 51,44.5323333 51,41.5 C51,38.4676667 53.4676667,36 56.5,36 C59.5323333,36 62,38.4676667 62,41.5 C62,44.5323333 59.5323333,47 56.5,47 Z M56.5,39.6666667 C55.488,39.6666667 54.6666667,40.4898333 54.6666667,41.5 C54.6666667,42.5101667 55.488,43.3333333 56.5,43.3333333 C57.512,43.3333333 58.3333333,42.5101667 58.3333333,41.5 C58.3333333,40.4898333 57.512,39.6666667 56.5,39.6666667 Z" id="Shape" fill="#F0BC5E"></path>
                        <path d="M36,16.736973 C36,7.63150548 27.8746248,0.454709728 18.591071,2.28759263 C12.9379269,3.40390121 8.38133683,8.03492393 7.28297026,13.7804131 C5.47954659,23.2156153 12.5409924,31.4737199 21.5001112,31.4737199 L29.8882969,36.5892132 C30.328731,36.8581588 30.8344146,37 31.3491607,37 C32.9169611,37 34.1875139,35.7086926 34.1875139,34.1152818 L34.1875139,33.9973878 C34.1875139,33.5497591 34.0842022,33.1076567 33.8884537,32.7079225 L31.3437232,27.5371664 C34.2002013,24.8440259 36,21.0087875 36,16.736973 Z" id="Shape" fill="#F0BC5E"></path>
                        <g id="Group" fill="#2A2A2A">
                            <path d="M113,51.0322581 L91.1290323,51.0322581 L91.1290323,45.5645161 C91.1290323,35.1047258 84.3089355,26.2232903 74.8898387,23.0902742 C78.0957581,20.770129 80.1935484,17.0083226 80.1935484,12.7580645 C80.1935484,5.72290323 74.4688226,0 67.4354839,0 C60.4021452,0 54.6774194,5.72290323 54.6774194,12.7580645 C54.6774194,17.0065 56.7715645,20.7646613 59.9738387,23.0848065 C56.3560161,24.2858871 53.0626129,26.3709194 50.3779516,29.1612903 L45.5645161,29.1612903 C42.5499677,29.1612903 40.0967742,31.6144839 40.0967742,34.6290323 L40.0967742,49.2096774 C40.0967742,49.8512258 40.228,50.4599677 40.432129,51.0322581 L0,51.0322581 L0,61.9677419 L18.3716129,61.9677419 C18.2859516,62.5655484 18.2258065,63.1706452 18.2258065,63.7903226 C18.2258065,68.0387581 20.3217742,71.7969194 23.5222258,74.1170645 C19.9062258,75.3181452 16.6128226,77.4031774 13.9281613,80.1935484 L9.11290323,80.1935484 C6.09835484,80.1935484 3.64516129,82.6467419 3.64516129,85.6612903 L3.64516129,100.241935 C3.64516129,100.883484 3.7763871,101.492226 3.98051613,102.064516 L0,102.064516 L0,113 L113,113 L113,102.064516 L109.247306,102.064516 L109.247306,96.5967742 C109.247306,86.1643226 102.461839,77.3029355 93.0791935,74.149871 C96.3069839,71.8315484 98.4193548,68.0569839 98.4193548,63.7903226 C98.4193548,63.1706452 98.3592097,62.5655484 98.2735484,61.9677419 L113,61.9677419 L113,51.0322581 Z M58.3225806,12.7580645 C58.3225806,7.73320968 62.410629,3.64516129 67.4354839,3.64516129 C72.4603387,3.64516129 76.5483871,7.73320968 76.5483871,12.7580645 C76.5483871,17.7829194 72.4603387,21.8709677 67.4354839,21.8709677 C62.410629,21.8709677 58.3225806,17.7829194 58.3225806,12.7580645 Z M67.4354839,25.516129 C78.4894355,25.516129 87.483871,34.5105645 87.483871,45.5645161 L87.483871,51.0322581 L83.5033548,51.0322581 C83.7074839,50.4599677 83.8387097,49.8512258 83.8387097,49.2096774 L83.8387097,43.7419355 L72.9032258,43.7419355 L72.9032258,34.6290323 C72.9032258,31.6144839 70.4500323,29.1612903 67.4354839,29.1612903 L55.9386452,29.1612903 C59.2830806,26.8210968 63.2891129,25.516129 67.4354839,25.516129 Z M72.9032258,47.3870968 L80.1935484,47.3870968 L80.1935484,49.2096774 C80.1935484,50.2139194 79.3770323,51.0322581 78.3709677,51.0322581 L72.9032258,51.0322581 L72.9032258,47.3870968 Z M43.7419355,49.2096774 L43.7419355,34.6290323 C43.7419355,33.6247903 44.5584516,32.8064516 45.5645161,32.8064516 L67.4354839,32.8064516 C68.4415484,32.8064516 69.2580645,33.6247903 69.2580645,34.6290323 L69.2580645,51.0322581 L45.5645161,51.0322581 C44.5584516,51.0322581 43.7419355,50.2139194 43.7419355,49.2096774 Z M45.5645161,54.6774194 L71.0806452,54.6774194 L72.9032258,54.6774194 L76.7506935,54.6774194 C75.6808387,55.7235806 74.8041774,56.9574677 74.1535161,58.3225806 L42.4952903,58.3225806 C41.844629,56.9574677 40.9661452,55.7235806 39.8981129,54.6774194 L45.5645161,54.6774194 Z M91.1290323,98.4193548 L98.4193548,98.4193548 L98.4193548,100.241935 C98.4193548,101.246177 97.6028387,102.064516 96.5967742,102.064516 L91.1290323,102.064516 L91.1290323,98.4193548 Z M87.483871,102.064516 L63.7903226,102.064516 C62.7842581,102.064516 61.9677419,101.246177 61.9677419,100.241935 L61.9677419,85.6612903 C61.9677419,84.6570484 62.7842581,83.8387097 63.7903226,83.8387097 L85.6612903,83.8387097 C86.6673548,83.8387097 87.483871,84.6570484 87.483871,85.6612903 L87.483871,102.064516 Z M68.4962258,80.1935484 L63.7903226,80.1935484 C60.7757742,80.1935484 58.3225806,82.6467419 58.3225806,85.6612903 L58.3225806,100.241935 C58.3225806,100.883484 58.4538065,101.492226 58.6579355,102.064516 L54.6774194,102.064516 L54.6774194,96.5967742 C54.6774194,86.1369839 47.8573226,77.2555484 38.4382258,74.1225323 C41.6441452,71.8023871 43.7419355,68.0405806 43.7419355,63.7903226 C43.7419355,63.1706452 43.6817903,62.5655484 43.596129,61.9677419 L73.0490323,61.9677419 C72.963371,62.5655484 72.9032258,63.1706452 72.9032258,63.7903226 C72.9032258,68.0223548 74.9827903,71.7677581 78.1631935,74.0897258 C74.5180323,75.2889839 71.2009355,77.3849516 68.4962258,80.1935484 Z M3.64516129,58.3225806 L3.64516129,54.6774194 L22.0732742,54.6774194 C21.0034194,55.7235806 20.1267581,56.9574677 19.4760968,58.3225806 L3.64516129,58.3225806 Z M21.8709677,63.7903226 C21.8709677,58.7654677 25.9590161,54.6774194 30.983871,54.6774194 C36.0087258,54.6774194 40.0967742,58.7654677 40.0967742,63.7903226 C40.0967742,68.8151774 36.0087258,72.9032258 30.983871,72.9032258 C25.9590161,72.9032258 21.8709677,68.8151774 21.8709677,63.7903226 Z M30.983871,76.5483871 C42.0378226,76.5483871 51.0322581,85.5428226 51.0322581,96.5967742 L51.0322581,102.064516 L47.0517419,102.064516 C47.255871,101.492226 47.3870968,100.883484 47.3870968,100.241935 L47.3870968,94.7741935 L36.4516129,94.7741935 L36.4516129,85.6612903 C36.4516129,82.6467419 33.9984194,80.1935484 30.983871,80.1935484 L19.4888548,80.1935484 C22.8314677,77.8533548 26.8375,76.5483871 30.983871,76.5483871 Z M36.4516129,98.4193548 L43.7419355,98.4193548 L43.7419355,100.241935 C43.7419355,101.246177 42.9254194,102.064516 41.9193548,102.064516 L36.4516129,102.064516 L36.4516129,98.4193548 Z M7.29032258,100.241935 L7.29032258,85.6612903 C7.29032258,84.6570484 8.10683871,83.8387097 9.11290323,83.8387097 L30.983871,83.8387097 C31.9899355,83.8387097 32.8064516,84.6570484 32.8064516,85.6612903 L32.8064516,102.064516 L9.11290323,102.064516 C8.10683871,102.064516 7.29032258,101.246177 7.29032258,100.241935 Z M109.354839,109.354839 L3.64516129,109.354839 L3.64516129,105.709677 L9.11290323,105.709677 L34.6290323,105.709677 L36.4516129,105.709677 L41.9193548,105.709677 L63.7903226,105.709677 L89.3064516,105.709677 L91.1290323,105.709677 L96.5967742,105.709677 L109.354839,105.709677 L109.354839,109.354839 Z M105.602145,96.5967742 L105.602145,102.064516 L101.727339,102.064516 C101.93329,101.492226 102.064516,100.883484 102.064516,100.241935 L102.064516,94.7741935 L91.1290323,94.7741935 L91.1290323,85.6612903 C91.1290323,82.6467419 88.6758387,80.1935484 85.6612903,80.1935484 L74.0587419,80.1935484 C77.4031774,77.8533548 81.4092097,76.5483871 85.5555806,76.5483871 C96.6095323,76.5483871 105.602145,85.5428226 105.602145,96.5967742 Z M85.6612903,72.9032258 C80.6364355,72.9032258 76.5483871,68.8151774 76.5483871,63.7903226 C76.5483871,58.7654677 80.6364355,54.6774194 85.6612903,54.6774194 C90.6861452,54.6774194 94.7741935,58.7654677 94.7741935,63.7903226 C94.7741935,68.8151774 90.6861452,72.9032258 85.6612903,72.9032258 Z M109.354839,58.3225806 L97.1708871,58.3225806 C96.5202258,56.9574677 95.6417419,55.7235806 94.5737097,54.6774194 L109.354839,54.6774194 L109.354839,58.3225806 Z" id="Shape"></path>
                            <polygon id="Shape" points="20.0483871 14.5806452 23.6935484 14.5806452 23.6935484 18.2258065 20.0483871 18.2258065"></polygon>
                            <polygon id="Shape" points="12.7580645 14.5806452 16.4032258 14.5806452 16.4032258 18.2258065 12.7580645 18.2258065"></polygon>
                            <polygon id="Shape" points="27.3387097 14.5806452 30.983871 14.5806452 30.983871 18.2258065 27.3387097 18.2258065"></polygon>
                        </g>
                    </g>
                    <path d="M28.4833793,138.864 L25.5353793,138.864 L25.5353793,144.474 L28.4833793,144.474 L28.4833793,138.864 Z M28.4833793,146.476 L25.5133793,146.476 C25.2933793,150.92 24.0173793,154.198 21.6413793,156.31 L20.0793793,154.924 C22.1693793,153.12 23.3133793,150.304 23.4893793,146.476 L21.2673793,146.476 L21.2673793,144.474 L23.5113793,144.474 L23.5113793,138.864 L21.7513793,138.864 L21.7513793,136.884 L32.3333793,136.884 L32.3333793,138.864 L30.4853793,138.864 L30.4853793,144.474 L32.9273793,144.474 L32.9273793,146.476 L30.4853793,146.476 L30.4853793,156.222 L28.4833793,156.222 L28.4833793,146.476 Z M15.5913793,138.996 L13.1713793,138.996 L13.1713793,136.972 L20.9153793,136.972 L20.9153793,138.996 L17.5713793,138.996 C17.2633793,140.58 16.8673793,142.098 16.3393793,143.506 L20.2773793,143.506 L20.2773793,153.89 L16.5373793,153.89 L16.5373793,155.496 L14.6013793,155.496 L14.6013793,147.048 C14.2493793,147.62 13.8973793,148.17 13.5013793,148.698 L12.4013793,146.916 C13.9853793,144.562 15.0633793,141.922 15.5913793,138.996 Z M16.5373793,152.064 L18.3633793,152.064 L18.3633793,145.354 L16.5373793,145.354 L16.5373793,152.064 Z M52.7986897,146.322 L52.7986897,156.288 L50.7966897,156.288 L50.7966897,155.43 L40.3906897,155.43 L40.3906897,156.288 L38.3886897,156.288 L38.3886897,146.322 L43.9766897,146.322 C44.2406897,145.794 44.4386897,145.244 44.5706897,144.716 L46.5286897,144.98 C46.3966897,145.442 46.2206897,145.882 46.0226897,146.322 L52.7986897,146.322 Z M40.3906897,153.516 L50.7966897,153.516 L50.7966897,151.822 L40.3906897,151.822 L40.3906897,153.516 Z M40.3906897,149.974 L50.7966897,149.974 L50.7966897,148.236 L40.3906897,148.236 L40.3906897,149.974 Z M42.5026897,140.69 L42.5026897,138.182 L36.4746897,138.182 L36.4746897,136.488 L44.4606897,136.488 L44.4606897,143.726 C44.4606897,144.958 43.7566897,145.574 42.3926897,145.574 L40.6546897,145.574 L40.2146897,143.924 L42.0186897,143.99 C42.3266897,143.99 42.5026897,143.704 42.5026897,143.132 L42.5026897,142.34 C40.6766897,143.22 38.6526897,144.034 36.4086897,144.782 L35.8806897,142.978 C38.3226897,142.296 40.5226897,141.526 42.5026897,140.69 Z M37.2666897,138.688 C38.5426897,138.93 39.7966897,139.282 40.9846897,139.722 L40.3906897,141.174 C39.1366897,140.734 37.8386897,140.404 36.4966897,140.14 L37.2666897,138.688 Z M51.5886897,140.69 L51.5886897,138.182 L45.3406897,138.182 L45.3406897,136.488 L53.5466897,136.488 L53.5466897,143.792 C53.5466897,144.936 52.7986897,145.53 51.3466897,145.53 L49.7846897,145.53 L49.3446897,143.88 L50.9726897,143.946 C51.3686897,143.946 51.5886897,143.682 51.5886897,143.198 L51.5886897,142.318 C49.8726897,143.154 47.9366897,143.946 45.8026897,144.65 L45.2966897,142.846 C47.6286897,142.208 49.7186897,141.482 51.5886897,140.69 Z M46.2866897,138.666 C47.5846897,138.93 48.8166897,139.304 50.0046897,139.788 L49.3886897,141.24 C48.1566897,140.756 46.8586897,140.382 45.5386897,140.118 L46.2866897,138.666 Z M57.424,138.6 L60.306,138.6 C60.02,137.852 59.712,137.126 59.382,136.444 L61.362,135.894 C61.758,136.884 62.066,137.786 62.264,138.6 L65.036,138.6 L65.036,140.536 L57.424,140.536 L57.424,138.6 Z M58.26,141.9 L64.2,141.9 L64.2,143.704 L58.26,143.704 L58.26,141.9 Z M58.26,144.958 L64.2,144.958 L64.2,146.784 L58.26,146.784 L58.26,144.958 Z M64.398,148.236 L64.398,153.67 C66.202,152.438 67.588,150.942 68.512,149.182 L65.08,149.182 L65.08,147.202 L70.008,147.202 L70.008,145.53 L65.828,145.53 L65.828,136.73 L76.212,136.73 L76.212,145.53 L72.032,145.53 L72.032,147.202 L77.048,147.202 L77.048,149.182 L73.572,149.182 C74.452,150.92 75.838,152.482 77.752,153.868 L76.41,155.54 C74.342,153.648 72.89,151.58 72.032,149.314 L72.032,156.266 L70.008,156.266 L70.008,149.468 C68.996,151.91 67.456,153.934 65.344,155.54 L64.398,153.978 L64.398,154.924 L60.02,154.924 L60.02,156.134 L58.04,156.134 L58.04,148.236 L64.398,148.236 Z M60.02,153.076 L62.44,153.076 L62.44,150.084 L60.02,150.084 L60.02,153.076 Z M74.276,143.704 L74.276,141.988 L72.032,141.988 L72.032,143.704 L74.276,143.704 Z M70.008,143.704 L70.008,141.988 L67.786,141.988 L67.786,143.704 L70.008,143.704 Z M67.786,140.294 L70.008,140.294 L70.008,138.578 L67.786,138.578 L67.786,140.294 Z M72.032,138.578 L72.032,140.294 L74.276,140.294 L74.276,138.578 L72.032,138.578 Z M80.1113103,141.834 L83.1473103,141.834 L83.1473103,139.15 C82.2673103,139.26 81.3873103,139.37 80.5073103,139.458 L80.1113103,137.5 C82.8393103,137.28 85.2593103,136.818 87.3933103,136.158 L88.1193103,138.138 C87.1733103,138.402 86.1833103,138.622 85.1273103,138.82 L85.1273103,141.834 L87.7013103,141.834 L87.7013103,143.792 L85.1273103,143.792 L85.1273103,144.76 C86.1173103,145.684 87.1073103,146.696 88.1193103,147.796 L86.9533103,149.556 C86.2493103,148.412 85.6553103,147.466 85.1273103,146.718 L85.1273103,156.178 L83.1473103,156.178 L83.1473103,146.982 C82.4433103,148.852 81.5633103,150.568 80.5073103,152.108 L79.5833103,149.776 C81.1233103,148.016 82.2233103,146.014 82.9053103,143.792 L80.1113103,143.792 L80.1113103,141.834 Z M88.3833103,149.204 L92.7173103,149.204 L92.7173103,147.004 C91.3533103,147.114 89.9673103,147.224 88.5153103,147.312 L88.1413103,145.464 C92.0573103,145.288 95.5333103,144.958 98.5913103,144.452 L99.2293103,146.212 C97.8213103,146.432 96.3253103,146.63 94.7413103,146.806 L94.7413103,149.204 L99.1633103,149.204 L99.1633103,151.074 L94.7413103,151.074 L94.7413103,153.626 L99.9333103,153.626 L99.9333103,155.496 L87.5913103,155.496 L87.5913103,153.626 L92.7173103,153.626 L92.7173103,151.074 L88.3833103,151.074 L88.3833103,149.204 Z M88.9993103,136.686 L98.6573103,136.686 L98.6573103,143.352 L88.9993103,143.352 L88.9993103,136.686 Z M96.6333103,141.482 L96.6333103,138.534 L91.0233103,138.534 L91.0233103,141.482 L96.6333103,141.482 Z" id="研習課程" fill="#2A2A2A"></path>
                </g>
            </g>
        </g>
    </g>
</svg>