<?xml version="1.0" encoding="UTF-8"?>
<svg width="26px" height="26px" viewBox="0 0 26 26" version="1.1" xmlns="http://www.w3.org/2000/svg" xmlns:xlink="http://www.w3.org/1999/xlink">
    <!-- Generator: Sketch 51.3 (57544) - http://www.bohemiancoding.com/sketch -->
    <title>Group 4</title>
    <desc>Created with Sketch.</desc>
    <defs></defs>
    <g id="Page-1" stroke="none" stroke-width="1" fill="none" fill-rule="evenodd">
        <g id="會員中心_語文教材上傳記錄_語文教材上傳" transform="translate(-776.000000, -840.000000)">
            <g id="Group-4" transform="translate(776.000000, 840.000000)">
                <circle id="Oval-2" fill="#245E8B" cx="13" cy="13" r="13"></circle>
                <g id="Group-3" transform="translate(9.000000, 9.000000)" fill="#FFFFFF" fill-rule="nonzero">
                    <path d="M6.95955989,-0.373773448 C7.35008418,-0.76429774 7.98324916,-0.76429774 8.37377345,-0.373773448 C8.76429774,0.0167508439 8.76429774,0.649915823 8.37377345,1.04044011 L1.30270564,8.11150793 C0.912181344,8.50203222 0.279016365,8.50203222 -0.111507926,8.11150793 C-0.502032218,7.72098363 -0.502032218,7.08781866 -0.111507926,6.69729436 L6.95955989,-0.373773448 Z" id="Line-5"></path>
                    <path d="M6.95955989,-0.373773448 C7.35008418,-0.76429774 7.98324916,-0.76429774 8.37377345,-0.373773448 C8.76429774,0.0167508439 8.76429774,0.649915823 8.37377345,1.04044011 L1.30270564,8.11150793 C0.912181344,8.50203222 0.279016365,8.50203222 -0.111507926,8.11150793 C-0.502032218,7.72098363 -0.502032218,7.08781866 -0.111507926,6.69729436 L6.95955989,-0.373773448 Z" id="Line-5-Copy" transform="translate(4.131133, 3.868867) scale(1, -1) translate(-4.131133, -3.868867) "></path>
                </g>
            </g>
        </g>
    </g>
</svg>