<?xml version="1.0" encoding="UTF-8"?>
<svg width="200px" height="78px" viewBox="0 0 200 78" version="1.1" xmlns="http://www.w3.org/2000/svg" xmlns:xlink="http://www.w3.org/1999/xlink">
    <!-- Generator: Sketch 51.3 (57544) - http://www.bohemiancoding.com/sketch -->
    <title>Group 67</title>
    <desc>Created with Sketch.</desc>
    <defs>
        <polygon id="path-1" points="0.409453782 0.0584453782 7.37962185 0.0584453782 7.37962185 10.9243697 0.409453782 10.9243697"></polygon>
        <polygon id="path-3" points="0 77.2697479 199.621429 77.2697479 199.621429 0 0 0"></polygon>
    </defs>
    <g id="Symbols" stroke="none" stroke-width="1" fill="none" fill-rule="evenodd">
        <g id="footer" transform="translate(-120.000000, -107.000000)">
            <g id="Group-67" transform="translate(120.000000, 107.000000)">
                <path d="M1.41869748,73.2387395 C0.989705882,74.2442017 0.555252101,75.0147899 0.126680672,75.5265546 L0.000210084034,75.6794958 L0.821638655,76.2463025 L0.925840336,76.1110084 C1.46113445,75.4248739 1.92121849,74.5946218 2.2947479,73.6458824 L2.3552521,73.4916807 L1.49390756,73.0631092 L1.41869748,73.2387395 Z" id="Fill-1" fill="#FFFFFF"></path>
                <g id="Group-5" transform="translate(3.361345, 66.345378)">
                    <mask id="mask-2" fill="white">
                        <use xlink:href="#path-1"></use>
                    </mask>
                    <g id="Clip-4"></g>
                    <path d="M7.15105042,0.925672269 L7.37962185,0.820630252 L6.65315126,0.0584453782 L6.53340336,0.118109244 C5.62163866,0.575252101 4.41911765,0.909285714 2.95903361,1.10886555 L2.80315126,1.12987395 L2.80315126,4.82693277 C2.80315126,6.10214286 2.6960084,7.14037815 2.4842437,7.91348739 C2.41869748,8.15214286 2.33466387,8.38869748 2.24096639,8.62567227 L2.18214286,8.4844958 C1.93340336,7.8937395 1.63676471,7.33827731 1.30189076,6.83029412 L1.20861345,6.68911765 L0.409453782,7.1437395 L0.498529412,7.30046218 C0.852731092,7.92231092 1.12205882,8.47567227 1.29936975,8.94584034 L1.375,9.15004202 L2.23844538,8.63155462 C2.03088235,9.15760504 1.75903361,9.67861345 1.41659664,10.1882773 L1.32163866,10.3294538 L2.09810924,10.9244118 L2.20693277,10.7756723 C3.20147059,9.42273109 3.71659664,7.43239496 3.73928571,4.86222689 L5.13760504,4.86222689 L5.13760504,10.8151681 L6.10315126,10.8151681 L6.10315126,4.86222689 L7.37668067,4.86222689 L7.37668067,3.91264706 L3.75189076,3.91264706 L3.75189076,1.94836134 C4.99390756,1.73953782 6.13718487,1.39668067 7.15105042,0.925672269" id="Fill-3" fill="#FFFFFF" mask="url(#mask-2)"></path>
                </g>
                <path d="M4.10567227,68.47 C3.9342437,69.0380672 3.71239496,69.5998319 3.44432773,70.1439496 L2.70735294,70.1439496 C2.58466387,69.6468908 2.39978992,69.0863866 2.15735294,68.47 L4.10567227,68.47 Z M5.90903361,71.8897479 L3.52289916,71.8897479 L3.52289916,71.0926891 L5.78214286,71.0926891 L5.78214286,70.1439496 L4.51197479,70.1439496 C4.79810924,69.5162185 5.00693277,69.0036134 5.13340336,68.6170588 L5.17794118,68.4821849 L5.15861345,68.47 L5.64936975,68.47 L5.64936975,67.4989916 L3.52205882,67.4989916 C3.31995798,67.062437 3.12668067,66.7178992 2.94642857,66.4708403 L2.86113445,66.3544538 L1.95819328,66.7515126 L2.09012605,66.9313445 C2.23088235,67.1258824 2.35021008,67.3162185 2.44642857,67.4989916 L0.378781513,67.4989916 L0.378781513,68.47 L1.13130252,68.47 L1.07836134,68.5061345 L1.13634454,68.6422689 C1.41113445,69.2855462 1.59726891,69.7872269 1.69264706,70.1439496 L0.298109244,70.1439496 L0.298109244,71.0926891 L2.57415966,71.0926891 L2.57415966,71.8897479 L0.165756303,71.8897479 L0.165756303,72.8145378 L2.57415966,72.8145378 L2.57415966,77.1498319 L3.52289916,77.1498319 L3.52289916,72.8145378 L5.90903361,72.8145378 L5.90903361,71.8897479 Z" id="Fill-6" fill="#FFFFFF"></path>
                <path d="M19.1057563,73.0507983 L22.0679412,73.0507983 L22.0679412,72.0743277 L19.1057563,72.0743277 L19.1057563,69.7197059 L22.4423109,69.7197059 L22.4423109,68.7491176 L19.2313866,68.7491176 C18.9771849,67.9440756 18.6872689,67.1873529 18.3683613,66.5020588 L18.2998739,66.3541597 L17.3301261,66.6898739 L17.4292857,66.8755882 C17.8162605,67.6041597 18.0830672,68.2318908 18.2229832,68.7491176 L15.1431513,68.7491176 L15.1431513,69.7197059 L18.1171008,69.7197059 L18.1171008,72.0743277 L15.5007143,72.0743277 L15.5007143,73.0507983 L18.1171008,73.0507983 L18.1171008,75.8671849 L14.9301261,75.8671849 L14.9301261,76.8381933 L22.5868487,76.8381933 L22.5868487,75.8671849 L19.1057563,75.8671849 L19.1057563,73.0507983 Z" id="Fill-8" fill="#FFFFFF"></path>
                <path d="M15.6481933,66.8648319 L15.7133193,66.6883613 L14.7788655,66.3887815 L14.717521,66.5488655 C13.9851681,68.4463445 13.0192017,69.9702941 11.8460924,71.074916 L11.7448319,71.1707143 L12.2607983,72.1219748 L12.4318067,71.9497059 C12.904916,71.4736555 13.3229832,70.9917227 13.6792857,70.5144118 L13.6792857,77.1089496 L14.6679412,77.1089496 L14.6679412,68.9597899 L15.0469328,68.2089496 C15.3183613,67.6656723 15.5204622,67.2144118 15.6481933,66.8648319" id="Fill-10" fill="#FFFFFF"></path>
                <path d="M28.6968067,71.602395 L25.5833613,71.602395 L25.5833613,70.2040756 L28.5615126,70.2040756 C28.5846218,70.6742437 28.63,71.1418908 28.6968067,71.602395 Z M25.5833613,69.2103782 L32.2472269,69.2103782 L32.2472269,67.6923109 L25.5833613,67.6923109 L25.5833613,69.2103782 Z M33.3913445,74.2318067 C33.0505882,76.0616387 32.7157143,76.1544958 32.6526891,76.1544958 C32.572437,76.1544958 32.3644538,76.1070168 31.8594118,75.7826471 C31.4665546,75.5301261 31.0770588,75.1057563 30.7010084,74.5229832 C30.3547899,73.9847479 30.0892437,73.3280252 29.9094118,72.567521 L34.0947059,72.567521 L34.0947059,71.602395 L29.7089916,71.602395 C29.6228571,71.1019748 29.5762185,70.6322269 29.5711765,70.2040756 L33.2417647,70.2040756 L33.2417647,66.7091176 L24.5715966,66.7091176 L24.5715966,76.0347479 C24.5715966,76.0872689 24.5577311,76.1217227 24.4867227,76.1502941 L24.3266387,76.217521 L24.6665546,77.1410504 L24.822437,77.1032353 C26.7804202,76.6435714 28.1413445,76.2683613 28.9808403,75.9565966 L29.0984874,75.9116387 L29.0984874,74.9171008 L28.8594118,74.9990336 C28.0211765,75.2910504 26.9194958,75.5914706 25.5833613,75.8910504 L25.5833613,72.567521 L28.8816807,72.567521 C29.2035294,74.0553361 29.7585714,75.1910504 30.532521,75.9452521 C31.3510084,76.7435714 32.0451261,77.1318067 32.6526891,77.1318067 C33.0346218,77.1318067 33.3505882,76.9801261 33.5909244,76.6805462 C33.8152941,76.4032353 34.0589916,75.7498739 34.3367227,74.6864286 L34.3703361,74.5582773 L33.440084,73.9717227 L33.3913445,74.2318067 Z" id="Fill-12" fill="#FFFFFF"></path>
                <mask id="mask-4" fill="white">
                    <use xlink:href="#path-3"></use>
                </mask>
                <g id="Clip-15"></g>
                <path d="M41.2466387,75.3936975 L44.4936975,75.3936975 L44.4936975,73.7836134 L41.2466387,73.7836134 L41.2466387,75.3936975 Z M40.2693277,77.1197479 L41.2466387,77.1197479 L41.2466387,76.3415966 L44.4936975,76.3415966 L44.4936975,77.1197479 L45.4827731,77.1197479 L45.4827731,72.8176471 L40.2693277,72.8176471 L40.2693277,77.1197479 Z" id="Fill-14" fill="#FFFFFF" mask="url(#mask-4)"></path>
                <path d="M39.8864286,67.6715126 L38.2742437,67.6715126 C38.1528151,67.2694118 37.9797059,66.8484034 37.7578571,66.4160504 L37.6813866,66.2656303 L36.7851681,66.645042 L36.8788655,66.8189916 C37.0305462,67.1021849 37.1540756,67.3866387 37.2460924,67.6715126 L35.607437,67.6715126 L35.607437,68.6135294 L39.8864286,68.6135294 L39.8864286,67.6715126 Z" id="Fill-16" fill="#FFFFFF" mask="url(#mask-4)"></path>
                <path d="M44.2458824,69.6747059 L44.2458824,71.215042 L42.4442017,71.215042 L42.79,69.6747059 L44.2458824,69.6747059 Z M45.2227731,68.7368908 L43.0055462,68.7368908 L43.2610084,67.6461345 L45.9778151,67.6461345 L45.9778151,66.7087395 L39.9408403,66.7087395 L39.9408403,67.6461345 L42.2576471,67.6461345 L42.0059664,68.7368908 L40.1883193,68.7368908 L40.1883193,69.6747059 L41.795042,69.6747059 L41.4307563,71.215042 L39.6589076,71.215042 L39.6589076,72.1637815 L46.2492437,72.1637815 L46.2492437,71.215042 L45.2227731,71.215042 L45.2227731,68.7368908 Z" id="Fill-17" fill="#FFFFFF" mask="url(#mask-4)"></path>
                <polygon id="Fill-18" fill="#FFFFFF" mask="url(#mask-4)" points="35.9071429 70.3714286 39.5121849 70.3714286 39.5121849 69.4130252 35.9071429 69.4130252"></polygon>
                <path d="M36.9588235,75.2491597 L38.4197479,75.2491597 L38.4197479,73.7941176 L36.9588235,73.7941176 L36.9588235,75.2491597 Z M35.9878151,77.1197479 L36.9588235,77.1197479 L36.9588235,76.2159664 L38.4197479,76.2159664 L38.4197479,76.860084 L39.3911765,76.860084 L39.3911765,72.8579832 L35.9878151,72.8579832 L35.9878151,77.1197479 Z" id="Fill-19" fill="#FFFFFF" mask="url(#mask-4)"></path>
                <polygon id="Fill-20" fill="#FFFFFF" mask="url(#mask-4)" points="35.9071429 72.0605042 39.5121849 72.0605042 39.5121849 71.0945378 35.9071429 71.0945378"></polygon>
                <path d="M53.4641176,74.024916 C54.5767227,72.7560084 55.3989916,71.1585294 55.9115966,69.2765966 L58.0510924,69.2765966 L58.0510924,68.2992857 L53.3048739,68.2992857 C53.0565546,67.7328992 52.7031933,67.1076891 52.2515126,66.4421429 L52.1712605,66.3240756 L51.1973109,66.697605 L51.3410084,66.8879412 C51.664958,67.3219748 51.9632773,67.7955042 52.2288235,68.2992857 L47.4094958,68.2992857 L47.4094958,69.2765966 L54.9069748,69.2765966 C54.4552941,70.8286975 53.7242017,72.2047479 52.7296639,73.3698739 C51.7410084,72.3156723 50.9590756,71.0097899 50.4044538,69.4908824 L50.3376471,69.3064286 L49.4414286,69.7165126 L49.5010924,69.8740756 C50.1052941,71.4702941 50.9515126,72.8610504 52.0166387,74.0068487 C50.8838655,74.9967647 49.3632773,75.7753361 47.4931092,76.3228151 L47.2233613,76.4022269 L47.9342857,77.2228151 L48.0477311,77.1858403 C49.8796639,76.6060084 51.4519328,75.7677731 52.7237815,74.6992857 C53.9985714,75.787521 55.567479,76.6345798 57.3889076,77.2202941 L57.5094958,77.2589496 L58.1733613,76.3988655 L57.9229412,76.3244958 C56.0956303,75.7728151 54.5964706,74.9988655 53.4641176,74.024916" id="Fill-21" fill="#FFFFFF" mask="url(#mask-4)"></path>
                <path d="M63.2088235,67.6592017 L61.787395,67.6592017 C61.6142857,67.2142437 61.4004202,66.794916 61.1508403,66.4108824 L61.0642857,66.2764286 L60.1840336,66.7079412 L60.2957983,66.8789496 C60.4735294,67.1512185 60.6189076,67.4138235 60.7306723,67.6592017 L59.2235294,67.6592017 L59.2235294,68.6037395 L63.2088235,68.6037395 L63.2088235,67.6592017 Z" id="Fill-22" fill="#FFFFFF" mask="url(#mask-4)"></path>
                <polygon id="Fill-23" fill="#FFFFFF" mask="url(#mask-4)" points="59.5231092 72.0037815 62.9726891 72.0037815 62.9726891 71.0256303 59.5231092 71.0256303"></polygon>
                <path d="M66.8798319,70.3747899 L68.3226891,70.3747899 L68.3226891,69.4605042 L66.8798319,69.4605042 L66.8798319,70.3747899 Z M66.8798319,68.5243697 L68.3226891,68.5243697 L68.3226891,67.6462185 L66.8798319,67.6462185 L66.8798319,68.5243697 Z M64.4823529,70.3747899 L65.9084034,70.3747899 L65.9084034,69.4605042 L64.4823529,69.4605042 L64.4823529,70.3747899 Z M64.4823529,68.5243697 L65.9084034,68.5243697 L65.9084034,67.6462185 L64.4823529,67.6462185 L64.4823529,68.5243697 Z M60.5752101,75.2617647 L61.8920168,75.2617647 L61.8920168,73.7836134 L60.5752101,73.7836134 L60.5752101,75.2617647 Z M67.347479,72.9193277 L69.7151261,72.9193277 L69.7151261,71.9584034 L66.8798319,71.9584034 L66.8798319,71.3176471 L69.3,71.3176471 L69.3,66.7088235 L63.5457983,66.7088235 L63.5457983,71.3176471 L65.9079832,71.3176471 L65.9079832,71.9584034 L63.0953782,71.9584034 L63.0953782,72.9193277 L65.437395,72.9193277 C64.9302521,73.8558824 64.0672269,74.8315126 62.8676471,75.8205882 L62.8457983,75.8403361 L62.8457983,72.8457983 L59.6037815,72.8457983 L59.6037815,77.1088235 L60.5752101,77.1088235 L60.5752101,76.2268908 L61.8920168,76.2268908 L61.8920168,76.8382353 L62.8457983,76.8382353 L62.8457983,76.0781513 L63.3457983,76.6445378 L63.4798319,76.5403361 C64.4932773,75.7457983 65.3088235,74.8718487 65.9079832,73.9378151 L65.9079832,77.0957983 L66.8798319,77.0957983 L66.8798319,74.010084 C67.3978992,74.8701681 68.1823529,75.7189076 69.2210084,76.5403361 L69.3668067,76.6533613 L69.9462185,75.8802521 L69.807563,75.7714286 C68.6457983,74.8554622 67.8201681,73.8978992 67.347479,72.9193277 Z" id="Fill-24" fill="#FFFFFF" mask="url(#mask-4)"></path>
                <polygon id="Fill-25" fill="#FFFFFF" mask="url(#mask-4)" points="59.5231092 70.2386555 62.9726891 70.2386555 62.9726891 69.2684874 59.5231092 69.2684874"></polygon>
                <path d="M76.4407563,69.412605 L79.8894958,69.412605 L79.8894958,67.7369748 L76.4407563,67.7369748 L76.4407563,69.412605 Z M75.4508403,70.3714286 L80.8777311,70.3714286 L80.8777311,66.7903361 L75.4508403,66.7903361 L75.4508403,70.3714286 Z" id="Fill-26" fill="#FFFFFF" mask="url(#mask-4)"></path>
                <path d="M78.6471429,74.4581933 L81.1836975,74.4581933 L81.1836975,73.5039916 L78.6471429,73.5039916 L78.6471429,72.0594538 C79.6433613,71.9182773 80.5282353,71.7581933 81.2807563,71.582563 L81.5496639,71.5212185 L80.9152101,70.6741597 L80.7996639,70.7014706 C79.2463025,71.0728992 77.3685714,71.2813025 75.2198319,71.3182773 L74.9412605,71.325 L75.3916807,72.2884454 L75.5097479,72.2834034 C75.7895798,72.2779412 76.4933613,72.2392857 77.6584874,72.1636555 L77.6584874,73.5039916 L75.0421008,73.5039916 L75.0421008,74.4581933 L77.6584874,74.4581933 L77.6584874,75.9002101 L74.6269748,75.9002101 L74.6269748,76.8380252 L81.632437,76.8380252 L81.632437,75.9002101 L78.6471429,75.9002101 L78.6471429,74.4581933 Z" id="Fill-27" fill="#FFFFFF" mask="url(#mask-4)"></path>
                <path d="M75.4183193,72.5059244 L75.3594958,72.395 C75.1136975,71.9307143 74.6485714,71.3185294 73.9389076,70.5256723 L73.9389076,70.292479 L75.3397479,70.292479 L75.3397479,69.3365966 L73.9389076,69.3365966 L73.9389076,67.7693697 C74.2817647,67.6655882 74.7103361,67.5277731 75.217479,67.3538235 L75.4397479,67.2777731 L74.8628571,66.4168487 L74.7263025,66.4756723 C73.8456303,66.8466807 72.7145378,67.1168487 71.3641176,67.2744118 L71.0998319,67.3055042 L71.6052941,68.2433193 L72.9620168,67.987437 L72.9620168,69.3365966 L71.0145378,69.3365966 L71.0145378,70.292479 L72.8456303,70.292479 C72.3292437,71.6139076 71.7061345,72.787437 70.9901681,73.7811345 L70.907395,73.8945798 L71.5636975,74.6609664 L71.6977311,74.4760924 C72.1006723,73.9206303 72.5254622,73.1828151 72.9620168,72.2752521 L72.9620168,77.1193697 L73.9389076,77.1193697 L73.9389076,71.9857563 C74.1914286,72.3181092 74.417479,72.6710504 74.6141176,73.0361765 L74.7355462,73.2643277 L75.4183193,72.5059244 Z" id="Fill-28" fill="#FFFFFF" mask="url(#mask-4)"></path>
                <path d="M90.2567647,69.2766807 L91.7601261,69.2766807 C91.7992017,70.9186975 91.4815546,72.3497899 90.8147479,73.5413866 C90.5613866,72.9703782 90.3428992,72.1741597 90.1647479,71.1733193 L90.1273529,70.9640756 L89.2479412,71.2783613 C89.5996218,70.7031513 89.9361765,70.0334034 90.2567647,69.2766807 Z M87.9836555,71.372479 L87.9836555,71.1804622 L85.9992017,71.1804622 C86.2492017,70.9497899 86.5139076,70.6905462 86.7903782,70.4060924 L88.6420588,70.4060924 C88.4534034,70.725 88.2466807,71.0313025 88.0235714,71.319958 L87.9836555,71.372479 Z M86.0933193,69.4695378 L86.0933193,68.4821429 L87.2517227,68.4821429 C86.9865966,68.832563 86.7084454,69.1640756 86.4176891,69.4695378 L86.0933193,69.4695378 Z M91.3622269,74.4985294 C92.2328151,73.2245798 92.6907983,71.4703782 92.7244118,69.2766807 L93.457605,69.2766807 L93.457605,68.3115546 L90.5693697,68.3115546 C90.7046639,67.8464286 90.8298739,67.3237395 90.942479,66.7573529 L90.9748319,66.5905462 L90.0130672,66.3422269 L89.9819748,66.5380252 C89.7605462,67.932563 89.3395378,69.1792017 88.7273529,70.2590336 L88.7273529,69.4695378 L87.6618067,69.4695378 C88.1731513,68.8506303 88.647521,68.1720588 89.0760924,67.4497899 L89.1735714,67.285084 L88.3071849,66.8338235 L88.2218908,66.9846639 C87.9891176,67.4014706 87.739958,67.8002101 87.4760924,68.1737395 L87.4760924,67.5682773 L86.0933193,67.5682773 L86.0933193,66.419958 L85.1332353,66.419958 L85.1332353,67.5682773 L83.3239916,67.5682773 L83.3239916,68.4821429 L85.1332353,68.4821429 L85.1332353,69.4695378 L82.9723109,69.4695378 L82.9723109,70.4060924 L85.4559244,70.4060924 C84.7933193,70.9951681 83.9147479,71.6065126 82.8370168,72.230042 L82.6567647,72.335084 L83.2891176,73.1304622 L83.4248319,73.0485294 C83.8584454,72.7842437 84.3256723,72.4665966 84.8139076,72.1052521 L86.4613866,72.1052521 C86.1685294,72.3859244 85.8710504,72.6510504 85.5727311,72.8997899 L85.5071849,72.9539916 L85.5071849,73.8157563 C84.782395,73.9468487 83.9378571,74.0758403 82.9962605,74.2023109 L82.7945798,74.2292017 L83.0281933,75.1443277 L83.1853361,75.1254202 C83.802563,75.0514706 84.5832353,74.9405462 85.5071849,74.7939076 L85.5071849,75.9598739 C85.5071849,76.0216387 85.4962605,76.064916 85.4815546,76.075 C85.4727311,76.0796218 85.3853361,76.119958 84.9735714,76.119958 C84.6802941,76.119958 84.4403782,76.1094538 84.2412185,76.0905462 L83.9731513,76.0657563 L84.2773529,77.0611345 L84.3987815,77.0737395 C84.6168487,77.0926471 84.8290336,77.1031513 85.0311345,77.1031513 C85.6344958,77.1031513 86.0013025,77.0119748 86.1861765,76.8157563 C86.3613866,76.6279412 86.4504622,76.3792017 86.4504622,76.0813025 L86.4504622,74.6140756 C87.1407983,74.4926471 87.7992017,74.3607143 88.4092857,74.2170168 L88.5433193,74.1859244 L88.5807143,73.1918067 L88.347521,73.2485294 C87.7172689,73.4060924 87.0798739,73.5397059 86.4504622,73.6489496 L86.4504622,73.3716387 C86.9592857,72.9464286 87.457605,72.4918067 87.9307143,72.0182773 L87.9836555,71.9657563 L87.9836555,71.5081933 L88.6643277,72.1384454 L88.7836555,71.975 C88.9235714,71.7846639 89.0613866,71.5792017 89.197521,71.3611345 L89.2164286,71.4556723 C89.4748319,72.7060924 89.7966807,73.6997899 90.1777731,74.414916 C89.5588655,75.0968487 88.7134874,75.7203782 87.6618067,76.272479 L87.4748319,76.3703782 L88.0903782,77.2006303 L88.2269328,77.1283613 C89.0580252,76.6943277 89.8983613,76.067437 90.7252521,75.267437 C91.2597059,75.9182773 91.9853361,76.5443277 92.8853361,77.1317227 L93.0344958,77.2296218 L93.6147479,76.3628151 L93.4504622,76.2653361 C92.5622269,75.7392857 91.8601261,75.1460084 91.3622269,74.4985294 Z" id="Fill-29" fill="#FFFFFF" mask="url(#mask-4)"></path>
                <path d="M98.287521,69.1207563 L98.287521,68.3905042 L98.595084,68.9510084 L98.6303782,68.9329412 L98.377437,69.1993277 L98.5413025,69.322437 C98.6312185,69.3892437 98.7786975,69.4892437 98.982479,69.6220168 C99.0879412,69.690084 99.1841597,69.7594118 99.2707143,69.8266387 C98.797605,70.1047899 98.4631513,70.2846218 98.2765966,70.367395 L98.2765966,69.6707563 L96.4064286,69.6707563 L96.3992857,69.1207563 L98.287521,69.1207563 Z M103.396345,67.7257983 L103.382899,68.2194958 L101.464832,68.2194958 L101.464832,68.242605 C101.091723,67.9077311 100.869034,67.722437 100.728277,67.6131933 C101.00979,67.3489076 101.219454,67.1291597 101.361471,66.9459664 L101.361471,67.7257983 L103.396345,67.7257983 Z M98.4593697,71.1690756 L96.4408824,71.1690756 L96.4345798,70.5863025 L98.0955042,70.5863025 L98.4593697,71.1690756 Z M101.464832,69.0959664 L101.164412,68.8892437 L101.464832,68.6257983 L101.464832,69.0959664 Z M103.353067,69.1207563 L103.346345,69.6707563 L101.464832,69.6707563 L101.464832,70.4690756 C101.151387,70.2056303 100.91105,70.0085714 100.739622,69.8757983 C101.211471,69.4619328 101.329958,69.327479 101.379118,69.2568908 L101.472395,69.1207563 L103.353067,69.1207563 Z M100.011891,70.4270588 C100.579958,70.8842017 100.811891,71.0837815 100.903487,71.1690756 L98.7429832,71.1690756 C99.0816387,71.017395 99.5072689,70.7686555 100.011891,70.4270588 Z M100.636681,68.7505882 C100.60937,68.7892437 100.497185,68.9211765 100.017773,69.3022689 C99.8555882,69.1829412 99.5669328,68.9812605 99.1421429,68.687563 C99.4597899,68.5241176 99.7526471,68.3552101 100.017773,68.1812605 C100.251387,68.3459664 100.469874,68.5182353 100.671975,68.6963866 L100.636681,68.7505882 Z M101.602227,70.5863025 L103.329958,70.5863025 L103.322815,71.1690756 L101.211471,71.1690756 L101.71105,70.677479 L101.602227,70.5863025 Z M95.8211345,72.0833613 L103.989622,72.0833613 L103.989622,73.5694958 L104.966513,73.5694958 L104.966513,71.1690756 L104.262731,71.1690756 L104.366092,66.8245378 L101.450546,66.8245378 L101.557689,66.6686555 L100.796345,66.2690756 L100.703067,66.3854622 C100.540042,66.5909244 100.31063,66.8140336 100.019034,67.0552101 C99.8560084,66.9295798 99.5904622,66.7316807 99.227437,66.4669748 L99.1106303,66.3812605 L98.4303782,66.9821008 L98.632479,67.1110924 C98.8530672,67.2505882 99.0690336,67.4089916 99.2786975,67.5812605 C98.9387815,67.7896639 98.6240756,67.9564706 98.3417227,68.0778992 L98.1585294,68.1564706 L98.1934034,68.2194958 L96.3862605,68.2194958 L96.3862605,67.7085714 C97.0581092,67.5812605 97.6572689,67.3980672 98.1694538,67.1690756 L98.3505462,67.0871429 L97.9026471,66.3060504 L97.7564286,66.3640336 C97.0761765,66.6417647 96.3492857,66.8278992 95.5959244,66.9190756 L95.435,66.9371429 L95.4812185,71.1690756 L94.8665126,71.1690756 L94.8665126,73.5694958 L95.8211345,73.5694958 L95.8211345,72.0833613 Z" id="Fill-30" fill="#FFFFFF" mask="url(#mask-4)"></path>
                <path d="M102.885588,73.3478992 L102.984328,73.2987395 L102.984328,72.455042 L96.612479,72.455042 L96.612479,73.3693277 L100.675504,73.3693277 C100.337269,73.5054622 99.9671008,73.644958 99.5687815,73.7836134 L99.4481933,73.8273109 L99.4481933,74.247479 L94.6070168,74.247479 L94.6070168,75.1613445 L99.4481933,75.1613445 L99.4481933,75.960084 C99.4481933,75.9987395 99.4435714,76.0676471 99.4145798,76.0815126 C99.3944118,76.0903361 99.2616387,76.1306723 98.562479,76.1306723 C98.3389496,76.1306723 98.115,76.1264706 97.8914706,76.1142857 L97.625084,76.1004202 L97.9553361,77.0630252 L99.4843277,77.0508403 C99.7267647,77.0508403 99.9397899,76.9743697 100.117101,76.8231092 C100.302815,76.6655462 100.396933,76.4441176 100.396933,76.1609244 L100.396933,75.1613445 L105.21416,75.1613445 L105.21416,74.247479 L100.906176,74.247479 C101.601134,73.9634454 102.26416,73.6638655 102.885588,73.3478992" id="Fill-31" fill="#FFFFFF" mask="url(#mask-4)"></path>
                <path d="M112.144874,70.5429412 L112.173445,70.1933613 L114.197395,70.1933613 L114.169244,70.5429412 L112.144874,70.5429412 Z M112.266303,69.382437 L112.293613,69.0757143 L114.326807,69.0757143 L114.297815,69.382437 L112.266303,69.382437 Z M109.269244,69.382437 L109.303697,69.0757143 L111.314622,69.0757143 L111.288571,69.382437 L109.269244,69.382437 Z M111.201176,70.1933613 L111.172605,70.5429412 L109.162941,70.5429412 L109.197395,70.1933613 L111.201176,70.1933613 Z M115.370084,68.242521 L108.445714,68.242521 L108.319244,69.382437 L106.432269,69.382437 L106.432269,70.1933613 L108.224706,70.1933613 L108.115462,71.3866387 L115.065462,71.3866387 L115.168824,70.1933613 L117.063361,70.1933613 L117.063361,69.382437 L115.254958,69.382437 L115.370084,68.242521 Z" id="Fill-32" fill="#FFFFFF" mask="url(#mask-4)"></path>
                <path d="M107.836513,67.9759664 L115.665084,67.9759664 L115.665084,69.0864706 L116.625588,69.0864706 L116.625588,67.1062185 L112.200798,67.1062185 C112.044076,66.8205042 111.921807,66.6137815 111.827269,66.4768067 L111.749538,66.3616807 L110.818866,66.6923529 L110.971807,66.8902521 C111.020966,66.954958 111.070546,67.0280672 111.118866,67.1062185 L106.870126,67.1062185 L106.870126,69.0410924 L107.836513,69.0410924 L107.836513,67.9759664 Z" id="Fill-33" fill="#FFFFFF" mask="url(#mask-4)"></path>
                <path d="M108.873529,72.6554622 L114.604202,72.6554622 L114.604202,72.4756303 L108.873529,72.4756303 L108.873529,72.6554622 Z M108.873529,73.6836134 L114.604202,73.6836134 L114.604202,73.489916 L108.873529,73.489916 L108.873529,73.6836134 Z M108.873529,74.7067227 L114.604202,74.7067227 L114.604202,74.5147059 L108.873529,74.5147059 L108.873529,74.7067227 Z M113.568487,75.5415966 L115.564706,75.5415966 L115.564706,71.6302521 L107.948739,71.6302521 L107.948739,75.5415966 L109.557983,75.5415966 C108.639076,75.907563 107.67479,76.1470588 106.680672,76.2537815 L106.389076,76.2831933 L106.960084,77.1722689 L107.072689,77.1588235 C108.344118,77.0071429 109.648319,76.5802521 110.95084,75.8878151 L111.130672,75.7932773 L110.953782,75.5415966 L112.663445,75.5415966 L112.297059,76.2382353 L112.554622,76.2718487 C114.12563,76.4722689 115.429832,76.7642857 116.433193,77.1378151 L116.591176,77.197479 L116.971849,76.3504202 L116.786134,76.2848739 C115.931513,75.9852941 114.851261,75.7352941 113.568487,75.5415966 Z" id="Fill-34" fill="#FFFFFF" mask="url(#mask-4)"></path>
                <path d="M121.31021,72.720084 L121.31021,71.207479 L122.002227,71.207479 C121.867773,71.7221849 121.654748,72.1982353 121.371555,72.6280672 L121.31021,72.720084 Z M126.53416,70.5562185 C127.070714,69.9940336 127.487101,69.3003361 127.776597,68.4927731 L128.663571,68.4927731 L128.663571,67.5452941 L125.233319,67.5452941 C125.382899,67.3087395 125.51063,67.0822689 125.613992,66.8713445 L125.700126,66.6923529 L124.778697,66.3402521 L124.704328,66.4831092 C124.115672,67.6158824 123.38542,68.5297479 122.53458,69.2028571 L122.368193,69.3331092 L123.091723,70.0011765 L123.212311,69.9070588 C123.625756,69.5801681 124.082479,69.104958 124.571134,68.4927731 L126.744244,68.4927731 C126.492143,69.0961345 126.16105,69.5927731 125.758529,69.970084 C125.426597,69.6566387 125.141303,69.2957143 124.91105,68.897395 L124.821134,68.7415126 L123.989622,69.2133613 L124.079538,69.3692437 C124.28458,69.7322689 124.600966,70.1352101 125.019034,70.5692437 C124.370294,71.0163025 123.70937,71.3415126 123.048445,71.5406723 L122.895504,71.5860504 C122.992983,71.220084 123.052647,70.8423529 123.074076,70.4494958 L123.082899,70.2583193 L121.674076,70.2583193 L121.811891,70.1381513 L121.391723,69.6688235 C121.972395,68.9705042 122.455168,68.2705042 122.827437,67.5860504 L122.849286,67.5465546 L122.849286,66.7318487 L118.638361,66.7318487 L118.638361,67.6805882 L121.677437,67.6805882 C121.41063,68.1121008 121.074916,68.5642017 120.677017,69.0289076 C120.304328,68.7251261 119.988361,68.4822689 119.732899,68.3083193 L119.615252,68.2289076 L118.90937,68.8671429 L119.096765,68.9978151 C119.671555,69.3931933 120.177437,69.817563 120.603487,70.2583193 L118.223235,70.2583193 L118.223235,71.207479 L119.978697,71.207479 C119.447185,72.6347899 118.855588,73.7793277 118.214412,74.6108403 L118.125756,74.7263866 L118.768613,75.4789076 L118.904748,75.3032773 C119.408529,74.6469748 119.900966,73.7763866 120.373655,72.7095798 L120.373655,76.0633613 C120.373655,76.0633613 120.368613,76.0797479 120.336261,76.1070588 C120.292563,76.1452941 120.270714,76.1486555 120.270714,76.1486555 C119.992983,76.1486555 119.604748,76.1289076 119.114412,76.0902521 L118.783319,76.065042 L119.332059,77.0717647 L119.421975,77.0835294 C119.592983,77.1078992 119.782899,77.1196639 119.988361,77.1196639 C120.573655,77.1196639 120.921975,77.0179832 121.087101,76.7961345 C121.235,76.5982353 121.31021,76.4007563 121.31021,76.2070588 L121.31021,72.7751261 L121.998866,73.4289076 L122.119454,73.2566387 C122.453908,72.7784874 122.702227,72.2595798 122.862731,71.7066387 L123.456849,72.4318487 L123.577437,72.3885714 C123.999706,72.2360504 124.421134,72.0423529 124.837101,71.8091597 L124.833319,71.9570588 C124.823235,72.3482353 124.798866,72.6856303 124.757689,72.9629412 L122.712731,72.9629412 L122.712731,73.91 L124.527437,73.91 C124.366092,74.4032773 124.066092,74.8658824 123.631218,75.2927731 C123.127857,75.7877311 122.558529,76.1339496 121.940882,76.3242857 L121.666092,76.4078992 L122.396765,77.1931933 L122.51021,77.1465546 C124.132899,76.497395 125.141723,75.4083193 125.513571,73.91 L127.145504,73.91 C127.100546,74.4326891 127.050126,74.8931933 126.996345,75.2780672 C126.913151,75.8679832 126.865252,75.9797479 126.856429,75.9969748 C126.827857,76.0486555 126.789622,76.0839496 126.739622,76.1091597 C126.722815,76.117563 126.60895,76.1545378 126.050546,76.1545378 C125.768193,76.1545378 125.507689,76.1436134 125.275756,76.1263866 L124.972815,76.1020168 L125.425336,77.1154622 L125.538361,77.1196639 C125.724916,77.1259664 125.894244,77.1284874 126.047605,77.1284874 C126.826176,77.1284874 127.049706,77.0536975 127.157689,76.9864706 C127.33458,76.8780672 127.483319,76.7469748 127.601807,76.5969748 C127.689622,76.4843697 127.808109,76.2431933 127.952647,75.3419328 C128.056849,74.6936134 128.121975,73.954958 128.145084,73.1469748 L128.150966,72.9629412 L125.714412,72.9629412 C125.763992,72.5642017 125.787941,72.2360504 125.787941,71.9839496 L125.787941,71.81 L124.894664,71.7755462 C125.193403,71.604958 125.489622,71.4137815 125.782059,71.2036975 C126.552227,71.7461345 127.389202,72.1545378 128.270714,72.4171429 L128.400546,72.454958 L128.945924,71.604958 L128.70979,71.5389916 C127.924916,71.3234454 127.193403,70.9936134 126.53416,70.5562185 Z" id="Fill-35" fill="#FFFFFF" mask="url(#mask-4)"></path>
                <polygon id="Fill-36" fill="#FFFFFF" mask="url(#mask-4)" points="137.884286 69.6180672 140.171681 69.6180672 140.171681 68.7147059 137.884286 68.7147059 137.884286 68.2680672 140.443109 68.2680672 140.443109 67.3310924 137.884286 67.3310924 137.884286 66.4201681 136.918319 66.4201681 136.918319 67.3310924 134.382605 67.3310924 134.382605 68.2680672 136.918319 68.2680672 136.918319 68.7147059 134.549832 68.7147059 134.549832 69.6180672 136.918319 69.6180672 136.918319 70.0794118 134.124202 70.0794118 134.124202 71.0239496 140.667899 71.0239496 140.667899 70.0794118 137.884286 70.0794118"></polygon>
                <path d="M139.159958,73.7598319 L139.159958,74.2934454 L135.554076,74.2934454 C135.571723,74.1094118 135.583067,73.9321008 135.588529,73.7598319 L139.159958,73.7598319 Z M135.58979,72.8068908 L139.159958,72.8068908 L139.159958,72.3081513 L135.58979,72.3081513 L135.58979,72.8068908 Z M134.618782,73.3438655 C134.618782,74.6955462 134.280126,75.7291597 133.609538,76.4169748 L133.466261,76.5640336 L134.296092,77.1858824 L134.406176,77.0573109 C134.817941,76.5821008 135.146092,75.9762185 135.380966,75.2581513 L139.159958,75.2581513 L139.159958,76.0241176 C139.159958,76.0602521 139.151134,76.0766387 139.123403,76.0947059 C139.120462,76.0963866 139.045672,76.1430252 138.700714,76.1430252 C138.305336,76.1430252 137.962059,76.1337815 137.680966,76.1144538 L137.41458,76.0963866 L137.731387,77.0644538 L137.853655,77.0736975 C138.080546,77.0884034 138.296933,77.0955462 138.504496,77.0955462 C139.128025,77.0955462 139.53979,77.0228571 139.762899,76.8690756 C139.999874,76.7060504 140.125924,76.4531092 140.125924,76.1379832 L140.125924,71.3707563 L134.618782,71.3707563 L134.618782,73.3438655 Z" id="Fill-37" fill="#FFFFFF" mask="url(#mask-4)"></path>
                <path d="M130.736092,71.6803361 C130.592815,72.945042 130.346176,73.9996639 130.005,74.8177311 L129.936513,74.9841176 L130.884832,75.3904202 L130.947437,75.2059664 C131.291975,74.19 131.537773,73.0752941 131.675588,71.8895798 L131.693655,71.7370588 L130.760042,71.4702521 L130.736092,71.6803361 Z" id="Fill-38" fill="#FFFFFF" mask="url(#mask-4)"></path>
                <path d="M133.621429,74.5780252 L134.52479,74.127605 L134.489916,73.9864286 C134.296218,73.2158403 134.02395,72.4368487 133.678571,71.6721429 L133.59958,71.4973529 L132.77521,71.9381092 L132.841597,72.0889496 C133.176891,72.8654202 133.423529,73.6267647 133.57437,74.3490336 L133.621429,74.5780252 Z" id="Fill-39" fill="#FFFFFF" mask="url(#mask-4)"></path>
                <path d="M134.056807,70.3164286 L132.71563,70.3164286 L132.71563,69.7256723 L133.594202,70.1185294 L133.660588,69.9357563 C133.98958,69.0273529 134.209748,68.2756723 134.31437,67.700042 L134.34,67.5542437 L133.450084,67.1928992 L133.406387,67.4063445 C133.237059,68.2466807 133.01479,68.9647479 132.745462,69.5382773 L132.71563,69.6042437 L132.71563,66.432395 L131.737059,66.432395 L131.737059,69.5836555 L131.706387,69.4622269 C131.48916,68.5987815 131.258487,67.9071849 131.020672,67.400042 L130.942941,67.2340756 L130.109328,67.6483613 L130.171092,67.8038235 C130.472353,68.5676891 130.674454,69.237437 130.772353,69.7945798 L130.812269,70.0244118 L131.737059,69.6122269 L131.737059,70.3164286 L130.077395,70.3164286 L130.077395,71.2832353 L131.737059,71.2832353 L131.737059,77.1088655 L132.71563,77.1088655 L132.71563,71.2832353 L134.056807,71.2832353 L134.056807,70.3164286 Z" id="Fill-40" fill="#FFFFFF" mask="url(#mask-4)"></path>
                <path d="M143.836387,68.7802101 L143.962437,68.9419748 L144.642689,68.2617227 L144.551092,68.1377731 C144.143529,67.5797899 143.567899,67.0092017 142.840588,66.4365126 L142.706555,66.3297899 L142.083025,67.0373529 L142.230084,67.1571008 C142.855714,67.6642437 143.397311,68.2092017 143.836387,68.7802101" id="Fill-41" fill="#FFFFFF" mask="url(#mask-4)"></path>
                <path d="M146.747899,74.189916 L148.535714,74.189916 L148.535714,72.9819328 L146.747899,72.9819328 L146.747899,74.189916 Z M146.747899,72.039916 L148.535714,72.039916 L148.535714,71.0008403 L146.747899,71.0008403 L146.747899,72.039916 Z M146.747899,70.0693277 L148.535714,70.0693277 L148.535714,69.1084034 L146.747899,69.1084034 L146.747899,70.0693277 Z M150.687815,75.9928571 C149.539916,75.9928571 148.538235,75.9731092 147.710924,75.9327731 C146.884874,75.8928571 146.298319,75.8336134 145.969748,75.7554622 C145.640756,75.6785714 145.30042,75.5504202 144.957563,75.3756303 C144.659244,75.2239496 144.390756,75.0352941 144.157143,74.810084 C144.505882,74.1659664 144.759664,73.5004202 144.910504,72.8310924 L144.915546,72.0273109 L143.427311,72.0273109 C143.85,71.4415966 144.22605,70.902521 144.552941,70.4180672 L145.159664,71.1567227 L145.30042,71.0163866 C145.427311,70.8882353 145.582353,70.7029412 145.769328,70.4542017 L145.769328,75.1147059 L152.268908,75.1147059 L152.268908,74.189916 L149.508403,74.189916 L149.508403,72.9819328 L151.905462,72.9819328 L151.905462,72.039916 L149.508403,72.039916 L149.508403,71.0008403 L151.905462,71.0008403 L151.905462,70.0693277 L149.508403,70.0693277 L149.508403,69.1084034 L152.164706,69.1084034 L152.164706,68.1739496 L149.684874,68.1739496 C149.553361,67.7642857 149.364706,67.2432773 149.121008,66.6226891 L149.058824,66.4634454 L148.111765,66.7680672 L148.195798,66.9516807 C148.389076,67.3810924 148.543277,67.7911765 148.654202,68.1739496 L147.078992,68.1739496 C147.278571,67.707563 147.464286,67.2260504 147.630672,66.7352941 L147.693697,66.5521008 L146.75084,66.3016807 L146.7,66.4668067 C146.257983,67.8915966 145.567227,69.1731092 144.648319,70.2747899 C144.746218,70.1294118 144.838655,69.9865546 144.92563,69.8521008 L144.955882,69.8067227 L144.955882,68.9962185 L141.840336,68.9962185 L141.840336,69.9340336 L143.709244,69.9340336 C143.128151,70.8155462 142.601681,71.5407563 142.140756,72.0941176 L142.09958,72.144958 L142.09958,72.9705882 L143.878151,72.9705882 C143.518908,74.2441176 142.802521,75.405042 141.744958,76.4226891 L141.60042,76.5621849 L142.339076,77.1810924 L142.455882,77.0701681 C142.952101,76.5966387 143.365546,76.1109244 143.684874,75.6226891 C144.082353,75.9911765 144.571008,76.2831933 145.141597,76.4966387 C145.785714,76.7331933 146.752521,76.8710084 148.017227,76.9037815 C149.27521,76.9365546 150.679412,76.9470588 152.210084,76.9357143 L152.353361,76.9340336 L152.57479,75.962605 L152.342437,75.9705882 C151.828151,75.9852941 151.270588,75.9928571 150.687815,75.9928571 Z" id="Fill-42" fill="#FFFFFF" mask="url(#mask-4)"></path>
                <path d="M159.068067,70.8121849 L160.92563,70.8121849 L160.92563,69.507563 L159.068067,69.507563 L159.068067,70.8121849 Z M159.068067,73.0319328 L160.92563,73.0319328 L160.92563,71.7894958 L159.068067,71.7894958 L159.068067,73.0319328 Z M159.068067,75.3592437 L160.92563,75.3592437 L160.92563,74.0193277 L159.068067,74.0193277 L159.068067,75.3592437 Z M161.898319,74.0193277 L163.868908,74.0193277 L163.868908,73.0319328 L161.898319,73.0319328 L161.898319,71.7894958 L163.868908,71.7894958 L163.868908,70.8121849 L161.898319,70.8121849 L161.898319,69.5071429 L164.012605,69.5071429 L164.012605,68.5117647 L162.015966,68.5117647 C161.85042,67.8226891 161.639916,67.1588235 161.390336,66.5340336 L161.315546,66.3470588 L160.410504,66.8277311 L160.465126,66.9764706 C160.698739,67.605042 160.865966,68.1197479 160.961765,68.5117647 L159.381092,68.5117647 C159.656723,67.9004202 159.880672,67.3310924 160.05042,66.8138655 L160.104622,66.6508403 L159.138235,66.2697479 L159.079832,66.4546218 C158.55042,68.1235294 157.861765,69.502521 157.034874,70.5521008 L156.932773,70.6815126 L157.291176,71.0222689 L157.092437,71.1273109 C156.944118,71.205042 156.672689,71.3289916 156.284874,71.497479 L156.284874,69.4844538 L157.67395,69.4844538 L157.67395,68.5117647 L156.284874,68.5117647 L156.284874,66.4436975 L155.307563,66.4436975 L155.307563,68.5117647 L153.665126,68.5117647 L153.665126,69.4844538 L155.307563,69.4844538 L155.307563,71.9222689 C154.718067,72.144958 154.185294,72.3302521 153.723109,72.4739496 L153.543697,72.5298319 L153.878151,73.4840336 L154.045798,73.4289916 C154.427311,73.3042017 154.85042,73.1533613 155.307563,72.9777311 L155.307563,75.960084 C155.307563,76.052521 155.27479,76.0705882 155.256723,76.0798319 C155.238655,76.0903361 155.12521,76.1382353 154.634874,76.1382353 C154.478992,76.1382353 154.284874,76.1340336 154.053361,76.1264706 L153.789076,76.1176471 L154.144958,77.1197479 L154.271849,77.1197479 C154.847899,77.1197479 155.22521,77.1079832 155.428992,77.0836134 C155.668067,77.0571429 155.873529,76.9487395 156.037815,76.7659664 C156.202101,76.5819328 156.284874,76.3285714 156.284874,76.012605 L156.284874,72.5773109 C156.645798,72.4294118 157.021849,72.2491597 157.407143,72.0382353 L157.528571,71.9726891 L157.30042,71.0310924 L157.694958,71.4071429 L157.816387,71.2436975 C157.901681,71.1298319 157.985714,71.0130252 158.068067,70.8915966 L158.068067,77.0852941 L159.068487,77.0852941 L159.068487,76.3319328 L164.296218,76.3319328 L164.296218,75.3592437 L161.898319,75.3592437 L161.898319,74.0193277 Z" id="Fill-43" fill="#FFFFFF" mask="url(#mask-4)"></path>
                <path d="M166.940336,71.1462185 L168.146639,71.1462185 L168.146639,70.6882353 L166.940336,70.6882353 L166.940336,71.1462185 Z M166.940336,72.6109244 L168.146639,72.6109244 L168.146639,72.0726891 L166.940336,72.0726891 L166.940336,72.6109244 Z M169.089916,72.6109244 L170.296218,72.6109244 L170.296218,72.0726891 L169.089916,72.0726891 L169.089916,72.6109244 Z M169.089916,71.1462185 L170.296218,71.1462185 L170.296218,70.6882353 L169.089916,70.6882353 L169.089916,71.1462185 Z M173.809664,66.6571429 L173.811765,66.4726891 L172.864706,66.4726891 L172.823529,68.7852941 L171.535294,68.7966387 L171.535294,69.7453782 L172.794118,69.7327731 C172.726891,72.3588235 172.205882,74.5869748 171.244958,76.3647059 L171.244958,75.4546218 L171.035714,75.4882353 C170.365126,75.5970588 169.712185,75.6827731 169.089916,75.7390756 L169.089916,74.9302521 L171.244958,74.9302521 L171.244958,74.010084 L169.089916,74.010084 L169.089916,73.5348739 L171.244958,73.5348739 L171.244958,69.7394958 L169.089916,69.7394958 L169.089916,69.2357143 L171.434874,69.2357143 L171.434874,68.3117647 L169.089916,68.3117647 L169.089916,67.7298319 C170.02521,67.6172269 170.782353,67.4760504 171.340756,67.3105042 L171.569748,67.2415966 L171.054622,66.4348739 L170.928571,66.4668067 C169.384454,66.8533613 167.709664,67.0386555 165.94958,67.0151261 L165.689496,67.0117647 L166.016387,67.9168067 L166.143697,67.9168067 C166.865966,67.9168067 167.539076,67.8945378 168.146639,67.8495798 L168.146639,68.3117647 L165.565126,68.3117647 L165.565126,69.2357143 L168.146639,69.2357143 L168.146639,69.7394958 L165.980672,69.7394958 L165.980672,73.5348739 L168.146639,73.5348739 L168.146639,74.010084 L165.963445,74.010084 L165.963445,74.9302521 L168.146639,74.9302521 L168.146639,75.8621849 C167.218067,75.9689076 166.342437,76.0542017 165.542017,76.1142857 L165.330252,76.1289916 L165.560924,77.0882353 L165.718067,77.0735294 C167.164286,76.9201681 168.971008,76.7033613 171.088235,76.4277311 L171.219748,76.4105042 C171.172689,76.4966387 171.12479,76.5802521 171.076471,76.6642857 L170.978151,76.8306723 L171.835714,77.2516807 L171.918908,77.1029412 C173.073109,75.0546218 173.684454,72.5764706 173.737815,69.7323529 L174.618487,69.7323529 C174.615546,70.942437 174.588655,72.1638655 174.537815,73.362605 L174.428992,75.6319328 C174.415966,75.8247899 174.368067,75.962605 174.283613,76.0420168 C174.198319,76.1218487 174.107143,76.1609244 174.003361,76.1609244 C173.683193,76.1609244 173.305042,76.1529412 172.869328,76.1382353 L172.610084,76.1273109 L172.930672,77.097479 L173.048319,77.1079832 C173.17521,77.1197479 173.321849,77.1260504 173.485294,77.1260504 C174.097899,77.1260504 174.511345,77.0537815 174.747059,76.9054622 C174.989496,76.7542017 175.157983,76.5336134 175.25042,76.2521008 C175.304202,76.0857143 175.385294,75.642437 175.460084,73.7105042 C175.515546,72.2957983 175.544118,70.6978992 175.544118,68.9647059 L175.544118,68.7836134 L173.758403,68.7836134 C173.778571,68.2319328 173.795378,67.5336134 173.809664,66.6571429 Z" id="Fill-44" fill="#FFFFFF" mask="url(#mask-4)"></path>
                <path d="M178.753782,75.4521008 L180.917647,75.4521008 L180.917647,73.8995798 L178.753782,73.8995798 L178.753782,75.4521008 Z M177.782353,77.1088235 L178.753782,77.1088235 L178.753782,76.4407563 L180.917647,76.4407563 L180.917647,77.0159664 L181.882773,77.0159664 L181.882773,72.9508403 L177.782353,72.9508403 L177.782353,77.1088235 Z" id="Fill-45" fill="#FFFFFF" mask="url(#mask-4)"></path>
                <path d="M182.482395,67.8495798 L180.450462,67.8495798 C180.189538,67.2546218 179.929034,66.7752101 179.676933,66.4256303 L179.59416,66.312605 L178.668529,66.6836134 L178.793319,66.8680672 C179.01937,67.2071429 179.210966,67.5361345 179.363908,67.8495798 L177.235336,67.8495798 L177.235336,68.8285714 L182.482395,68.8285714 L182.482395,67.8495798 Z" id="Fill-46" fill="#FFFFFF" mask="url(#mask-4)"></path>
                <polygon id="Fill-47" fill="#FFFFFF" mask="url(#mask-4)" points="185.531092 66.4602521 184.531092 66.4602521 184.531092 69.8215966 182.179412 69.8215966 182.179412 70.8106723 184.531092 70.8106723 184.531092 77.1316807 185.531092 77.1316807 185.531092 70.8106723 187.888235 70.8106723 187.888235 69.8215966 185.531092 69.8215966"></polygon>
                <polygon id="Fill-48" fill="#FFFFFF" mask="url(#mask-4)" points="177.782353 72.1743697 181.883193 72.1743697 181.883193 71.2378151 177.782353 71.2378151"></polygon>
                <polygon id="Fill-49" fill="#FFFFFF" mask="url(#mask-4)" points="177.782353 70.5159664 181.883193 70.5159664 181.883193 69.5617647 177.782353 69.5617647"></polygon>
                <path d="M194.792857,69.3260504 L197.457563,69.3260504 L197.457563,69.0289916 L194.792857,69.0289916 L194.792857,69.3260504 Z M194.792857,68.2193277 L197.457563,68.2193277 L197.457563,67.9289916 L194.792857,67.9289916 L194.792857,68.2193277 Z M194.792857,71.5794118 L194.792857,71.2710084 L198.797059,71.2710084 L198.797059,70.4495798 L194.792857,70.4495798 L194.792857,70.1348739 L198.428571,70.1348739 L198.428571,69.0289916 L199.586975,69.0289916 L199.586975,68.2197479 L198.428571,68.2197479 L198.428571,67.1184874 L194.792857,67.1184874 L194.792857,66.4726891 L193.855042,66.4726891 L193.855042,67.1184874 L190.080672,67.1184874 L190.080672,67.9289916 L193.855042,67.9289916 L193.855042,68.2197479 L189.060924,68.2197479 L189.060924,69.0289916 L193.855042,69.0289916 L193.855042,69.3260504 L190.092017,69.3260504 L190.092017,70.1348739 L193.855042,70.1348739 L193.855042,70.4495798 L189.844958,70.4495798 L189.844958,71.2710084 L193.855042,71.2710084 L193.855042,71.5794118 L189.014706,71.5794118 L189.014706,72.4008403 L199.621429,72.4008403 L199.621429,71.5794118 L194.792857,71.5794118 Z" id="Fill-50" fill="#FFFFFF" mask="url(#mask-4)"></path>
                <path d="M194.792857,74.9785714 L197.416807,74.9785714 L197.416807,74.6306723 L194.792857,74.6306723 L194.792857,74.9785714 Z M194.792857,73.85 L197.416807,73.85 L197.416807,73.5004202 L194.792857,73.5004202 L194.792857,73.85 Z M191.184454,74.9785714 L193.842857,74.9785714 L193.842857,74.6306723 L191.184454,74.6306723 L191.184454,74.9785714 Z M191.184454,73.85 L193.842857,73.85 L193.842857,73.5004202 L191.184454,73.5004202 L191.184454,73.85 Z M190.230252,75.7894958 L198.370168,75.7894958 L198.370168,72.689916 L190.230252,72.689916 L190.230252,75.7894958 Z" id="Fill-51" fill="#FFFFFF" mask="url(#mask-4)"></path>
                <polygon id="Fill-52" fill="#FFFFFF" mask="url(#mask-4)" points="189.014706 76.9941176 199.621429 76.9941176 199.621429 76.1726891 189.014706 76.1726891"></polygon>
                <path d="M49.6083613,52.8083193 L54.6260084,48.720084 C54.6260084,48.720084 63.8360924,57.6688235 89.5566807,53.5272269 C89.5566807,53.5272269 77.2058403,60.1595798 62.1877731,57.3520168 C62.1877731,57.3520168 54.3272689,55.7730252 49.6083613,52.8083193" id="Fill-53" fill="#D2D6DD" mask="url(#mask-4)"></path>
                <path d="M57.1344538,46.7191597 L61.6962185,42.5788235 C61.6962185,42.5788235 67.4163866,52.580084 90.2579832,52.6145378 L90.407563,52.6145378 L90.0121849,53.0267227 C90.0121849,53.0267227 69.7138655,58.5813445 57.1344538,46.7191597" id="Fill-54" fill="#D2D6DD" mask="url(#mask-4)"></path>
                <path d="M63.5729832,41.1404622 L68.4855882,37.2455042 C68.4855882,37.2455042 73.5561765,49.3345798 91.0830672,51.9123109 L90.7536555,52.2681933 C90.7536555,52.2681933 74.6784454,53.7715546 63.5729832,41.1404622" id="Fill-55" fill="#D2D6DD" mask="url(#mask-4)"></path>
                <path d="M70.1522689,36.017605 L74.4337815,32.6491176 C74.4337815,32.6491176 78.9942857,46.2457563 91.9073109,51.0167647 L91.38,51.5970168 C91.38,51.5970168 79.0648739,51.4919748 70.1522689,36.017605" id="Fill-56" fill="#D2D6DD" mask="url(#mask-4)"></path>
                <path d="M76.1612185,31.8996218 L80.4771849,28.6752521 C80.4771849,28.6752521 82.2402101,42.4382773 92.6616387,50.0697899 L92.1355882,50.702563 C92.1355882,50.702563 83.4502941,48.4130672 76.1612185,31.8996218" id="Fill-57" fill="#D2D6DD" mask="url(#mask-4)"></path>
                <path d="M82.5381933,28.0528992 L86.3986975,25.1230672 C86.3986975,25.1230672 85.2793697,35.1108824 93.542395,49.1638235 L92.9117227,49.8877731 C92.9117227,49.8877731 84.9604622,43.3159244 82.5381933,28.0528992" id="Fill-58" fill="#D2D6DD" mask="url(#mask-4)"></path>
                <path d="M88.7406303,24.2020168 L92.9511345,21.2015966 C92.9511345,21.2015966 92.1171008,38.0881513 94.5036555,47.8419328 L93.7011345,48.9322689 C93.7011345,48.9322689 90.1347479,42.9133613 88.7406303,24.2020168" id="Fill-59" fill="#D2D6DD" mask="url(#mask-4)"></path>
                <path d="M97.5916387,-3.00016807 C97.5916387,-3.00016807 114.082815,29.2813445 89.5567647,53.5271429 C89.5567647,53.5271429 89.3521429,53.7389076 89.2697899,53.7880672 C89.1878571,53.8372269 115.116008,40.2052941 105.134916,3.59647059 L97.5916387,-3.00016807 Z" id="Fill-60" fill="#E06466" mask="url(#mask-4)"></path>
                <path d="M108.118403,6.05273109 C108.118403,6.05273109 118.856639,35.3964286 89.4167227,53.7069328 C89.4167227,53.7069328 118.030588,46.280042 114.715042,12.5094538 L108.118403,6.05273109 Z" id="Fill-61" fill="#00A1BC" mask="url(#mask-4)"></path>
                <path d="M124.25916,21.772521 L118.78521,16.0183193 C118.78521,16.0183193 118.504958,41.9048739 90.7146218,53.3817647 C90.7146218,53.3817647 118.645714,48.017479 124.25916,21.772521" id="Fill-62" fill="#00A287" mask="url(#mask-4)"></path>
                <path d="M127.486345,24.5786975 L131.977941,29.879958 C131.977941,29.879958 116.522899,53.3673529 93.1619748,52.7631513 C93.1619748,52.7631513 118.994748,46.8946639 127.486345,24.5786975" id="Fill-63" fill="#F3C161" mask="url(#mask-4)"></path>
                <path d="M134.504034,32.6492857 L138.504454,37.9828992 C138.504454,37.9828992 124.873782,56.8761765 93.1615966,52.7631513 C93.1615966,52.7631513 119.347311,53.7732353 134.504034,32.6492857" id="Fill-64" fill="#D88945" mask="url(#mask-4)"></path>
                <path d="M140.749958,40.8602101 L144.32979,45.4921429 C144.32979,45.4921429 128.398697,60.7946639 95.9764286,53.0715546 C95.9764286,53.0715546 120.749538,56.5807983 140.749958,40.8602101" id="Fill-65" fill="#C65952" mask="url(#mask-4)"></path>
                <path d="M146.504706,48.0543697 L150.013529,52.322437 C150.013529,52.322437 133.64042,66.9144538 95.6857983,53.0430252 C95.6857983,53.0430252 124.679076,61.1451261 146.504706,48.0543697" id="Fill-66" fill="#345A86" mask="url(#mask-4)"></path>
            </g>
        </g>
    </g>
</svg>