<?xml version="1.0" encoding="UTF-8"?>
<svg width="215px" height="45px" viewBox="0 0 215 45" version="1.1" xmlns="http://www.w3.org/2000/svg" xmlns:xlink="http://www.w3.org/1999/xlink">
    <!-- Generator: Sketch 51.3 (57544) - http://www.bohemiancoding.com/sketch -->
    <title>Group 66</title>
    <desc>Created with Sketch.</desc>
    <defs>
        <polygon id="path-1" points="0 44.4560488 214.44311 44.4560488 214.44311 -0.000109756098 0 -0.000109756098"></polygon>
    </defs>
    <g id="Symbols" stroke="none" stroke-width="1" fill="none" fill-rule="evenodd">
        <g id="header" transform="translate(-41.000000, -60.000000)">
            <g id="Group-66" transform="translate(41.000000, 60.000000)">
                <path d="M78.3662927,22.5377561 C77.8059878,23.8509878 77.2385488,24.8574512 76.6787927,25.5258659 L76.5136098,25.725622 L77.5864756,26.4659268 L77.7225732,26.2892195 C78.4217195,25.393061 79.0226341,24.3086707 79.5105,23.0695244 L79.5895244,22.868122 L78.4645244,22.3083659 L78.3662927,22.5377561 Z" id="Fill-1" fill="#231916"></path>
                <path d="M90.2435488,14.743372 L90.5420854,14.6061768 L89.5932439,13.610689 L89.4368415,13.6886159 C88.2459878,14.285689 86.675378,14.7219695 84.7683659,14.9826402 L84.5647683,15.0100793 L84.5647683,19.8387988 C84.5647683,21.5043476 84.4248293,22.8603841 84.1482439,23.8701402 C84.0626341,24.1818476 83.952878,24.490811 83.8305,24.8003232 L83.7536707,24.6159329 C83.4287927,23.8443476 83.0413537,23.1188598 82.6039756,22.4553841 L82.4821463,22.2709939 L81.4383659,22.8647744 L81.5547073,23.0694695 C82.0173293,23.8816646 82.3690976,24.6044085 82.6006829,25.2184939 L82.6994634,25.4852012 L83.8272073,24.8080061 C83.5561098,25.4950793 83.2010488,26.1755671 82.7537927,26.8412378 L82.6297683,27.025628 L83.6439146,27.8027012 L83.7860488,27.6084329 C85.0850122,25.8413598 85.7578171,23.2417866 85.7874512,19.8848963 L87.6137927,19.8848963 L87.6137927,27.6600183 L88.8748902,27.6600183 L88.8748902,19.8848963 L90.5382439,19.8848963 L90.5382439,18.6446524 L85.8039146,18.6446524 L85.8039146,16.0791037 C87.4261098,15.8063598 88.9193415,15.3585549 90.2435488,14.743372" id="Fill-3" fill="#231916"></path>
                <path d="M81.8757439,16.3093171 C81.6518415,17.0512683 81.3620854,17.7849878 81.0119634,18.4956585 L80.0494024,18.4956585 C79.8891585,17.8464512 79.6476951,17.114378 79.3310488,16.3093171 L81.8757439,16.3093171 Z M84.2311098,20.7758415 L81.1145854,20.7758415 L81.1145854,19.7348049 L84.065378,19.7348049 L84.065378,18.4956585 L82.4064146,18.4956585 C82.7801341,17.6757805 83.052878,17.0062683 83.218061,16.5013902 L83.2762317,16.3252317 L83.2509878,16.3093171 L83.8919634,16.3093171 L83.8919634,15.0410854 L81.1134878,15.0410854 C80.8495244,14.4709024 80.5970854,14.0209024 80.3616585,13.6982195 L80.2502561,13.5462073 L79.0709268,14.0648049 L79.2432439,14.2996829 C79.4270854,14.5537683 79.582939,14.8023659 79.7086098,15.0410854 L77.008061,15.0410854 L77.008061,16.3093171 L77.9909268,16.3093171 L77.9217805,16.3565122 L77.9975122,16.5343171 C78.3564146,17.3745 78.5995244,18.0297439 78.7240976,18.4956585 L76.9026951,18.4956585 L76.9026951,19.7348049 L79.875439,19.7348049 L79.875439,20.7758415 L76.7298293,20.7758415 L76.7298293,21.9837073 L79.875439,21.9837073 L79.875439,27.6460244 L81.1145854,27.6460244 L81.1145854,21.9837073 L84.2311098,21.9837073 L84.2311098,20.7758415 Z" id="Fill-5" fill="#231916"></path>
                <path d="M101.467317,22.2922866 L105.33622,22.2922866 L105.33622,21.0169207 L101.467317,21.0169207 L101.467317,17.9415549 L105.825183,17.9415549 L105.825183,16.673872 L101.631402,16.673872 C101.29939,15.6224085 100.920732,14.6340549 100.504207,13.7389939 L100.414756,13.5458232 L99.1481707,13.9842988 L99.2776829,14.2268598 C99.7831098,15.1784451 100.131585,15.9983232 100.314329,16.673872 L96.2917683,16.673872 L96.2917683,17.9415549 L100.176037,17.9415549 L100.176037,21.0169207 L96.7587805,21.0169207 L96.7587805,22.2922866 L100.176037,22.2922866 L100.176037,25.9707622 L96.0135366,25.9707622 L96.0135366,27.2389939 L106.013963,27.2389939 L106.013963,25.9707622 L101.467317,25.9707622 L101.467317,22.2922866 Z" id="Fill-7" fill="#231916"></path>
                <path d="M96.9514024,14.212811 L97.0364634,13.9823232 L95.8159756,13.5910427 L95.7358537,13.800128 C94.7793293,16.2784207 93.5176829,18.2688476 91.9854878,19.7115915 L91.8532317,19.8367134 L92.5271341,21.0791524 L92.7504878,20.8541524 C93.3684146,20.2323841 93.9144512,19.6029329 94.3798171,18.9795183 L94.3798171,27.592628 L95.6710976,27.592628 L95.6710976,16.9490305 L96.1660976,15.9683598 C96.5206098,15.2587866 96.7845732,14.6693963 96.9514024,14.212811" id="Fill-9" fill="#231916"></path>
                <path d="M113.994165,20.4005305 L109.927701,20.4005305 L109.927701,18.574189 L113.817457,18.574189 C113.84764,19.1882744 113.907457,19.7990671 113.994165,20.4005305 Z M109.927701,17.2763232 L118.63136,17.2763232 L118.63136,15.2935793 L109.927701,15.2935793 L109.927701,17.2763232 Z M120.126238,23.8347988 C119.680079,26.2247378 119.24325,26.3460183 119.160933,26.3460183 C119.056665,26.3460183 118.78447,26.2840061 118.124835,25.8603476 C117.611726,25.5305305 117.102457,24.9762622 116.611848,24.2151037 C116.159652,23.5121159 115.812823,22.654372 115.578494,21.6610793 L121.044348,21.6610793 L121.044348,20.4005305 L115.315628,20.4005305 C115.203677,19.7469329 115.142762,19.1333963 115.135628,18.574189 L119.930323,18.574189 L119.930323,14.0094329 L108.606238,14.0094329 L108.606238,26.1896159 C108.606238,26.2582134 108.588128,26.3032134 108.495384,26.3405305 L108.286848,26.4283354 L108.730262,27.6345549 L108.93386,27.5851646 C111.491177,26.9847988 113.268677,26.4947378 114.36514,26.0875427 L114.518799,26.0288232 L114.518799,24.7298598 L114.206543,24.836872 C113.111726,25.2182744 111.672823,25.6106524 109.927701,26.0019329 L109.927701,21.6610793 L114.235079,21.6610793 C114.655445,23.604311 115.380933,25.0876646 116.391787,26.0727256 C117.460811,27.1154085 118.367396,27.6224817 119.160933,27.6224817 C119.659774,27.6224817 120.072457,27.424372 120.38636,27.0330915 C120.679409,26.6708963 120.997701,25.8175427 121.360445,24.4285793 L121.404348,24.2612012 L120.189348,23.4951037 L120.126238,23.8347988 Z" id="Fill-11" fill="#231916"></path>
                <mask id="mask-2" fill="white">
                    <use xlink:href="#path-1"></use>
                </mask>
                <g id="Clip-14"></g>
                <path d="M130.384756,25.3524512 L134.625732,25.3524512 L134.625732,23.2495244 L130.384756,23.2495244 L130.384756,25.3524512 Z M129.10939,27.6062927 L130.385305,27.6062927 L130.385305,26.5905 L134.625732,26.5905 L134.625732,27.6062927 L135.918659,27.6062927 L135.918659,21.987878 L129.10939,21.987878 L129.10939,27.6062927 Z" id="Fill-13" fill="#231916" mask="url(#mask-2)"></path>
                <path d="M128.608628,15.2664146 L126.502957,15.2664146 C126.34436,14.7412317 126.118811,14.1913537 125.829055,13.6266585 L125.728628,13.4301951 L124.558079,13.9257439 L124.681006,14.152939 C124.878567,14.5228171 125.039909,14.8943415 125.16064,15.2664146 L123.019848,15.2664146 L123.019848,16.4967805 L128.608628,16.4967805 L128.608628,15.2664146 Z" id="Fill-15" fill="#231916" mask="url(#mask-2)"></path>
                <path d="M134.302774,17.8827805 L134.302774,19.8946098 L131.949604,19.8946098 L132.40125,17.8827805 L134.302774,17.8827805 Z M135.578689,16.6579024 L132.682774,16.6579024 L133.015884,15.2332683 L136.564848,15.2332683 L136.564848,14.008939 L128.67997,14.008939 L128.67997,15.2332683 L131.706494,15.2332683 L131.377226,16.6579024 L129.003201,16.6579024 L129.003201,17.8827805 L131.101738,17.8827805 L130.625945,19.8946098 L128.311738,19.8946098 L128.311738,21.1337561 L136.91936,21.1337561 L136.91936,19.8946098 L135.578689,19.8946098 L135.578689,16.6579024 Z" id="Fill-16" fill="#231916" mask="url(#mask-2)"></path>
                <polygon id="Fill-17" fill="#231916" mask="url(#mask-2)" points="123.411402 18.792878 128.119939 18.792878 128.119939 17.5411098 123.411402 17.5411098"></polygon>
                <path d="M124.785,25.1636707 L126.69311,25.1636707 L126.69311,23.2632439 L124.785,23.2632439 L124.785,25.1636707 Z M123.516768,27.6062927 L124.785549,27.6062927 L124.785549,26.4264146 L126.69311,26.4264146 L126.69311,27.2676951 L127.96189,27.2676951 L127.96189,22.040561 L123.516768,22.040561 L123.516768,27.6062927 Z" id="Fill-18" fill="#231916" mask="url(#mask-2)"></path>
                <polygon id="Fill-19" fill="#231916" mask="url(#mask-2)" points="123.411402 20.9984268 128.119939 20.9984268 128.119939 19.7367805 123.411402 19.7367805"></polygon>
                <path d="M146.342689,23.5645793 C147.795311,21.9072622 148.869823,19.8207988 149.539335,17.362811 L152.333726,17.362811 L152.333726,16.0863476 L146.134701,16.0863476 C145.810372,15.3465915 145.348299,14.5300061 144.758909,13.6607378 L144.654091,13.5065305 L143.382018,13.9943963 L143.569701,14.2429939 C143.992811,14.8098841 144.382994,15.4283598 144.729274,16.0863476 L138.435311,16.0863476 L138.435311,17.362811 L148.227201,17.362811 C147.637262,19.3900061 146.681835,21.1872622 145.38397,22.7090305 C144.09214,21.3321402 143.07086,19.6265305 142.34647,17.642689 L142.259213,17.4017744 L141.089213,17.9373841 L141.166591,18.1431768 C141.956287,20.2279939 143.060982,22.0444573 144.45214,23.5409817 C142.972628,24.8339085 140.986591,25.8507988 138.54397,26.5658598 L138.191652,26.6695793 L139.120189,27.7413476 L139.267811,27.6930549 C141.661043,26.9357378 143.714579,25.8409207 145.375738,24.445372 C147.040738,25.8667134 149.089884,26.9730549 151.468848,27.7380549 L151.626348,27.7885427 L152.493421,26.665189 L152.166348,26.5680549 C149.779701,25.8475061 147.821652,24.8366524 146.342689,23.5645793" id="Fill-20" fill="#231916" mask="url(#mask-2)"></path>
                <path d="M159.070226,15.2503354 L157.213701,15.2503354 C156.987604,14.6691768 156.707726,14.1214939 156.382299,13.6199085 L156.26925,13.4442988 L155.119555,14.0078963 L155.26553,14.23125 C155.497665,14.5868598 155.687543,14.9298476 155.833518,15.2503354 L153.865043,15.2503354 L153.865043,16.4839939 L159.070226,16.4839939 L159.070226,15.2503354 Z" id="Fill-21" fill="#231916" mask="url(#mask-2)"></path>
                <polygon id="Fill-22" fill="#231916" mask="url(#mask-2)" points="154.25561 20.9243415 158.761646 20.9243415 158.761646 19.6467805 154.25561 19.6467805"></polygon>
                <path d="M163.865305,18.7972683 L165.749817,18.7972683 L165.749817,17.603122 L163.865305,17.603122 L163.865305,18.7972683 Z M163.865305,16.3798902 L165.749817,16.3798902 L165.749817,15.232939 L163.865305,15.232939 L163.865305,16.3798902 Z M160.733963,18.7972683 L162.595976,18.7972683 L162.595976,17.603122 L160.733963,17.603122 L160.733963,18.7972683 Z M160.733963,16.3798902 L162.595976,16.3798902 L162.595976,15.232939 L160.733963,15.232939 L160.733963,16.3798902 Z M155.630854,25.1795854 L157.350183,25.1795854 L157.350183,23.2489756 L155.630854,23.2489756 L155.630854,25.1795854 Z M164.475549,22.1206829 L167.567927,22.1206829 L167.567927,20.865622 L163.865305,20.865622 L163.865305,20.0287317 L167.025732,20.0287317 L167.025732,14.0091585 L159.510183,14.0091585 L159.510183,20.0287317 L162.595427,20.0287317 L162.595427,20.865622 L158.922439,20.865622 L158.922439,22.1206829 L161.981341,22.1206829 C161.318963,23.3439146 160.19122,24.6181829 158.624451,25.9100122 L158.595915,25.9352561 L158.595915,22.0240976 L154.361524,22.0240976 L154.361524,27.5925732 L155.630854,27.5925732 L155.630854,26.4401341 L157.350183,26.4401341 L157.350183,27.2386098 L158.595915,27.2386098 L158.595915,26.2464146 L159.248963,26.985622 L159.424024,26.8495244 C160.747683,25.8123293 161.812866,24.6708659 162.595427,23.4509268 L162.595427,27.575561 L163.865305,27.575561 L163.865305,23.5453171 C164.541951,24.6686707 165.566524,25.7766585 166.922561,26.8495244 L167.113537,26.9976951 L167.869756,25.987939 L167.688659,25.8452561 C166.171829,24.6494634 165.092927,23.3982439 164.475549,22.1206829 Z" id="Fill-23" fill="#231916" mask="url(#mask-2)"></path>
                <polygon id="Fill-24" fill="#231916" mask="url(#mask-2)" points="154.25561 18.6194634 158.761646 18.6194634 158.761646 17.3523293 154.25561 17.3523293"></polygon>
                <path d="M176.352805,17.540561 L180.856646,17.540561 L180.856646,15.3520244 L176.352805,15.3520244 L176.352805,17.540561 Z M175.059878,18.7923293 L182.147927,18.7923293 L182.147927,14.1150732 L175.059878,14.1150732 L175.059878,18.7923293 Z" id="Fill-25" fill="#231916" mask="url(#mask-2)"></path>
                <path d="M179.234177,24.1305366 L182.546616,24.1305366 L182.546616,22.8842561 L179.234177,22.8842561 L179.234177,20.9975488 C180.535335,20.8131585 181.691616,20.6040732 182.673933,20.3746829 L183.024604,20.294561 L182.196494,19.1882195 L182.04503,19.2238902 C180.016738,19.7090122 177.564238,19.9812073 174.757774,20.0295 L174.394482,20.0382805 L174.982226,21.2966341 L175.135884,21.2900488 C175.501372,21.2829146 176.421128,21.2324268 177.942896,21.1336463 L177.942896,22.8842561 L174.52564,22.8842561 L174.52564,24.1305366 L177.942896,24.1305366 L177.942896,26.0139512 L173.983994,26.0139512 L173.983994,27.2388293 L183.133262,27.2388293 L183.133262,26.0139512 L179.234177,26.0139512 L179.234177,24.1305366 Z" id="Fill-26" fill="#231916" mask="url(#mask-2)"></path>
                <path d="M175.017018,21.580628 L174.93964,21.43575 C174.619152,20.8293476 174.011652,20.0297744 173.084762,18.9942256 L173.084762,18.6896524 L174.914396,18.6896524 L174.914396,17.4411768 L173.084762,17.4411768 L173.084762,15.3942256 C173.532567,15.2586768 174.092323,15.0786768 174.754152,14.8514817 L175.045006,14.7521524 L174.29153,13.6277012 L174.113726,13.7045305 C172.962933,14.1891037 171.485067,14.5419695 169.721835,14.7477622 L169.376652,14.788372 L170.036835,16.01325 L171.808848,15.6790427 L171.808848,17.4411768 L169.26525,17.4411768 L169.26525,18.6896524 L171.656835,18.6896524 C170.982384,20.4155671 170.167994,21.948311 169.233421,23.2461768 L169.125311,23.3943476 L169.982506,24.3953232 L170.157567,24.1538598 C170.683848,23.428372 171.238665,22.4647134 171.808848,21.2793476 L171.808848,27.6062378 L173.084762,27.6062378 L173.084762,20.9012378 C173.414579,21.3353232 173.709823,21.7962988 173.966652,22.273189 L174.12525,22.5711768 L175.017018,21.580628 Z" id="Fill-27" fill="#231916" mask="url(#mask-2)"></path>
                <path d="M194.397476,17.3629207 L196.361012,17.3629207 C196.412049,19.5075549 195.997171,21.3767012 195.126256,22.9330427 C194.795341,22.18725 194.509976,21.147311 194.277293,19.8401159 L194.228451,19.5668232 L193.079854,19.977311 C193.539183,19.2260305 193.978756,18.3512744 194.397476,17.3629207 Z M191.428573,20.1002378 L191.428573,19.8494451 L188.836134,19.8494451 C189.163207,19.5481646 189.508939,19.2095671 189.870037,18.8380427 L192.288512,18.8380427 C192.04211,19.2545671 191.77211,19.654628 191.480707,20.0316402 L191.428573,20.1002378 Z M188.95961,17.614811 L188.95961,16.3251768 L190.472598,16.3251768 C190.126317,16.7828598 189.763024,17.2158476 189.38272,17.614811 L188.95961,17.614811 Z M195.841317,24.1831646 C196.97839,22.5192622 197.576561,20.2281037 197.620463,17.3629207 L198.578085,17.3629207 L198.578085,16.102372 L194.805768,16.102372 C194.982476,15.494872 195.146012,14.812189 195.293085,14.0724329 L195.335341,13.8545671 L194.079183,13.5302378 L194.038573,13.7859695 C193.749366,15.607372 193.199488,17.2356037 192.399915,18.6459695 L192.399915,17.614811 L191.008207,17.614811 C191.676073,16.8064573 192.295646,15.9201768 192.855402,14.9768232 L192.98272,14.7617012 L191.851134,14.172311 L191.739732,14.3693232 C191.435707,14.9137134 191.11028,15.4345061 190.765646,15.922372 L190.765646,15.1315793 L188.95961,15.1315793 L188.95961,13.6317622 L187.705646,13.6317622 L187.705646,15.1315793 L185.342049,15.1315793 L185.342049,16.3251768 L187.705646,16.3251768 L187.705646,17.614811 L184.883268,17.614811 L184.883268,18.8380427 L188.12711,18.8380427 C187.261683,19.6074329 186.113634,20.4059085 184.706561,21.2202988 L184.470585,21.3574939 L185.297049,22.3963354 L185.474305,22.2893232 C186.040646,21.9441402 186.65089,21.5292622 187.288573,21.057311 L189.44089,21.057311 C189.05839,21.4238963 188.669305,21.7701768 188.28022,22.0950549 L188.194061,22.1658476 L188.194061,23.2913963 C187.247415,23.4626159 186.144366,23.6310915 184.914549,23.7962744 L184.650585,23.8313963 L184.956256,25.0266402 L185.1615,25.0019451 C185.968207,24.9053598 186.987293,24.7604817 188.194061,24.5689573 L188.194061,26.0918232 C188.194061,26.1724939 188.180341,26.2290183 188.160585,26.242189 C188.149061,26.2482256 188.034915,26.3009085 187.497659,26.3009085 C187.114061,26.3009085 186.800707,26.287189 186.540585,26.2624939 L186.190463,26.2301159 L186.58778,27.5301768 L186.746378,27.5466402 C187.031195,27.5713354 187.308329,27.5850549 187.572293,27.5850549 C188.360341,27.5850549 188.839427,27.4659695 189.08089,27.209689 C189.309732,26.9643841 189.426073,26.6395061 189.426073,26.2504207 L189.426073,24.3340793 C190.32772,24.1754817 191.187659,24.0031646 191.984488,23.8154817 L192.159549,23.774872 L192.20839,22.4764573 L191.903817,22.5505427 C191.080646,22.7563354 190.248146,22.9308476 189.426073,23.0735305 L189.426073,22.7113354 C190.090646,22.1559695 190.7415,21.562189 191.359427,20.9437134 L191.428573,20.8751159 L191.428573,20.2774939 L192.317598,21.1006646 L192.473451,20.887189 C192.656195,20.6385915 192.836195,20.3702378 193.014,20.0854207 L193.038695,20.2088963 C193.376195,21.8420671 193.796561,23.1399329 194.294305,24.0739573 C193.485951,24.964628 192.381805,25.7790183 191.008207,26.5001159 L190.764,26.6279817 L191.567963,27.712372 L191.746317,27.6179817 C192.831805,27.0510915 193.929366,26.232311 195.009366,25.1874329 C195.707415,26.0374939 196.655159,26.8551768 197.830646,27.622372 L198.025463,27.7502378 L198.783329,26.6181037 L198.568756,26.4907866 C197.408634,25.8037134 196.491622,25.0288354 195.841317,24.1831646 Z" id="Fill-28" fill="#231916" mask="url(#mask-2)"></path>
                <path d="M204.886427,17.1592683 L204.886427,16.2054878 L205.288134,16.937561 L205.334232,16.9139634 L205.003866,17.2618902 L205.21789,17.4226829 C205.335329,17.509939 205.527951,17.6405488 205.79411,17.8139634 C205.931854,17.9028659 206.057524,17.9934146 206.170573,18.0812195 C205.552646,18.4445122 205.115817,18.6793902 204.872159,18.7875 L204.872159,17.877622 L202.429537,17.877622 L202.420207,17.1592683 L204.886427,17.1592683 Z M211.559049,15.3373171 L211.541488,15.9821341 L209.036305,15.9821341 L209.036305,16.0123171 C208.548988,15.574939 208.258134,15.3329268 208.074293,15.1902439 C208.441976,14.845061 208.715817,14.5580488 208.901305,14.3187805 L208.901305,15.3373171 L211.559049,15.3373171 Z M205.110878,19.8345732 L202.474537,19.8345732 L202.466305,19.0734146 L204.635634,19.0734146 L205.110878,19.8345732 Z M209.036305,17.1268902 L208.643927,16.8568902 L209.036305,16.5128049 L209.036305,17.1268902 Z M211.502524,17.1592683 L211.493744,17.877622 L209.036305,17.877622 L209.036305,18.9203049 C208.626915,18.5762195 208.313012,18.3188415 208.08911,18.1454268 C208.70539,17.604878 208.860146,17.4292683 208.924354,17.3370732 L209.046183,17.1592683 L211.502524,17.1592683 Z M207.138622,18.8654268 C207.880573,19.4625 208.1835,19.7231707 208.303134,19.8345732 L205.481305,19.8345732 C205.923622,19.6364634 206.479537,19.3115854 207.138622,18.8654268 Z M207.954659,16.6757927 C207.918988,16.7262805 207.772463,16.8985976 207.146305,17.3963415 C206.934476,17.2404878 206.557463,16.9770732 206.002646,16.5934756 C206.417524,16.38 206.800024,16.1593902 207.146305,15.9321951 C207.451427,16.1473171 207.736793,16.3723171 208.000756,16.605 L207.954659,16.6757927 Z M209.215756,19.0734146 L211.472341,19.0734146 L211.463012,19.8345732 L208.70539,19.8345732 L209.35789,19.1925 L209.215756,19.0734146 Z M201.665085,21.0287195 L212.333927,21.0287195 L212.333927,22.9697561 L213.609841,22.9697561 L213.609841,19.8345732 L212.690634,19.8345732 L212.825634,14.1601829 L209.017646,14.1601829 L209.157585,13.9565854 L208.163195,13.4346951 L208.041366,13.5867073 C207.828439,13.855061 207.528805,14.1464634 207.147951,14.4614634 C206.935024,14.297378 206.588195,14.0389024 206.114049,13.6931707 L205.961488,13.5812195 L205.073012,14.3659756 L205.336976,14.5344512 C205.625085,14.7166463 205.907159,14.9235366 206.181,15.1485366 C205.737037,15.4207317 205.326,15.6385976 204.95722,15.7971951 L204.717951,15.8998171 L204.7635,15.9821341 L202.403195,15.9821341 L202.403195,15.3148171 C203.280695,15.1485366 204.063256,14.9092683 204.73222,14.6101829 L204.968744,14.5031707 L204.383744,13.4829878 L204.192768,13.5587195 C203.304293,13.9214634 202.354902,14.1645732 201.370939,14.2836585 L201.160756,14.3072561 L201.221122,19.8345732 L200.418256,19.8345732 L200.418256,22.9697561 L201.665085,22.9697561 L201.665085,21.0287195 Z" id="Fill-29" fill="#231916" mask="url(#mask-2)"></path>
                <path d="M210.891951,22.6803293 L211.020915,22.616122 L211.020915,21.5141707 L202.698659,21.5141707 L202.698659,22.7083171 L208.005366,22.7083171 C207.563598,22.886122 207.080122,23.0683171 206.559878,23.2494146 L206.402378,23.3064878 L206.402378,23.8552683 L200.079329,23.8552683 L200.079329,25.0488659 L206.402378,25.0488659 L206.402378,26.0920976 C206.402378,26.1425854 206.396341,26.2325854 206.358476,26.2506951 C206.332134,26.2622195 206.15872,26.3149024 205.245549,26.3149024 C204.953598,26.3149024 204.661098,26.3094146 204.369146,26.2935 L204.02122,26.2753902 L204.452561,27.5326463 L206.449573,27.5167317 C206.76622,27.5167317 207.044451,27.4168537 207.276037,27.2192927 C207.518598,27.0135 207.641524,26.7242927 207.641524,26.3544146 L207.641524,25.0488659 L213.933293,25.0488659 L213.933293,23.8552683 L208.306646,23.8552683 C209.214329,23.4842927 210.080305,23.0930122 210.891951,22.6803293" id="Fill-30" fill="#231916" mask="url(#mask-2)"></path>
                <path d="M84.2753415,35.0171341 L84.3126585,34.5605488 L86.9561341,34.5605488 L86.9193659,35.0171341 L84.2753415,35.0171341 Z M84.433939,33.5014024 L84.4696098,33.1007927 L87.1251585,33.1007927 L87.0872927,33.5014024 L84.433939,33.5014024 Z M80.5194878,33.5014024 L80.5644878,33.1007927 L83.1909512,33.1007927 L83.1569268,33.5014024 L80.5194878,33.5014024 Z M83.0427805,34.5605488 L83.0054634,35.0171341 L80.3806463,35.0171341 L80.4256463,34.5605488 L83.0427805,34.5605488 Z M88.4877805,32.012561 L79.443878,32.012561 L79.2786951,33.5014024 L76.814122,33.5014024 L76.814122,34.5605488 L79.1552195,34.5605488 L79.0125366,36.1190854 L88.0899146,36.1190854 L88.2249146,34.5605488 L90.6993659,34.5605488 L90.6993659,33.5014024 L88.3374146,33.5014024 L88.4877805,32.012561 Z" id="Fill-31" fill="#231916" mask="url(#mask-2)"></path>
                <path d="M78.6482012,31.6644695 L88.8730793,31.6644695 L88.8730793,33.1148963 L90.1275915,33.1148963 L90.1275915,30.5284939 L84.3483841,30.5284939 C84.143689,30.1553232 83.9839939,29.8853232 83.8605183,29.7064207 L83.7589939,29.5560549 L82.5434451,29.9879451 L82.7432012,30.2464207 C82.8074085,30.3309329 82.8721646,30.4264207 82.9352744,30.5284939 L77.3860061,30.5284939 L77.3860061,33.055628 L78.6482012,33.055628 L78.6482012,31.6644695 Z" id="Fill-32" fill="#231916" mask="url(#mask-2)"></path>
                <path d="M80.0028659,37.7762927 L87.4876829,37.7762927 L87.4876829,37.5414146 L80.0028659,37.5414146 L80.0028659,37.7762927 Z M80.0028659,39.1191585 L87.4876829,39.1191585 L87.4876829,38.8661707 L80.0028659,38.8661707 L80.0028659,39.1191585 Z M80.0028659,40.455439 L87.4876829,40.455439 L87.4876829,40.2046463 L80.0028659,40.2046463 L80.0028659,40.455439 Z M86.134939,41.5458659 L88.7421951,41.5458659 L88.7421951,36.4372683 L78.795,36.4372683 L78.795,41.5458659 L80.8962805,41.5458659 C79.6966463,42.0238537 78.4371951,42.3366585 77.1382317,42.4760488 L76.757378,42.5144634 L77.5037195,43.6756829 L77.6502439,43.658122 C79.3108537,43.4600122 81.0148171,42.9024512 82.7160366,41.998061 L82.9503659,41.8745854 L82.7193293,41.5458659 L84.9528659,41.5458659 L84.4743293,42.4557439 L84.8107317,42.4996463 C86.8620732,42.7614146 88.5660366,43.1428171 89.8759756,43.6306829 L90.0823171,43.7086098 L90.580061,42.6028171 L90.3369512,42.5166585 C89.2212805,42.125378 87.8103659,41.7988537 86.134939,41.5458659 Z" id="Fill-33" fill="#231916" mask="url(#mask-2)"></path>
                <path d="M97.8924512,37.86075 L97.8924512,35.8851402 L98.7962927,35.8851402 C98.6206829,36.5573963 98.3424512,37.1791646 97.9725732,37.7405671 L97.8924512,37.86075 Z M104.715439,35.0345305 C105.416232,34.3002622 105.960073,33.3942256 106.338183,32.3394695 L107.496659,32.3394695 L107.496659,31.1019695 L103.016415,31.1019695 C103.21178,30.7930061 103.37861,30.4972134 103.51361,30.2217256 L103.62611,29.9879451 L102.422634,29.5280671 L102.3255,29.7146524 C101.556659,31.1941646 100.602878,32.3877622 99.4915976,33.2669085 L99.2742805,33.4370305 L100.21928,34.3095915 L100.37678,34.1866646 C100.91678,33.7597134 101.513305,33.1390427 102.151537,32.3394695 L104.989829,32.3394695 C104.660561,33.1275183 104.228122,33.7761768 103.70239,34.2689817 C103.268854,33.8595915 102.896232,33.388189 102.5955,32.8679451 L102.478061,32.6643476 L101.392024,33.280628 L101.509463,33.4842256 C101.777268,33.958372 102.1905,34.4846524 102.736537,35.0515427 C101.88922,35.6354451 101.025988,36.0602012 100.162756,36.3203232 L99.963,36.3795915 C100.090317,35.9016037 100.168244,35.40825 100.196232,34.8951402 L100.207756,34.6454451 L98.3676951,34.6454451 L98.5476951,34.4884939 L97.9989146,33.8755061 C98.7573293,32.9634329 99.387878,32.0491646 99.8740976,31.1552012 L99.9026341,31.1036159 L99.9026341,30.0395305 L94.4027561,30.0395305 L94.4027561,31.2786768 L98.3720854,31.2786768 C98.0236098,31.8422744 97.5851341,32.4327622 97.065439,33.0397134 C96.5786707,32.6429451 96.1659878,32.32575 95.8323293,32.0985549 L95.6786707,31.9948354 L94.7567195,32.8284329 L95.0014756,32.9991037 C95.7522073,33.5155061 96.412939,34.0697744 96.9694024,34.6454451 L93.860561,34.6454451 L93.860561,35.8851402 L96.1533659,35.8851402 C95.4591585,37.7493476 94.6864756,39.2442256 93.8490366,40.3302622 L93.7332439,40.4811768 L94.572878,41.4640427 L94.7506829,41.2346524 C95.4086707,40.3774573 96.0518415,39.2403841 96.6692195,37.8470305 L96.6692195,42.2273963 C96.6692195,42.2273963 96.6626341,42.2487988 96.620378,42.2844695 C96.5633049,42.3344085 96.5347683,42.3387988 96.5347683,42.3387988 C96.1720244,42.3387988 95.6649512,42.3130061 95.0245244,42.2625183 L94.5920854,42.2295915 L95.3087927,43.5444695 L95.4262317,43.5598354 C95.6495854,43.5916646 95.8976341,43.6070305 96.1659878,43.6070305 C96.930439,43.6070305 97.385378,43.4742256 97.6010488,43.1844695 C97.7942195,42.9259939 97.8924512,42.6680671 97.8924512,42.4150793 L97.8924512,37.9326402 L98.7919024,38.7865427 L98.9494024,38.5615427 C99.3862317,37.9370305 99.710561,37.2592866 99.9201951,36.5370915 L100.696171,37.4842866 L100.853671,37.4277622 C101.405195,37.2285549 101.955622,36.9755671 102.498915,36.6709939 L102.493976,36.8641646 C102.480805,37.3750793 102.448976,37.81575 102.395195,38.1779451 L99.7242805,38.1779451 L99.7242805,39.4148963 L102.094463,39.4148963 C101.883732,40.0591646 101.491902,40.663372 100.923915,41.2209329 C100.266476,41.8673963 99.522878,42.3195915 98.7161707,42.568189 L98.3572683,42.6773963 L99.3115976,43.7030671 L99.4597683,43.6421524 C101.579159,42.7942866 102.89678,41.3718476 103.382451,39.4148963 L105.513915,39.4148963 C105.455195,40.0975793 105.389341,40.6990427 105.319098,41.2017256 C105.210439,41.9722134 105.147878,42.118189 105.136354,42.140689 C105.099037,42.208189 105.049098,42.2542866 104.983793,42.2872134 C104.961841,42.298189 104.813122,42.3464817 104.083793,42.3464817 C103.715012,42.3464817 103.374768,42.3322134 103.071841,42.3097134 L102.676171,42.2778841 L103.267207,43.6015427 L103.414829,43.6070305 C103.658488,43.6152622 103.879646,43.6185549 104.079951,43.6185549 C105.096841,43.6185549 105.388793,43.520872 105.529829,43.4330671 C105.760866,43.2914817 105.955134,43.1202622 106.10989,42.9243476 C106.224585,42.7772744 106.379341,42.4622744 106.568122,41.2851402 C106.70422,40.438372 106.78928,39.4736159 106.819463,38.418311 L106.827146,38.1779451 L103.644768,38.1779451 C103.709524,37.6571524 103.740805,37.2285549 103.740805,36.8992866 L103.740805,36.6720915 L102.574098,36.6270915 C102.96428,36.4042866 103.351171,36.1545915 103.733122,35.8802012 C104.739037,36.5886768 105.832207,37.1220915 106.983549,37.4650793 L107.153122,37.5144695 L107.865439,36.4042866 L107.557024,36.318128 C106.531902,36.0366037 105.576476,35.605811 104.715439,35.0345305 Z" id="Fill-34" fill="#231916" mask="url(#mask-2)"></path>
                <polygon id="Fill-35" fill="#231916" mask="url(#mask-2)" points="121.186152 33.8092134 124.173713 33.8092134 124.173713 32.6293354 121.186152 32.6293354 121.186152 32.0459817 124.528226 32.0459817 124.528226 30.8222012 121.186152 30.8222012 121.186152 29.6324451 119.924506 29.6324451 119.924506 30.8222012 116.612616 30.8222012 116.612616 32.0459817 119.924506 32.0459817 119.924506 32.6293354 116.83103 32.6293354 116.83103 33.8092134 119.924506 33.8092134 119.924506 34.4117744 116.275116 34.4117744 116.275116 35.6454329 124.821823 35.6454329 124.821823 34.4117744 121.186152 34.4117744"></polygon>
                <path d="M122.85236,39.2187622 L122.85236,39.9157134 L118.142726,39.9157134 C118.165774,39.6753476 118.180591,39.4437622 118.187726,39.2187622 L122.85236,39.2187622 Z M118.189372,37.974128 L122.85236,37.974128 L122.85236,37.3227256 L118.189372,37.3227256 L118.189372,37.974128 Z M116.92114,38.6754695 C116.92114,40.4408963 116.478823,41.7908963 115.60297,42.68925 L115.415835,42.8813232 L116.499677,43.6935183 L116.643457,43.5255915 C117.181262,42.9049207 117.60986,42.1135793 117.916628,41.1757134 L122.85236,41.1757134 L122.85236,42.1761402 C122.85236,42.2233354 122.840835,42.2447378 122.804616,42.2683354 C122.800774,42.2705305 122.703091,42.3314451 122.252543,42.3314451 C121.73614,42.3314451 121.287787,42.319372 120.920652,42.294128 L120.572726,42.2705305 L120.986506,43.5349207 L121.146201,43.5469939 C121.442543,43.5662012 121.725165,43.5755305 121.996262,43.5755305 C122.810652,43.5755305 123.348457,43.4805915 123.63986,43.2797378 C123.949372,43.066811 124.114006,42.7364451 124.114006,42.3248598 L124.114006,36.0983963 L116.92114,36.0983963 L116.92114,38.6754695 Z" id="Fill-36" fill="#231916" mask="url(#mask-2)"></path>
                <path d="M111.849915,36.5027378 C111.66278,38.1545671 111.340646,39.5320061 110.895037,40.6004817 L110.805585,40.8177988 L112.044183,41.3484695 L112.125951,41.1075549 C112.575951,39.7806037 112.896988,38.324689 113.076988,36.7760305 L113.100585,36.5768232 L111.881195,36.2283476 L111.849915,36.5027378 Z" id="Fill-37" fill="#231916" mask="url(#mask-2)"></path>
                <path d="M115.6185,40.2874024 L116.798378,39.6991098 L116.752829,39.5147195 C116.499841,38.5082561 116.144232,37.4908171 115.693134,36.4920366 L115.589963,36.2637439 L114.513256,36.8394146 L114.599963,37.0364268 C115.03789,38.0505732 115.360024,39.0449634 115.557037,39.9883171 L115.6185,40.2874024 Z" id="Fill-38" fill="#231916" mask="url(#mask-2)"></path>
                <path d="M116.187091,34.7213415 L114.435384,34.7213415 L114.435384,33.9497561 L115.582884,34.4628659 L115.669591,34.2241463 C116.099287,33.0376829 116.386848,32.0559146 116.523494,31.3040854 L116.55697,31.1136585 L115.394652,30.6417073 L115.337579,30.9204878 C115.116421,32.0180488 114.826116,32.9559146 114.474348,33.705 L114.435384,33.7911585 L114.435384,29.6484146 L113.157274,29.6484146 L113.157274,33.7642683 L113.117213,33.6056707 C112.833494,32.4779268 112.532213,31.5746341 112.221604,30.9122561 L112.120079,30.6954878 L111.031299,31.2365854 L111.11197,31.4396341 C111.505445,32.4373171 111.769409,33.3120732 111.897274,34.0397561 L111.949409,34.339939 L113.157274,33.8015854 L113.157274,34.7213415 L110.989591,34.7213415 L110.989591,35.9840854 L113.157274,35.9840854 L113.157274,43.5929268 L114.435384,43.5929268 L114.435384,35.9840854 L116.187091,35.9840854 L116.187091,34.7213415 Z" id="Fill-39" fill="#231916" mask="url(#mask-2)"></path>
                <path d="M131.704079,32.7148354 L131.868713,32.9261159 L132.757189,32.0376402 L132.637555,31.87575 C132.105238,31.1469695 131.353409,30.4017256 130.40347,29.6537378 L130.228409,29.5143476 L129.414018,30.4384939 L129.606091,30.5948963 C130.423226,31.2572744 131.130604,31.9690427 131.704079,32.7148354" id="Fill-40" fill="#231916" mask="url(#mask-2)"></path>
                <path d="M135.507073,39.780439 L137.842134,39.780439 L137.842134,38.2026951 L135.507073,38.2026951 L135.507073,39.780439 Z M135.507073,36.9723293 L137.842134,36.9723293 L137.842134,35.6151951 L135.507073,35.6151951 L135.507073,36.9723293 Z M135.507073,34.3985488 L137.842134,34.3985488 L137.842134,33.1434878 L135.507073,33.1434878 L135.507073,34.3985488 Z M140.652988,42.1352561 C139.153171,42.1352561 137.845427,42.1094634 136.764878,42.0567805 C135.685976,42.0046463 134.919878,41.9272683 134.490183,41.8251951 C134.060488,41.7247683 133.616524,41.5573902 133.168171,41.3290976 C132.778537,41.1309878 132.427866,40.8845854 132.123293,40.590439 C132.57878,39.7491585 132.909695,38.8798902 133.107256,38.0056829 L133.113293,36.9558659 L131.170061,36.9558659 C131.721585,36.1908659 132.213293,35.4867805 132.639695,34.8540366 L133.432683,35.8187927 L133.616524,35.6355 C133.781707,35.4686707 133.984207,35.2261098 134.228963,34.9012317 L134.228963,40.9883049 L142.7175,40.9883049 L142.7175,39.780439 L139.112012,39.780439 L139.112012,38.2026951 L142.242805,38.2026951 L142.242805,36.9723293 L139.112012,36.9723293 L139.112012,35.6151951 L142.242805,35.6151951 L142.242805,34.3985488 L139.112012,34.3985488 L139.112012,33.1434878 L142.581402,33.1434878 L142.581402,31.923 L139.343049,31.923 C139.17128,31.387939 138.924329,30.7074512 138.606037,29.8969024 L138.525366,29.6889146 L137.288415,30.0867805 L137.397622,30.3265976 C137.650061,30.8874512 137.851463,31.423061 137.99689,31.923 L135.939512,31.923 C136.200183,31.3138537 136.442744,30.6849512 136.659512,30.0439756 L136.742378,29.8047073 L135.510915,29.4776341 L135.444512,29.6933049 C134.867195,31.5542195 133.964451,33.228 132.764817,34.6669024 C132.892134,34.4770244 133.013415,34.290439 133.127012,34.1148293 L133.165976,34.055561 L133.165976,32.9969634 L129.096768,32.9969634 L129.096768,34.2218415 L131.537744,34.2218415 C130.779329,35.3731829 130.091707,36.320378 129.489695,37.043122 L129.435366,37.1095244 L129.435366,38.187878 L131.758902,38.187878 C131.289146,39.8512317 130.353476,41.368061 128.972744,42.6966585 L128.783963,42.8788537 L129.74872,43.6872073 L129.90128,43.5423293 C130.54939,42.9238537 131.08939,42.2894634 131.506463,41.6517805 C132.025061,42.133061 132.663293,42.5144634 133.409085,42.7932439 C134.250366,43.1022073 135.51311,43.2822073 137.16439,43.3250122 C138.807439,43.3678171 140.641463,43.3815366 142.64122,43.3667195 L142.828354,43.3645244 L143.117561,42.0957439 L142.813537,42.1061707 C142.142378,42.125378 141.413598,42.1352561 140.652988,42.1352561 Z" id="Fill-41" fill="#231916" mask="url(#mask-2)"></path>
                <path d="M154.891098,35.3687927 L157.317256,35.3687927 L157.317256,33.6648293 L154.891098,33.6648293 L154.891098,35.3687927 Z M154.891098,38.268 L157.317256,38.268 L157.317256,36.6452561 L154.891098,36.6452561 L154.891098,38.268 Z M154.891098,41.3076951 L157.317256,41.3076951 L157.317256,39.5576341 L154.891098,39.5576341 L154.891098,41.3076951 Z M158.587134,39.5576341 L161.161463,39.5576341 L161.161463,38.268 L158.587134,38.268 L158.587134,36.6452561 L161.161463,36.6452561 L161.161463,35.3687927 L158.587134,35.3687927 L158.587134,33.6642805 L161.349146,33.6642805 L161.349146,32.3642195 L158.741341,32.3642195 C158.524573,31.4642195 158.249634,30.5971463 157.923659,29.7811098 L157.826524,29.5369024 L156.643902,30.1647073 L156.715244,30.3589756 C157.020915,31.1799512 157.23878,31.8522073 157.364451,32.3642195 L155.29939,32.3642195 C155.65939,31.5657439 155.952439,30.8221463 156.174146,30.1465976 L156.244939,29.9336707 L154.982195,29.4359268 L154.905915,29.6773902 C154.215,31.8571463 153.315549,33.6582439 152.235,35.0290976 L152.102195,35.198122 L152.570305,35.6431829 L152.310732,35.780378 C152.116463,35.8819024 151.7625,36.0437927 151.255427,36.2638537 L151.255427,33.6346463 L153.070244,33.6346463 L153.070244,32.3642195 L151.255427,32.3642195 L151.255427,29.663122 L149.979512,29.663122 L149.979512,32.3642195 L147.834329,32.3642195 L147.834329,33.6346463 L149.979512,33.6346463 L149.979512,36.8186707 C149.209573,37.1095244 148.51372,37.3515366 147.909512,37.5392195 L147.675732,37.6122073 L148.112561,38.8584878 L148.331524,38.7865976 C148.829268,38.6241585 149.382439,38.4265976 149.979512,38.1972073 L149.979512,42.0924512 C149.979512,42.2137317 149.936707,42.2367805 149.91311,42.2488537 C149.889512,42.2625732 149.740793,42.3251341 149.100366,42.3251341 C148.896768,42.3251341 148.643232,42.3196463 148.341402,42.3097683 L147.99622,42.2982439 L148.460488,43.6070854 L148.626768,43.6070854 C149.378598,43.6070854 149.871951,43.5917195 150.13811,43.5598902 C150.449817,43.5253171 150.71872,43.3837317 150.932744,43.1450122 C151.147866,42.9046463 151.255427,42.5737317 151.255427,42.1610488 L151.255427,37.6742195 C151.726829,37.4810488 152.218537,37.245622 152.721768,36.9701341 L152.880366,36.8845244 L152.581829,35.6547073 L153.097683,36.1458659 L153.25628,35.9323902 C153.367683,35.7836707 153.477439,35.6311098 153.584451,35.4725122 L153.584451,43.5620854 L154.891098,43.5620854 L154.891098,42.578122 L161.719024,42.578122 L161.719024,41.3076951 L158.587134,41.3076951 L158.587134,39.5576341 Z" id="Fill-42" fill="#231916" mask="url(#mask-2)"></path>
                <path d="M167.916951,35.8050732 L169.4925,35.8050732 L169.4925,35.2069024 L167.916951,35.2069024 L167.916951,35.8050732 Z M167.916951,37.718122 L169.4925,37.718122 L169.4925,37.0151341 L167.916951,37.0151341 L167.916951,37.718122 Z M170.724512,37.718122 L172.300061,37.718122 L172.300061,37.0151341 L170.724512,37.0151341 L170.724512,37.718122 Z M170.724512,35.8050732 L172.300061,35.8050732 L172.300061,35.2069024 L170.724512,35.2069024 L170.724512,35.8050732 Z M176.888415,29.9419024 L176.891707,29.7009878 L175.654756,29.7009878 L175.600427,32.7214756 L173.918415,32.7362927 L173.918415,33.975439 L175.562561,33.9595244 C175.474756,37.3894024 174.794268,40.2990366 173.539207,42.6209268 L173.539207,41.4322683 L173.265915,41.4761707 C172.390061,41.6188537 171.536707,41.7302561 170.724512,41.8037927 L170.724512,40.7473902 L173.539207,40.7473902 L173.539207,39.545561 L170.724512,39.545561 L170.724512,38.9248902 L173.539207,38.9248902 L173.539207,33.9677561 L170.724512,33.9677561 L170.724512,33.3097683 L173.787256,33.3097683 L173.787256,32.103 L170.724512,32.103 L170.724512,31.342939 C171.945549,31.1958659 172.935,31.0114756 173.66378,30.7952561 L173.963415,30.7052561 L173.290061,29.6515976 L173.125976,29.6933049 C171.109207,30.1981829 168.92122,30.4401951 166.622927,30.4094634 L166.283232,30.4050732 L166.709634,31.5871463 L166.876463,31.5871463 C167.819817,31.5871463 168.698415,31.5586098 169.4925,31.4993415 L169.4925,32.103 L166.120793,32.103 L166.120793,33.3097683 L169.4925,33.3097683 L169.4925,33.9677561 L166.662988,33.9677561 L166.662988,38.9248902 L169.4925,38.9248902 L169.4925,39.545561 L166.640488,39.545561 L166.640488,40.7473902 L169.4925,40.7473902 L169.4925,41.9645854 C168.279695,42.1039756 167.136037,42.215378 166.090061,42.2938537 L165.813476,42.313061 L166.114756,43.5659268 L166.32,43.5467195 C168.209451,43.3464146 170.568659,43.0632439 173.334512,42.7032439 L173.50628,42.6807439 C173.444817,42.7932439 173.381707,42.9024512 173.318598,43.0122073 L173.190732,43.2295244 L174.310793,43.7794024 L174.419451,43.5856829 C175.926402,40.910378 176.724878,37.673122 176.794573,33.9584268 L177.945366,33.9584268 C177.941524,35.5389146 177.906402,37.1342195 177.839451,38.6998902 L177.697866,41.6638537 C177.680305,41.9157439 177.617744,42.0957439 177.507988,42.1994634 C177.396585,42.3037317 177.276951,42.3547683 177.141951,42.3547683 C176.723232,42.3547683 176.229878,42.3443415 175.660793,42.3251341 L175.322195,42.3108659 L175.740366,43.578 L175.894573,43.5917195 C176.059756,43.6070854 176.251829,43.6153171 176.465305,43.6153171 C177.265427,43.6153171 177.805427,43.5209268 178.113293,43.3272073 C178.429939,43.1296463 178.65,42.8415366 178.770732,42.4738537 C178.840976,42.2565366 178.946341,41.6775732 179.044573,39.1542805 C179.117012,37.3065366 179.154329,35.2195244 179.154329,32.9558049 L179.154329,32.7192805 L176.822012,32.7192805 C176.848354,31.9987317 176.870305,31.0866585 176.888415,29.9419024 Z" id="Fill-43" fill="#231916" mask="url(#mask-2)"></path>
                <path d="M184.992805,41.4289756 L187.819024,41.4289756 L187.819024,39.4012317 L184.992805,39.4012317 L184.992805,41.4289756 Z M183.723476,43.5928171 L184.992805,43.5928171 L184.992805,42.7202561 L187.819024,42.7202561 L187.819024,43.4715366 L189.079573,43.4715366 L189.079573,38.1620854 L183.723476,38.1620854 L183.723476,43.5928171 Z" id="Fill-44" fill="#231916" mask="url(#mask-2)"></path>
                <path d="M189.82822,31.4993963 L187.174317,31.4993963 C186.833524,30.7223232 186.49328,30.0961646 186.164012,29.6395793 L186.055902,29.4919573 L184.846939,29.9765305 L185.009927,30.2174451 C185.305171,30.660311 185.555415,31.0900061 185.755171,31.4993963 L182.975049,31.4993963 L182.975049,32.7780549 L189.82822,32.7780549 L189.82822,31.4993963 Z" id="Fill-45" fill="#231916" mask="url(#mask-2)"></path>
                <polygon id="Fill-46" fill="#231916" mask="url(#mask-2)" points="193.84436 29.6847988 192.538262 29.6847988 192.538262 34.0750427 189.466738 34.0750427 189.466738 35.366872 192.538262 35.366872 192.538262 43.6227256 193.84436 43.6227256 193.84436 35.366872 196.923018 35.366872 196.923018 34.0750427 193.84436 34.0750427"></polygon>
                <polygon id="Fill-47" fill="#231916" mask="url(#mask-2)" points="183.723476 37.147939 189.079573 37.147939 189.079573 35.9247073 183.723476 35.9247073"></polygon>
                <polygon id="Fill-48" fill="#231916" mask="url(#mask-2)" points="183.723476 34.9819024 189.079573 34.9819024 189.079573 33.735622 183.723476 33.735622"></polygon>
                <path d="M208.136524,33.4277561 L211.61689,33.4277561 L211.61689,33.0397683 L208.136524,33.0397683 L208.136524,33.4277561 Z M208.136524,31.9828171 L211.61689,31.9828171 L211.61689,31.6036098 L208.136524,31.6036098 L208.136524,31.9828171 Z M208.136524,36.3708659 L208.136524,35.968061 L213.366402,35.968061 L213.366402,34.8951951 L208.136524,34.8951951 L208.136524,34.4847073 L212.885122,34.4847073 L212.885122,33.0397683 L214.39811,33.0397683 L214.39811,31.9828171 L212.885122,31.9828171 L212.885122,30.5444634 L208.136524,30.5444634 L208.136524,29.7009878 L206.911098,29.7009878 L206.911098,30.5444634 L201.981951,30.5444634 L201.981951,31.6036098 L206.911098,31.6036098 L206.911098,31.9828171 L200.650061,31.9828171 L200.650061,33.0397683 L206.911098,33.0397683 L206.911098,33.4277561 L201.996768,33.4277561 L201.996768,34.4847073 L206.911098,34.4847073 L206.911098,34.8951951 L201.673537,34.8951951 L201.673537,35.968061 L206.911098,35.968061 L206.911098,36.3708659 L200.589695,36.3708659 L200.589695,37.4437317 L214.44311,37.4437317 L214.44311,36.3708659 L208.136524,36.3708659 Z" id="Fill-49" fill="#231916" mask="url(#mask-2)"></path>
                <path d="M208.136524,40.8105 L211.563659,40.8105 L211.563659,40.3561098 L208.136524,40.3561098 L208.136524,40.8105 Z M208.136524,39.3364756 L211.563659,39.3364756 L211.563659,38.8798902 L208.136524,38.8798902 L208.136524,39.3364756 Z M203.423598,40.8105 L206.895732,40.8105 L206.895732,40.3561098 L203.423598,40.3561098 L203.423598,40.8105 Z M203.423598,39.3364756 L206.895732,39.3364756 L206.895732,38.8798902 L203.423598,38.8798902 L203.423598,39.3364756 Z M202.176768,41.8696463 L212.808293,41.8696463 L212.808293,37.8212927 L202.176768,37.8212927 L202.176768,41.8696463 Z" id="Fill-50" fill="#231916" mask="url(#mask-2)"></path>
                <polygon id="Fill-51" fill="#231916" mask="url(#mask-2)" points="200.589695 43.443 214.44311 43.443 214.44311 42.3701341 200.589695 42.3701341"></polygon>
                <path d="M0,39.9990732 L3.59615854,37.0691341 C3.59615854,37.0691341 10.197439,43.4827317 28.6320732,40.514378 C28.6320732,40.514378 19.7796951,45.2679146 9.01591463,43.2560854 C9.01591463,43.2560854 3.38213415,42.1239512 0,39.9990732" id="Fill-52" fill="#D2D6DD" mask="url(#mask-2)"></path>
                <path d="M5.39401829,35.6347866 L8.66365244,32.6675305 C8.66365244,32.6675305 12.7630427,39.8357012 29.1342622,39.8603963 L29.2418232,39.8603963 L28.9581037,40.1556402 C28.9581037,40.1556402 14.4104817,44.1370427 5.39401829,35.6347866" id="Fill-53" fill="#D2D6DD" mask="url(#mask-2)"></path>
                <path d="M10.0088232,31.6365915 L13.5297988,28.8449451 C13.5297988,28.8449451 17.1638232,37.5096402 29.7259573,39.3568354 L29.4899817,39.6120183 C29.4899817,39.6120183 17.9683354,40.6898232 10.0088232,31.6365915" id="Fill-54" fill="#D2D6DD" mask="url(#mask-2)"></path>
                <path d="M14.7241098,27.9650305 L17.7928902,25.5509451 C17.7928902,25.5509451 21.0614268,35.2956402 30.3166098,38.7150915 L29.9390488,39.1310671 C29.9390488,39.1310671 21.1124634,39.0553354 14.7241098,27.9650305" id="Fill-55" fill="#D2D6DD" mask="url(#mask-2)"></path>
                <path d="M19.0309939,25.0134146 L22.1244695,22.7025 C22.1244695,22.7025 23.3877622,32.5668293 30.8572134,38.0365244 L30.4802012,38.4898171 C30.4802012,38.4898171 24.2553841,36.8489634 19.0309939,25.0134146" id="Fill-56" fill="#D2D6DD" mask="url(#mask-2)"></path>
                <path d="M23.6015671,22.256122 L26.3685183,20.1564878 C26.3685183,20.1564878 25.5662012,27.3147805 31.4886402,37.3870976 L31.0364451,37.9056951 C31.0364451,37.9056951 25.3373598,33.196061 23.6015671,22.256122" id="Fill-57" fill="#D2D6DD" mask="url(#mask-2)"></path>
                <path d="M28.0467439,19.4964146 L31.0644878,17.3462927 C31.0644878,17.3462927 30.4668659,29.4485488 32.1774146,36.4400122 L31.6022927,37.2214756 C31.6022927,37.2214756 29.0460732,32.9069634 28.0467439,19.4964146" id="Fill-58" fill="#D2D6DD" mask="url(#mask-2)"></path>
                <path d="M34.3907012,-1.42108547e-14 C34.3907012,-1.42108547e-14 46.2103354,23.1371341 28.6317988,40.5142683 C28.6317988,40.5142683 28.4852744,40.6662805 28.4260061,40.7014024 C28.3672866,40.7365244 46.9506402,30.9660366 39.7972866,4.7277439 L34.3907012,-1.42108547e-14 Z" id="Fill-59" fill="#E06466" mask="url(#mask-2)"></path>
                <path d="M41.9353354,6.48834146 C41.9353354,6.48834146 49.6314329,27.5198049 28.531372,40.6433415 C28.531372,40.6433415 49.0392988,35.3201707 46.663628,11.1162073 L41.9353354,6.48834146 Z" id="Fill-60" fill="#00A1BC" mask="url(#mask-2)"></path>
                <path d="M53.5036829,17.7552439 L49.5804512,13.6306098 C49.5804512,13.6306098 49.3795976,32.1843293 29.4616098,40.4105488 C29.4616098,40.4105488 49.4800244,36.5652439 53.5036829,17.7552439" id="Fill-61" fill="#00A287" mask="url(#mask-2)"></path>
                <path d="M55.8169573,19.7665244 L59.0361037,23.5657317 C59.0361037,23.5657317 47.9589695,40.3995732 31.2156768,39.9671341 C31.2156768,39.9671341 49.7309817,35.7607317 55.8169573,19.7665244" id="Fill-62" fill="#F3C161" mask="url(#mask-2)"></path>
                <path d="M60.8465854,25.5506707 L63.7139634,29.3734756 C63.7139634,29.3734756 53.9445732,42.9146341 31.2157317,39.9671341 C31.2157317,39.9671341 49.9834756,40.6909756 60.8465854,25.5506707" id="Fill-63" fill="#D88945" mask="url(#mask-2)"></path>
                <path d="M65.3230976,31.435628 L67.8886463,34.75575 C67.8886463,34.75575 56.4707195,45.723128 33.2331585,40.1875793 C33.2331585,40.1875793 50.9884024,42.703189 65.3230976,31.435628" id="Fill-64" fill="#C65952" mask="url(#mask-2)"></path>
                <path d="M69.4475122,36.5916951 L71.9625732,39.6511463 C71.9625732,39.6511463 60.2274512,50.1092561 33.0244024,40.1675488 C33.0244024,40.1675488 53.8045244,45.9747439 69.4475122,36.5916951" id="Fill-65" fill="#345A86" mask="url(#mask-2)"></path>
            </g>
        </g>
    </g>
</svg>