<?xml version="1.0" encoding="UTF-8"?>
<svg width="21px" height="22px" viewBox="0 0 21 22" version="1.1" xmlns="http://www.w3.org/2000/svg" xmlns:xlink="http://www.w3.org/1999/xlink">
    <!-- Generator: Sketch 51.3 (57544) - http://www.bohemiancoding.com/sketch -->
    <title>search copy</title>
    <desc>Created with Sketch.</desc>
    <defs></defs>
    <g id="Page-1" stroke="none" stroke-width="1" fill="none" fill-rule="evenodd">
        <g id="search-copy" fill="#ABABAB" fill-rule="nonzero">
            <path d="M20.6807088,20.0385142 L15.5038495,14.5927746 C16.834911,12.9923814 17.5642074,10.9787593 17.5642074,8.88249131 C17.5642074,3.98476284 13.6244793,0 8.78210372,0 C3.93972809,0 0,3.98476284 0,8.88249131 C0,13.7802198 3.93972809,17.7649826 8.78210372,17.7649826 C10.5999992,17.7649826 12.3323646,17.2104062 13.8134855,16.1576379 L19.0296733,21.6447003 C19.2476985,21.8737141 19.5409444,22 19.855191,22 C20.152637,22 20.4348099,21.8853 20.6490168,21.6767546 C21.1041589,21.2337886 21.1186685,20.4992452 20.6807088,20.0385142 Z M8.78210372,2.31717165 C12.3613837,2.31717165 15.2732239,5.26229681 15.2732239,8.88249131 C15.2732239,12.5026858 12.3613837,15.447811 8.78210372,15.447811 C5.20282371,15.447811 2.29098358,12.5026858 2.29098358,8.88249131 C2.29098358,5.26229681 5.20282371,2.31717165 8.78210372,2.31717165 Z" id="Shape"></path>
        </g>
    </g>
</svg>