<?xml version="1.0" encoding="UTF-8"?>
<svg width="50px" height="50px" viewBox="0 0 50 50" version="1.1" xmlns="http://www.w3.org/2000/svg" xmlns:xlink="http://www.w3.org/1999/xlink">
    <!-- Generator: Sketch 51.3 (57544) - http://www.bohemiancoding.com/sketch -->
    <title>Combined Shape</title>
    <desc>Created with Sketch.</desc>
    <defs></defs>
    <g id="Page-1" stroke="none" stroke-width="1" fill="none" fill-rule="evenodd">
        <path d="M25,50 C11.1928813,50 0,38.8071187 0,25 C0,11.1928813 11.1928813,0 25,0 C38.8071187,0 50,11.1928813 50,25 C50,38.8071187 38.8071187,50 25,50 Z M36.7834172,12.4769291 C36.1730657,11.8669591 35.1839146,11.8669591 34.5739446,12.4769291 L24.6301732,22.4207005 L14.6864018,12.4769291 C14.0867314,11.8562779 13.0975804,11.8391118 12.4769291,12.4387822 C11.8562779,13.0380711 11.8391118,14.0272221 12.4387822,14.6478734 C12.4513706,14.6608433 12.4639592,14.6738133 12.4769291,14.6864018 L22.4207005,24.6301732 L12.4769291,34.5739446 C11.8562779,35.1732335 11.8391118,36.1623845 12.4387822,36.7834172 C13.0380711,37.4040685 14.0272221,37.4212346 14.6478734,36.8215642 C14.6608433,36.8089757 14.6738133,36.7963872 14.6864018,36.7834172 L24.6301732,26.8396458 L34.5739446,36.7834172 C35.1945958,37.3827062 36.1837468,37.36554 36.7830357,36.7448888 C37.3678288,36.1394963 37.3678288,35.1793371 36.7830357,34.5739446 L26.8396458,24.6301732 L36.7834172,14.6864018 C37.3933872,14.0764318 37.3933872,13.0872807 36.7834172,12.4769291 Z" id="Combined-Shape" fill="#0080C7"></path>
    </g>
</svg>