<?xml version="1.0" encoding="UTF-8"?>
<svg width="102px" height="102px" viewBox="0 0 102 102" version="1.1" xmlns="http://www.w3.org/2000/svg" xmlns:xlink="http://www.w3.org/1999/xlink">
    <!-- Generator: Sketch 51.3 (57544) - http://www.bohemiancoding.com/sketch -->
    <title>hospital copy 5</title>
    <desc>Created with Sketch.</desc>
    <defs></defs>
    <g id="Page-1" stroke="none" stroke-width="1" fill="none" fill-rule="evenodd">
        <g id="hospital-copy-5" fill="#2A2A2A" fill-rule="nonzero">
            <path d="M98.485005,98.3717238 L98.485005,33.3061996 L72.4587954,33.3061996 L72.4587954,0.7734375 L30.1662046,0.7734375 L30.1662046,33.3061996 L4.13999496,33.3061996 L4.13999496,98.3717238 L0.88671875,98.3717238 L0.88671875,101.625 L4.13999496,101.625 L30.1662046,101.625 L33.4194808,101.625 L69.2055192,101.625 L72.4587954,101.625 L98.485005,101.625 L101.738281,101.625 L101.738281,98.3717238 L98.485005,98.3717238 Z M30.1662046,98.3717238 L7.39327117,98.3717238 L7.39327117,36.5594758 L30.1662046,36.5594758 L30.1662046,98.3717238 Z M49.6858619,98.3717238 L41.5524979,98.3717238 L41.5524979,73.9719787 L49.6858619,73.9719787 L49.6858619,98.3717238 Z M61.0725021,98.3717238 L52.9391381,98.3717238 L52.9391381,73.9719787 L61.0725021,73.9719787 L61.0725021,98.3717238 Z M69.2055192,33.3061996 L69.2055192,98.3717238 L64.3257783,98.3717238 L64.3257783,73.9719787 L65.95259,73.9719787 L65.95259,70.7187025 L64.3257783,70.7187025 L38.2995687,70.7187025 L36.6727571,70.7187025 L36.6727571,73.9719787 L38.2995687,73.9719787 L38.2995687,98.3717238 L33.4194808,98.3717238 L33.4194808,33.3061996 L33.4194808,4.02671371 L69.2055192,4.02671371 L69.2055192,33.3061996 Z M95.2317288,98.3717238 L72.4587954,98.3717238 L72.4587954,36.5594758 L95.2317288,36.5594758 L95.2317288,98.3717238 Z" id="Shape"></path>
            <path d="M46.4325857,36.5594758 L56.1924143,36.5594758 L56.1924143,26.7996472 L65.9522429,26.7996472 L65.9522429,17.0398185 L56.1924143,17.0398185 L56.1924143,7.27998992 L46.4325857,7.27998992 L46.4325857,17.0398185 L36.6727571,17.0398185 L36.6727571,26.7996472 L46.4325857,26.7996472 L46.4325857,36.5594758 Z M39.9260333,23.546371 L39.9260333,20.2930948 L49.6858619,20.2930948 L49.6858619,10.5332661 L52.9391381,10.5332661 L52.9391381,20.2930948 L62.6989667,20.2930948 L62.6989667,23.546371 L52.9391381,23.546371 L52.9391381,33.3061996 L49.6858619,33.3061996 L49.6858619,23.546371 L39.9260333,23.546371 Z" id="Shape"></path>
            <path d="M49.6858619,39.812752 L36.6727571,39.812752 L36.6727571,49.5725806 L49.6858619,49.5725806 L49.6858619,39.812752 Z M46.4325857,46.3193044 L39.9260333,46.3193044 L39.9260333,43.0660282 L46.4325857,43.0660282 L46.4325857,46.3193044 Z" id="Shape"></path>
            <path d="M52.9391381,49.5725806 L65.9522429,49.5725806 L65.9522429,39.812752 L52.9391381,39.812752 L52.9391381,49.5725806 Z M56.1924143,43.0660282 L62.6989667,43.0660282 L62.6989667,46.3193044 L56.1924143,46.3193044 L56.1924143,43.0660282 Z" id="Shape"></path>
            <path d="M49.6858619,52.8258569 L36.6727571,52.8258569 L36.6727571,62.5856855 L49.6858619,62.5856855 L49.6858619,52.8258569 Z M46.4325857,59.3324093 L39.9260333,59.3324093 L39.9260333,56.0791331 L46.4325857,56.0791331 L46.4325857,59.3324093 Z" id="Shape"></path>
            <path d="M52.9391381,62.5856855 L65.9522429,62.5856855 L65.9522429,52.8258569 L52.9391381,52.8258569 L52.9391381,62.5856855 Z M56.1924143,56.0791331 L62.6989667,56.0791331 L62.6989667,59.3324093 L56.1924143,59.3324093 L56.1924143,56.0791331 Z" id="Shape"></path>
            <path d="M90.351988,39.812752 L77.3388832,39.812752 L77.3388832,49.5725806 L90.351988,49.5725806 L90.351988,39.812752 Z M87.0987118,46.3193044 L80.5921594,46.3193044 L80.5921594,43.0660282 L87.0987118,43.0660282 L87.0987118,46.3193044 Z" id="Shape"></path>
            <path d="M90.351988,52.8258569 L77.3388832,52.8258569 L77.3388832,62.5856855 L90.351988,62.5856855 L90.351988,52.8258569 Z M87.0987118,59.3324093 L80.5921594,59.3324093 L80.5921594,56.0791331 L87.0987118,56.0791331 L87.0987118,59.3324093 Z" id="Shape"></path>
            <path d="M90.351988,65.8389617 L77.3388832,65.8389617 L77.3388832,75.5987903 L90.351988,75.5987903 L90.351988,65.8389617 Z M87.0987118,72.3455141 L80.5921594,72.3455141 L80.5921594,69.0922379 L87.0987118,69.0922379 L87.0987118,72.3455141 Z" id="Shape"></path>
            <path d="M90.351988,78.8520665 L77.3388832,78.8520665 L77.3388832,88.6118952 L90.351988,88.6118952 L90.351988,78.8520665 Z M87.0987118,85.358619 L80.5921594,85.358619 L80.5921594,82.1053427 L87.0987118,82.1053427 L87.0987118,85.358619 Z" id="Shape"></path>
            <path d="M25.2864638,39.812752 L12.273359,39.812752 L12.273359,49.5725806 L25.2864638,49.5725806 L25.2864638,39.812752 Z M22.0331876,46.3193044 L15.5266352,46.3193044 L15.5266352,43.0660282 L22.0331876,43.0660282 L22.0331876,46.3193044 Z" id="Shape"></path>
            <path d="M25.2864638,52.8258569 L12.273359,52.8258569 L12.273359,62.5856855 L25.2864638,62.5856855 L25.2864638,52.8258569 Z M22.0331876,59.3324093 L15.5266352,59.3324093 L15.5266352,56.0791331 L22.0331876,56.0791331 L22.0331876,59.3324093 Z" id="Shape"></path>
            <path d="M25.2864638,65.8389617 L12.273359,65.8389617 L12.273359,75.5987903 L25.2864638,75.5987903 L25.2864638,65.8389617 Z M22.0331876,72.3455141 L15.5266352,72.3455141 L15.5266352,69.0922379 L22.0331876,69.0922379 L22.0331876,72.3455141 Z" id="Shape"></path>
            <path d="M25.2864638,78.8520665 L12.273359,78.8520665 L12.273359,88.6118952 L25.2864638,88.6118952 L25.2864638,78.8520665 Z M22.0331876,85.358619 L15.5266352,85.358619 L15.5266352,82.1053427 L22.0331876,82.1053427 L22.0331876,85.358619 Z" id="Shape"></path>
        </g>
    </g>
</svg>