<?xml version="1.0" encoding="UTF-8"?>
<svg width="90px" height="62px" viewBox="0 0 90 62" version="1.1" xmlns="http://www.w3.org/2000/svg" xmlns:xlink="http://www.w3.org/1999/xlink">
    <!-- Generator: Sketch 51.3 (57544) - http://www.bohemiancoding.com/sketch -->
    <title>Group 9</title>
    <desc>Created with Sketch.</desc>
    <defs>
        <polygon id="path-1" points="0.546339772 0.361238379 45 0.361238379 45 32.3374831 0.546339772 32.3374831"></polygon>
        <polygon id="path-3" points="0.87 0.5491 3.13 0.5491 3.13 51 0.87 51"></polygon>
    </defs>
    <g id="Page-1" stroke="none" stroke-width="1" fill="none" fill-rule="evenodd">
        <g id="map_v2" transform="translate(-1185.000000, -403.000000)">
            <g id="Group-9" transform="translate(1185.000000, 402.000000)">
                <path d="M39.6191,31.6867 C37.4101,31.7377 34.7981,30.4907 33.5811,28.5907 C35.6681,26.6217 37.1241,23.9797 37.2531,21.4147 C37.2851,20.7727 36.3961,20.7347 36.1981,21.2717 C34.7141,25.2917 32.5811,28.4487 28.3501,29.9127 C25.7851,30.7997 18.7441,29.5047 19.5691,25.4467 C22.9821,25.0347 26.3901,23.2347 28.3001,20.7487 C28.6721,20.2637 27.9431,19.5557 27.4581,19.9077 C24.7091,21.8997 22.3101,23.5977 18.8201,23.9767 C15.6911,24.3177 7.5911,20.7607 11.0101,16.4597 C13.0731,17.1067 15.2361,17.4747 17.3911,17.6697 C19.2351,17.8367 24.0701,18.4137 25.5031,17.0337 C26.1611,16.4007 25.1591,15.3987 24.5031,16.0337 C23.5821,16.9247 18.6981,16.3167 17.3911,16.2817 C11.4971,16.1207 0.5761,12.2417 1.6401,4.4107 C2.4341,-1.4453 11.6981,7.4177 13.2371,8.6047 C16.5451,11.1557 20.9741,12.7427 25.0351,13.4537 C28.8621,14.1237 32.8081,13.8297 36.6551,14.4227 C40.0801,14.9497 44.1981,17.0267 42.0701,21.4337 C41.5381,22.5367 40.8821,23.5777 40.3481,24.6827 C38.9271,27.6347 40.6531,28.6477 43.3071,28.3487 C42.5091,30.2567 42.1491,31.6297 39.6191,31.6867 M44.4261,28.4097 C44.3941,28.0997 44.0721,27.8427 43.7831,27.8517 C43.7391,27.6677 43.5991,27.5017 43.3861,27.4997 C39.2281,27.4397 42.4441,23.5047 43.2231,22.1067 C43.9781,20.7517 44.1021,19.5117 43.9001,17.9547 C43.5511,15.2547 40.4531,14.0147 38.2431,13.3427 C31.7191,11.3577 25.0351,12.9367 18.5571,10.0477 C15.6201,8.7387 13.0361,6.9357 10.6941,4.7457 C9.4081,3.5427 7.7021,1.6887 5.9191,1.2327 C3.1381,0.5217 1.4011,1.4327 0.3341,4.0507 C-1.1379,7.6617 2.5891,11.4527 5.0161,13.3747 C6.4891,14.5397 8.1211,15.3967 9.8371,16.0437 C6.8891,18.8107 11.2401,23.3357 14.0131,24.6667 C15.3551,25.3117 16.8751,25.5687 18.4291,25.5277 C16.8801,29.0887 22.9231,31.3657 25.6541,31.6807 C28.1761,31.9727 30.7711,30.9277 32.8721,29.2107 C34.6931,33.9487 45.0611,34.7807 44.4261,28.4097" id="Fill-1" fill="#0080C7"></path>
                <g id="Group-5" transform="translate(45.000000, 0.638700)">
                    <mask id="mask-2" fill="white">
                        <use xlink:href="#path-1"></use>
                    </mask>
                    <g id="Clip-4"></g>
                    <path d="M1.6934,27.7101 C4.3464,28.0091 6.0734,26.9961 4.6514,24.0441 C4.1184,22.9391 3.4634,21.8981 2.9294,20.7951 C0.8014,16.3881 4.9204,14.3111 8.3444,13.7841 C12.1914,13.1911 16.1374,13.4841 19.9644,12.8141 C24.0254,12.1041 28.4554,10.5171 31.7634,7.9661 C33.3024,6.7791 42.5654,-2.0839 43.3604,3.7721 C44.4244,11.6031 33.5034,15.4811 27.6084,15.6431 C26.3004,15.6781 21.4184,16.2861 20.4974,15.3951 C19.8414,14.7601 18.8394,15.7621 19.4974,16.3951 C20.9294,17.7741 25.7644,17.1981 27.6084,17.0311 C29.7634,16.8351 31.9264,16.4681 33.9904,15.8211 C37.4094,20.1221 29.3084,23.6791 26.1784,23.3381 C22.6894,22.9591 20.2914,21.2611 17.5424,19.2691 C17.0564,18.9171 16.3284,19.6251 16.7004,20.1101 C18.6094,22.5961 22.0174,24.3961 25.4304,24.8081 C26.2554,28.8661 19.2144,30.1611 16.6494,29.2731 C12.4194,27.8101 10.2864,24.6531 8.8014,20.6331 C8.6034,20.0961 7.7144,20.1341 7.7484,20.7751 C7.8764,23.3411 9.3324,25.9821 11.4194,27.9521 C10.2024,29.8521 7.5894,31.0991 5.3814,31.0481 C2.8504,30.9911 2.4914,29.6181 1.6934,27.7101 M12.1284,28.5721 C14.2284,30.2891 16.8244,31.3341 19.3454,31.0421 C22.0774,30.7271 28.1204,28.4501 26.5724,24.8891 C28.1254,24.9301 29.6444,24.6731 30.9874,24.0281 C33.7594,22.6971 38.1114,18.1721 35.1634,15.4051 C36.8794,14.7581 38.5104,13.9001 39.9834,12.7351 C42.4114,10.8141 46.1374,7.0231 44.6664,3.4121 C43.5984,0.7941 41.8624,-0.1169 39.0814,0.5941 C37.2974,1.0501 35.5914,2.9041 34.3054,4.1061 C31.9644,6.2961 29.3804,8.1001 26.4434,9.4091 C19.9644,12.2981 13.2814,10.7191 6.7564,12.7041 C4.5474,13.3761 1.4504,14.6161 1.0994,17.3151 C0.8974,18.8731 1.0214,20.1131 1.7764,21.4681 C2.5554,22.8661 5.7714,26.8011 1.6144,26.8601 C1.4004,26.8631 1.2604,27.0291 1.2164,27.2131 C0.9274,27.2041 0.6054,27.4611 0.5744,27.7711 C-0.0616,34.1421 10.3064,33.3101 12.1284,28.5721" id="Fill-3" fill="#0080C7" mask="url(#mask-2)"></path>
                </g>
                <g id="Group-8" transform="translate(43.000000, 11.638700)">
                    <mask id="mask-4" fill="white">
                        <use xlink:href="#path-3"></use>
                    </mask>
                    <g id="Clip-7"></g>
                    <path d="M2,51.0001 C1.376,51.0001 0.87,50.4941 0.87,49.8701 L0.87,1.6791 C0.87,1.0551 1.376,0.5491 2,0.5491 C2.624,0.5491 3.13,1.0551 3.13,1.6791 L3.13,49.8701 C3.13,50.4941 2.624,51.0001 2,51.0001" id="Fill-6" fill="#0080C7" mask="url(#mask-4)"></path>
                </g>
            </g>
        </g>
    </g>
</svg>