<?xml version="1.0" encoding="UTF-8"?>
<svg width="45px" height="45px" viewBox="0 0 45 45" version="1.1" xmlns="http://www.w3.org/2000/svg" xmlns:xlink="http://www.w3.org/1999/xlink">
    <!-- Generator: Sketch 51.3 (57544) - http://www.bohemiancoding.com/sketch -->
    <title>Group 35 Copy</title>
    <desc>Created with Sketch.</desc>
    <defs></defs>
    <g id="Page-1" stroke="none" stroke-width="1" fill="none" fill-rule="evenodd">
        <g id="Group-35-Copy" fill="#FFFFFF" fill-rule="nonzero">
            <g id="hospital-copy-3">
                <path d="M43.5483871,43.5483871 L43.5483871,14.516129 L31.9354839,14.516129 L31.9354839,0 L13.0645161,0 L13.0645161,14.516129 L1.4516129,14.516129 L1.4516129,43.5483871 L0,43.5483871 L0,45 L1.4516129,45 L13.0645161,45 L14.516129,45 L30.483871,45 L31.9354839,45 L43.5483871,45 L45,45 L45,43.5483871 L43.5483871,43.5483871 Z M13.0645161,43.5483871 L2.90322581,43.5483871 L2.90322581,15.9677419 L13.0645161,15.9677419 L13.0645161,43.5483871 Z M21.7741935,43.5483871 L18.1450839,43.5483871 L18.1450839,32.6612129 L21.7741935,32.6612129 L21.7741935,43.5483871 Z M26.8549161,43.5483871 L23.2258065,43.5483871 L23.2258065,32.6612129 L26.8549161,32.6612129 L26.8549161,43.5483871 Z M30.483871,14.516129 L30.483871,43.5483871 L28.306529,43.5483871 L28.306529,32.6612129 L29.0324129,32.6612129 L29.0324129,31.2096 L28.306529,31.2096 L16.6936258,31.2096 L15.9677419,31.2096 L15.9677419,32.6612129 L16.6936258,32.6612129 L16.6936258,43.5483871 L14.516129,43.5483871 L14.516129,14.516129 L14.516129,1.4516129 L30.483871,1.4516129 L30.483871,14.516129 Z M42.0967742,43.5483871 L31.9354839,43.5483871 L31.9354839,15.9677419 L42.0967742,15.9677419 L42.0967742,43.5483871 Z" id="Shape"></path>
                <path d="M21.3333333,16 L25.6666667,16 L25.6666667,11.6666667 L30,11.6666667 L30,7.33333333 L25.6666667,7.33333333 L25.6666667,3 L21.3333333,3 L21.3333333,7.33333333 L17,7.33333333 L17,11.6666667 L21.3333333,11.6666667 L21.3333333,16 Z M18.4444444,10.2222222 L18.4444444,8.77777778 L22.7777778,8.77777778 L22.7777778,4.44444444 L24.2222222,4.44444444 L24.2222222,8.77777778 L28.5555556,8.77777778 L28.5555556,10.2222222 L24.2222222,10.2222222 L24.2222222,14.5555556 L22.7777778,14.5555556 L22.7777778,10.2222222 L18.4444444,10.2222222 Z" id="Shape"></path>
                <path d="M23,17 L17,17 L17,21 L23,21 L23,17 Z M21.5,19.6666667 L18.5,19.6666667 L18.5,18.3333333 L21.5,18.3333333 L21.5,19.6666667 Z" id="Shape"></path>
                <path d="M24,21 L30,21 L30,17 L24,17 L24,21 Z M25.5,18.3333333 L28.5,18.3333333 L28.5,19.6666667 L25.5,19.6666667 L25.5,18.3333333 Z" id="Shape"></path>
                <path d="M23,23 L17,23 L17,27 L23,27 L23,23 Z M21.5,25.6666667 L18.5,25.6666667 L18.5,24.3333333 L21.5,24.3333333 L21.5,25.6666667 Z" id="Shape"></path>
                <path d="M24,27 L30,27 L30,23 L24,23 L24,27 Z M25.5,24.3333333 L28.5,24.3333333 L28.5,25.6666667 L25.5,25.6666667 L25.5,24.3333333 Z" id="Shape"></path>
                <path d="M41,17 L35,17 L35,21 L41,21 L41,17 Z M39.5,19.6666667 L36.5,19.6666667 L36.5,18.3333333 L39.5,18.3333333 L39.5,19.6666667 Z" id="Shape"></path>
                <path d="M41,23 L35,23 L35,27 L41,27 L41,23 Z M39.5,25.6666667 L36.5,25.6666667 L36.5,24.3333333 L39.5,24.3333333 L39.5,25.6666667 Z" id="Shape"></path>
                <path d="M41,30 L35,30 L35,34 L41,34 L41,30 Z M39.5,32.6666667 L36.5,32.6666667 L36.5,31.3333333 L39.5,31.3333333 L39.5,32.6666667 Z" id="Shape"></path>
                <path d="M41,36 L35,36 L35,40 L41,40 L41,36 Z M39.5,38.6666667 L36.5,38.6666667 L36.5,37.3333333 L39.5,37.3333333 L39.5,38.6666667 Z" id="Shape"></path>
                <path d="M12,17 L6,17 L6,21 L12,21 L12,17 Z M10.5,19.6666667 L7.5,19.6666667 L7.5,18.3333333 L10.5,18.3333333 L10.5,19.6666667 Z" id="Shape"></path>
                <path d="M12,23 L6,23 L6,27 L12,27 L12,23 Z M10.5,25.6666667 L7.5,25.6666667 L7.5,24.3333333 L10.5,24.3333333 L10.5,25.6666667 Z" id="Shape"></path>
                <path d="M12,30 L6,30 L6,34 L12,34 L12,30 Z M10.5,32.6666667 L7.5,32.6666667 L7.5,31.3333333 L10.5,31.3333333 L10.5,32.6666667 Z" id="Shape"></path>
                <path d="M12,36 L6,36 L6,40 L12,40 L12,36 Z M10.5,38.6666667 L7.5,38.6666667 L7.5,37.3333333 L10.5,37.3333333 L10.5,38.6666667 Z" id="Shape"></path>
            </g>
        </g>
    </g>
</svg>