<svg xmlns="http://www.w3.org/2000/svg" xmlns:xlink="http://www.w3.org/1999/xlink" viewBox="0 0 50 73.9"><defs><style>.cls-1{fill:none;}.cls-2{fill:#0079c4;}.cls-3{clip-path:url(#clip-path);}.cls-4{fill:#fff;}.cls-5{fill:#727171;}</style><clipPath id="clip-path"><path class="cls-1" d="M46.22.45H3.76A3.77,3.77,0,0,0,0,4.21V46.66a3.77,3.77,0,0,0,3.76,3.76H50V4.21A3.77,3.77,0,0,0,46.22.45Z"/></clipPath></defs><title>logo</title><g id="图层_2" data-name="图层 2"><g id="图层_1-2" data-name="图层 1"><path class="cls-2" d="M46.22.47H3.76A3.77,3.77,0,0,0,0,4.23V46.69a3.77,3.77,0,0,0,3.76,3.76H50V4.23A3.77,3.77,0,0,0,46.22.47Z"/><g class="cls-3"><path class="cls-4" d="M14.35,50.87C7.8,50.87,3.69,47,3.69,40.21V10.66C3.69,3.88,7.8,0,14.35,0S25,3.88,25,10.66V40.21C25,47,20.9,50.87,14.35,50.87ZM18.46,11c0-3.5-1.68-5.1-4.11-5.1s-4.11,1.6-4.11,5.1V39.83c0,3.5,1.68,5.1,4.11,5.1s4.11-1.6,4.11-5.1Z"/></g><path class="cls-5" d="M2,62.61a1.83,1.83,0,0,1-2-2V54.91a1.83,1.83,0,0,1,2-2,1.82,1.82,0,0,1,2,2V56H2.7V55c0-.67-.25-1-.71-1s-.73.31-.73,1v5.51c0,.67.26,1,.73,1s.71-.31.71-1v-1H3.95v1.08A1.82,1.82,0,0,1,2,62.61Z"/><path class="cls-5" d="M7.94,62.49V58.12H6.31v4.37H5.06V53H6.31v4H7.94V53H9.2v9.5Z"/><path class="cls-5" d="M12.49,62.61a1.88,1.88,0,0,1-2-2V54.91a1.88,1.88,0,0,1,2-2,1.88,1.88,0,0,1,2,2v5.65A1.88,1.88,0,0,1,12.49,62.61ZM13.28,55c0-.67-.32-1-.79-1s-.79.31-.79,1v5.51c0,.67.32,1,.79,1s.79-.31.79-1Z"/><path class="cls-5" d="M17.68,62.61a1.88,1.88,0,0,1-2-2V54.91a1.88,1.88,0,0,1,2-2,1.88,1.88,0,0,1,2,2v5.65A1.88,1.88,0,0,1,17.68,62.61ZM18.46,55c0-.67-.32-1-.79-1s-.79.31-.79,1v5.51c0,.67.32,1,.79,1s.79-.31.79-1Z"/><path class="cls-5" d="M22.64,62.61a1.88,1.88,0,0,1-2-2V59.49h1.24v1c0,.67.36,1,.8,1s.87-.38.87-1.09a1.89,1.89,0,0,0-.58-1.49l-1.41-1.53a2.9,2.9,0,0,1-.86-2.26c0-1.28.61-2.23,2-2.23a1.84,1.84,0,0,1,2,2V56H23.46V55c0-.67-.31-1-.77-1s-.79.44-.79,1.09a1.89,1.89,0,0,0,.58,1.49l1.41,1.53a2.9,2.9,0,0,1,.86,2.26A2,2,0,0,1,22.64,62.61Z"/><path class="cls-5" d="M25.82,62.49V53h3.12v1.15H27.07V57h1.65v1.17H27.07v3.19h1.87v1.12Z"/><path class="cls-2" d="M33.93,58.79h-.74v3.7H31.93V53h2a1.82,1.82,0,0,1,2,2.07v1.66A1.82,1.82,0,0,1,33.93,58.79Zm.77-3.67c0-.6-.25-1-.77-1h-.74v3.5h.74c.52,0,.77-.38.77-1Z"/><path class="cls-2" d="M38.91,62.61a1.86,1.86,0,0,1-2-2V53h1.25v7.51c0,.67.29,1,.76,1s.76-.31.76-1V53h1.25v7.58A1.86,1.86,0,0,1,38.91,62.61Z"/><path class="cls-2" d="M44.67,62.49V59.28c0-.6-.25-1-.77-1h-.7v4.18H41.94V53h2a1.86,1.86,0,0,1,2,2.13v1.17a1.58,1.58,0,0,1-.79,1.43,1.6,1.6,0,0,1,.79,1.57v3.21Zm0-7.37c0-.6-.25-1-.77-1h-.7v3.12h.7c.53,0,.77-.38.77-1Z"/><path class="cls-2" d="M46.88,62.49V53H50v1.15H48.13V57h1.65v1.17H48.13v3.19H50v1.12Z"/><path class="cls-5" d="M2,73.9a1.83,1.83,0,0,1-2-2V66.21a1.83,1.83,0,0,1,2-2,1.82,1.82,0,0,1,2,2v1.08H2.7v-1c0-.67-.25-1-.71-1s-.73.31-.73,1v5.51c0,.67.26,1,.73,1s.71-.31.71-1v-1H3.95v1.08A1.82,1.82,0,0,1,2,73.9Z"/><path class="cls-5" d="M7.93,73.78V69.41H6.3v4.37H5v-9.5H6.3v4H7.93v-4H9.18v9.5Z"/><path class="cls-5" d="M12.46,73.9a1.88,1.88,0,0,1-2-2V66.21a1.88,1.88,0,0,1,2-2,1.88,1.88,0,0,1,2,2v5.65A1.88,1.88,0,0,1,12.46,73.9Zm.79-7.62c0-.67-.32-1-.79-1s-.79.31-.79,1v5.51c0,.67.32,1,.79,1s.79-.31.79-1Z"/><path class="cls-5" d="M17.63,73.9a1.88,1.88,0,0,1-2-2V66.21a1.88,1.88,0,0,1,2-2,1.88,1.88,0,0,1,2,2v5.65A1.88,1.88,0,0,1,17.63,73.9Zm.79-7.62c0-.67-.32-1-.79-1s-.79.31-.79,1v5.51c0,.67.32,1,.79,1s.79-.31.79-1Z"/><path class="cls-5" d="M22.59,73.9a1.88,1.88,0,0,1-2-2V70.78h1.24v1c0,.67.36,1,.8,1s.87-.38.87-1.09a1.89,1.89,0,0,0-.58-1.49l-1.41-1.53a2.9,2.9,0,0,1-.86-2.26c0-1.28.61-2.23,2-2.23a1.84,1.84,0,0,1,2,2v1.08H23.4v-1c0-.67-.31-1-.77-1s-.79.44-.79,1.09a1.89,1.89,0,0,0,.58,1.49l1.41,1.53a2.9,2.9,0,0,1,.86,2.26A2,2,0,0,1,22.59,73.9Z"/><path class="cls-5" d="M25.75,73.78v-9.5h3.12v1.15H27V68.3h1.65v1.17H27v3.19h1.87v1.12Z"/><path class="cls-2" d="M31.9,73.78V72.71l2.55-7.27H32V64.28h3.73v1.14l-2.57,7.24h2.7v1.12Z"/><path class="cls-2" d="M36.75,73.78v-9.5h3.12v1.15H38V68.3h1.65v1.17H38v3.19h1.87v1.12Z"/><path class="cls-2" d="M43.54,73.78V70.58c0-.6-.25-1-.77-1h-.7v4.18H40.81v-9.5h2a1.86,1.86,0,0,1,2,2.13v1.17A1.58,1.58,0,0,1,44,69a1.6,1.6,0,0,1,.79,1.57v3.21Zm0-7.37c0-.6-.25-1-.77-1h-.7v3.12h.7c.52,0,.77-.38.77-1Z"/><path class="cls-2" d="M47.91,73.9a1.88,1.88,0,0,1-2-2V66.21a2,2,0,1,1,4.08,0v5.65A1.88,1.88,0,0,1,47.91,73.9Zm.79-7.62c0-.67-.32-1-.79-1s-.79.31-.79,1v5.51c0,.67.32,1,.79,1s.79-.31.79-1Z"/><path class="cls-4" d="M32.37,27a3.31,3.31,0,0,1-2.31.85A3.38,3.38,0,0,1,27.71,27a3.73,3.73,0,0,1-.94-3V21.37a3.73,3.73,0,0,1,.94-3,3.39,3.39,0,0,1,2.34-.85,3.31,3.31,0,0,1,2.31.85,3.62,3.62,0,0,1,.91,3V24A3.62,3.62,0,0,1,32.37,27ZM30.69,37.5H28.53l9.86-19.84h2.16Zm.37-16.56c0-1-.37-1.4-1-1.4s-1,.4-1,1.4v3.53c0,1,.4,1.4,1,1.4s1-.4,1-1.4Zm10.35,15.8a3.56,3.56,0,0,1-4.63,0,3.73,3.73,0,0,1-.94-3V31.11a3.63,3.63,0,0,1,.94-3,3.56,3.56,0,0,1,4.63,0,3.63,3.63,0,0,1,.94,3v2.68A3.63,3.63,0,0,1,41.41,36.74Zm-1.28-6.06c0-1-.4-1.4-1-1.4s-1,.4-1,1.4v3.53c0,1,.4,1.4,1,1.4s1-.4,1-1.4Z"/><path class="cls-4" d="M27.64,42.73a.77.77,0,0,1-.84-.86V39.49a.83.83,0,1,1,1.67,0v.46h-.53v-.42c0-.28-.1-.41-.3-.41s-.31.13-.31.41v2.32c0,.28.11.41.31.41s.3-.13.3-.41v-.42h.53v.45A.77.77,0,0,1,27.64,42.73Z"/><path class="cls-4" d="M29.7,42.73a.79.79,0,0,1-.86-.86V39.49a.86.86,0,1,1,1.72,0v2.39A.79.79,0,0,1,29.7,42.73ZM30,39.52c0-.28-.14-.41-.33-.41s-.33.13-.33.41v2.32c0,.28.14.41.33.41s.33-.13.33-.41Z"/><path class="cls-4" d="M33.15,42.68V40.07c0-.38,0-.86,0-.86h0l-.56,3.47h-.53l-.56-3.47h0s0,.47,0,.86v2.61H31v-4h.81l.42,2.53c0,.3.07.78.07.78h0s0-.49.07-.78l.42-2.53h.81v4Z"/><path class="cls-4" d="M35,41.12h-.31v1.56h-.53v-4H35a.77.77,0,0,1,.85.87v.7A.77.77,0,0,1,35,41.12Zm.33-1.55c0-.25-.1-.41-.33-.41h-.31v1.48H35c.22,0,.33-.16.33-.41Z"/><path class="cls-4" d="M36.3,42.68v-4h.53v3.53h.79v.47Z"/><path class="cls-4" d="M37.93,42.68v-4h1.32v.49h-.79v1.21h.69v.49h-.69v1.35h.79v.47Z"/><path class="cls-4" d="M40.66,42.68l-.26-1a3.2,3.2,0,0,1-.09-.51h0a2.76,2.76,0,0,1-.1.51l-.29,1h-.54l.63-2-.61-2h.55l.28,1a3.06,3.06,0,0,1,.09.52h0a3.67,3.67,0,0,1,.1-.52l.27-1h.54l-.62,2,.63,2Z"/><path class="cls-4" d="M41.51,42.68v-4H42v4Z"/><path class="cls-4" d="M43.83,42.68l-.81-3h0a7.28,7.28,0,0,1,.07.86v2.15h-.49v-4h.59l.81,3h0a8.46,8.46,0,0,1-.06-.86V38.68h.49v4Z"/><path class="cls-4" d="M46.33,42.68l-.08-.23a.63.63,0,0,1-.55.28c-.5,0-.78-.31-.78-.86V39.49a.84.84,0,1,1,1.68,0v.46h-.53v-.42c0-.28-.11-.41-.31-.41s-.31.13-.31.41v2.32c0,.28.11.41.31.41s.31-.12.31-.41V41.1h-.31v-.46h.84v2Z"/><path class="cls-4" d="M27.71,46.69h-.31v1.56h-.53v-4h.84a.77.77,0,0,1,.85.87v.7A.77.77,0,0,1,27.71,46.69ZM28,45.14c0-.25-.1-.41-.33-.41h-.31V46.2h.31c.22,0,.33-.16.33-.41Z"/><path class="cls-4" d="M30.17,48.25a.89.89,0,0,1-.06-.4v-1c0-.25-.1-.41-.33-.41h-.3v1.76H29v-4h.82a.77.77,0,0,1,.85.87v.54a.63.63,0,0,1-.33.58.64.64,0,0,1,.33.64v.92a1.31,1.31,0,0,0,.07.46Zm-.06-3.11c0-.25-.1-.41-.33-.41h-.3V46h.3c.22,0,.33-.16.33-.41Z"/><path class="cls-4" d="M31.93,48.3a.79.79,0,0,1-.86-.86V45a.86.86,0,0,1,1.72,0v2.39A.79.79,0,0,1,31.93,48.3Zm.33-3.22c0-.28-.14-.41-.33-.41s-.33.13-.33.41V47.4c0,.28.14.41.33.41s.33-.13.33-.41Z"/><path class="cls-4" d="M34.11,44.72v3.52h-.53V44.72H33v-.49h1.68v.49Z"/><path class="cls-4" d="M35,48.25v-4h1.32v.49H35.5v1.21h.7v.49h-.7v1.35h.79v.47Z"/><path class="cls-4" d="M36.66,48.25v-4h.53v4Z"/><path class="cls-4" d="M39,48.25l-.81-3h0a7.28,7.28,0,0,1,.07.86v2.15h-.49v-4h.59l.81,3h0a8.46,8.46,0,0,1-.06-.86V44.24h.49v4Z"/><path class="cls-4" d="M40.84,48.3a.79.79,0,0,1-.86-.86V47h.52v.42c0,.28.15.41.34.41s.37-.16.37-.46a.8.8,0,0,0-.25-.63l-.6-.65a1.22,1.22,0,0,1-.36-1c0-.54.26-.94.85-.94a.78.78,0,0,1,.85.86v.46h-.52v-.42c0-.28-.13-.41-.33-.41s-.33.18-.33.46a.8.8,0,0,0,.25.63l.6.65a1.22,1.22,0,0,1,.36,1A.85.85,0,0,1,40.84,48.3Z"/></g></g></svg>