<svg xmlns="http://www.w3.org/2000/svg" viewBox="0 0 104.13 77.8"><defs><style>.cls-1{fill:#43a7b1;}.cls-2{fill:#0068a8;}.cls-3{fill:#fff;}</style></defs><title>资源 13</title><g id="图层_2" data-name="图层 2"><g id="图层_1-2" data-name="图层 1"><path class="cls-1" d="M31.3,10.41,22,34.34l.16.16A3.23,3.23,0,0,1,23.42,34a9.94,9.94,0,0,1,2.2-.2,8,8,0,0,1,4,1,8.13,8.13,0,0,1,2.88,2.64,9.06,9.06,0,0,1,.88,1.76,13.52,13.52,0,0,1,.56,2.32q.16,1.44.24,3.64t.08,5.56q0,2.8-.08,4.6t-.24,3a11.11,11.11,0,0,1-.6,2.16,14.62,14.62,0,0,1-.92,1.84,11.05,11.05,0,0,1-4.28,4.08,12.57,12.57,0,0,1-6,1.44,12,12,0,0,1-6-1.48,11.59,11.59,0,0,1-4.24-4,10.5,10.5,0,0,1-1-1.84,8.48,8.48,0,0,1-.52-2.16,20.36,20.36,0,0,1-.32-3q-.08-1.8-.08-4.6,0-2.64.08-4.36c.05-1.15.13-2.15.24-3a12.84,12.84,0,0,1,.48-2.2q.32-1,.72-2.12L22.18,10.41ZM26.1,45.06a3.87,3.87,0,0,0-1.2-3,4.06,4.06,0,0,0-5.6,0,3.87,3.87,0,0,0-1.2,3V55.63a3.86,3.86,0,0,0,1.2,3,4.06,4.06,0,0,0,5.6,0,3.86,3.86,0,0,0,1.2-3Z"/><path class="cls-2" d="M22.1,77.8a21.92,21.92,0,0,1-10.86-2.75A21.48,21.48,0,0,1,3.43,67.6a19.39,19.39,0,0,1-1.76-3.33A17.79,17.79,0,0,1,.52,59.93a30.86,30.86,0,0,1-.43-4.14q-.09-2-.09-5,0-2.92.09-4.82.1-2.18.31-3.8a23,23,0,0,1,.86-3.95c.25-.79.53-1.61.84-2.47L12.87,6.93A9.93,9.93,0,0,1,22.18.48H31.3A9.93,9.93,0,0,1,40.56,14l-5,12.83a17.76,17.76,0,0,1,5.25,5.23,19.31,19.31,0,0,1,1.89,3.79,22.93,22.93,0,0,1,1,4.07c0,.18.05.35.07.53.13,1.15.23,2.61.3,4.37.06,1.56.09,3.53.09,5.92q0,3.07-.09,5c-.07,1.55-.18,2.84-.32,3.87,0,.17-.05.34-.08.52a20.76,20.76,0,0,1-1.18,4.12,24.08,24.08,0,0,1-1.51,3,21.08,21.08,0,0,1-8.17,7.85A22.45,22.45,0,0,1,22.1,77.8ZM19.86,50.46a5.92,5.92,0,0,0,4.47,0v-.24a6,6,0,0,0-4.47,0Z"/><path class="cls-1" d="M42.66,67.39l9.28-23.93-.16-.16a3.2,3.2,0,0,1-1.24.52,9.75,9.75,0,0,1-2.2.2,8.32,8.32,0,0,1-6.88-3.68,6.88,6.88,0,0,1-.88-1.72,11.07,11.07,0,0,1-.48-2.36,29.47,29.47,0,0,1-.32-3.64q-.08-2.2-.08-5.56,0-2.8.08-4.6a22.51,22.51,0,0,1,.32-3.08,8.44,8.44,0,0,1,.52-2.08,15,15,0,0,1,.92-1.84,11,11,0,0,1,4.28-4.08,12.56,12.56,0,0,1,6-1.44,12.07,12.07,0,0,1,6,1.48,11.63,11.63,0,0,1,4.24,4,20.64,20.64,0,0,1,1,1.84,9.64,9.64,0,0,1,.64,2.08q.16,1.28.24,3.08t.08,4.6q0,2.64-.08,4.36t-.24,2.92c-.16.85-.33,1.62-.52,2.28s-.41,1.37-.68,2.12L51.79,67.39Zm5.2-34.65a3.85,3.85,0,0,0,1.2,3,4.06,4.06,0,0,0,5.6,0,3.85,3.85,0,0,0,1.2-3V22.18a3.86,3.86,0,0,0-1.2-3,4.06,4.06,0,0,0-5.6,0,3.86,3.86,0,0,0-1.2,3Z"/><path class="cls-2" d="M51.79,77.32H42.66A9.93,9.93,0,0,1,33.4,63.8l5-12.82a17.72,17.72,0,0,1-5.15-5.08,16.83,16.83,0,0,1-2-4,20.36,20.36,0,0,1-.94-4.26,40,40,0,0,1-.4-4.64q-.08-2.34-.09-5.92,0-3.07.09-5a32.83,32.83,0,0,1,.43-4.22,18.17,18.17,0,0,1,1.14-4.27A24.83,24.83,0,0,1,33,10.45a21,21,0,0,1,8.16-7.83,23.15,23.15,0,0,1,21.6.13,21.51,21.51,0,0,1,7.81,7.44,31.52,31.52,0,0,1,1.56,2.95,19.7,19.7,0,0,1,1.35,4.29c0,.24.09.47.12.71.13,1.07.24,2.36.31,3.87q.09,2,.09,5,0,2.92-.09,4.82c-.07,1.48-.18,2.74-.32,3.77,0,.17-.05.34-.08.52-.22,1.18-.46,2.23-.72,3.15s-.54,1.81-.9,2.79L61.09,70.87A9.93,9.93,0,0,1,51.79,77.32ZM49.63,27.58a6,6,0,0,0,4.47,0v-.24a6,6,0,0,0-4.47,0Z"/><path class="cls-1" d="M74.27,27.78a7.07,7.07,0,0,1-5-1.68,5.67,5.67,0,0,1-1.84-4.4v-5.2a6.33,6.33,0,0,1,1.84-4.8,7.88,7.88,0,0,1,9.93,0,6.34,6.34,0,0,1,1.84,4.8v5.2a5.68,5.68,0,0,1-1.84,4.4A7.07,7.07,0,0,1,74.27,27.78ZM68.43,67.39,88,10.41h5.28l-19.53,57ZM74.27,23a1.92,1.92,0,0,0,1.4-.6,2,2,0,0,0,.6-1.48V16.81a2,2,0,0,0-.6-1.48,1.93,1.93,0,0,0-2.8,0,2,2,0,0,0-.6,1.48v4.08a2,2,0,0,0,.6,1.48A1.92,1.92,0,0,0,74.27,23ZM87.4,67.87a7.08,7.08,0,0,1-5-1.68,5.67,5.67,0,0,1-1.84-4.4v-5.2a6.33,6.33,0,0,1,1.84-4.8,7.87,7.87,0,0,1,9.92,0,6.34,6.34,0,0,1,1.84,4.8v5.2a5.69,5.69,0,0,1-1.84,4.4A7.09,7.09,0,0,1,87.4,67.87ZM85.4,61a2,2,0,0,0,.6,1.48,1.93,1.93,0,0,0,2.8,0A2,2,0,0,0,89.4,61V56.91a2,2,0,0,0-.6-1.48,1.93,1.93,0,0,0-2.8,0,2,2,0,0,0-.6,1.48Z"/><path class="cls-2" d="M87.4,77.8a17.67,17.67,0,0,1-8.42-2,9.92,9.92,0,0,1-5.27,1.51H68.43A9.93,9.93,0,0,1,59,64.17l9.38-27.37a16,16,0,0,1-5.8-3.38,15.65,15.65,0,0,1-5.08-11.73v-5.2a16.06,16.06,0,0,1,4.91-12A16.66,16.66,0,0,1,74.27,0a17.43,17.43,0,0,1,8.39,2A9.91,9.91,0,0,1,88,.48h5.28a9.93,9.93,0,0,1,9.4,13.15L93.25,41a15.91,15.91,0,0,1,10.88,15.57v5.2a15.67,15.67,0,0,1-5.08,11.74A16.86,16.86,0,0,1,87.4,77.8Zm-.59-18a2.23,2.23,0,0,0,.61.16,3.62,3.62,0,0,0,1.85-1l-.15-.14a3.67,3.67,0,0,0-1.68-.9ZM72.4,18.9a3.66,3.66,0,0,0,1.82,1L74.85,18a2.61,2.61,0,0,0-.58-.17,3.62,3.62,0,0,0-1.73.91Z"/><path class="cls-3" d="M31.3,10.41,22,34.34l.16.16A3.23,3.23,0,0,1,23.42,34a9.94,9.94,0,0,1,2.2-.2,8,8,0,0,1,4,1,8.13,8.13,0,0,1,2.88,2.64,9.06,9.06,0,0,1,.88,1.76,13.52,13.52,0,0,1,.56,2.32q.16,1.44.24,3.64t.08,5.56q0,2.8-.08,4.6t-.24,3a11.11,11.11,0,0,1-.6,2.16,14.62,14.62,0,0,1-.92,1.84,11.05,11.05,0,0,1-4.28,4.08,12.57,12.57,0,0,1-6,1.44,12,12,0,0,1-6-1.48,11.59,11.59,0,0,1-4.24-4,10.5,10.5,0,0,1-1-1.84,8.48,8.48,0,0,1-.52-2.16,20.36,20.36,0,0,1-.32-3q-.08-1.8-.08-4.6,0-2.64.08-4.36c.05-1.15.13-2.15.24-3a12.84,12.84,0,0,1,.48-2.2q.32-1,.72-2.12L22.18,10.41ZM26.1,45.06a3.87,3.87,0,0,0-1.2-3,4.06,4.06,0,0,0-5.6,0,3.87,3.87,0,0,0-1.2,3V55.63a3.86,3.86,0,0,0,1.2,3,4.06,4.06,0,0,0,5.6,0,3.86,3.86,0,0,0,1.2-3Z"/><path class="cls-3" d="M42.66,67.39l9.28-23.93-.16-.16a3.2,3.2,0,0,1-1.24.52,9.75,9.75,0,0,1-2.2.2,8.32,8.32,0,0,1-6.88-3.68,6.88,6.88,0,0,1-.88-1.72,11.07,11.07,0,0,1-.48-2.36,29.47,29.47,0,0,1-.32-3.64q-.08-2.2-.08-5.56,0-2.8.08-4.6a22.51,22.51,0,0,1,.32-3.08,8.44,8.44,0,0,1,.52-2.08,15,15,0,0,1,.92-1.84,11,11,0,0,1,4.28-4.08,12.56,12.56,0,0,1,6-1.44,12.07,12.07,0,0,1,6,1.48,11.63,11.63,0,0,1,4.24,4,20.64,20.64,0,0,1,1,1.84,9.64,9.64,0,0,1,.64,2.08q.16,1.28.24,3.08t.08,4.6q0,2.64-.08,4.36t-.24,2.92c-.16.85-.33,1.62-.52,2.28s-.41,1.37-.68,2.12L51.79,67.39Zm5.2-34.65a3.85,3.85,0,0,0,1.2,3,4.06,4.06,0,0,0,5.6,0,3.85,3.85,0,0,0,1.2-3V22.18a3.86,3.86,0,0,0-1.2-3,4.06,4.06,0,0,0-5.6,0,3.86,3.86,0,0,0-1.2,3Z"/><path class="cls-3" d="M74.27,27.78a7.07,7.07,0,0,1-5-1.68,5.67,5.67,0,0,1-1.84-4.4v-5.2a6.33,6.33,0,0,1,1.84-4.8,7.88,7.88,0,0,1,9.93,0,6.34,6.34,0,0,1,1.84,4.8v5.2a5.68,5.68,0,0,1-1.84,4.4A7.07,7.07,0,0,1,74.27,27.78ZM68.43,67.39,88,10.41h5.28l-19.53,57ZM74.27,23a1.92,1.92,0,0,0,1.4-.6,2,2,0,0,0,.6-1.48V16.81a2,2,0,0,0-.6-1.48,1.93,1.93,0,0,0-2.8,0,2,2,0,0,0-.6,1.48v4.08a2,2,0,0,0,.6,1.48A1.92,1.92,0,0,0,74.27,23ZM87.4,67.87a7.08,7.08,0,0,1-5-1.68,5.67,5.67,0,0,1-1.84-4.4v-5.2a6.33,6.33,0,0,1,1.84-4.8,7.87,7.87,0,0,1,9.92,0,6.34,6.34,0,0,1,1.84,4.8v5.2a5.69,5.69,0,0,1-1.84,4.4A7.09,7.09,0,0,1,87.4,67.87ZM85.4,61a2,2,0,0,0,.6,1.48,1.93,1.93,0,0,0,2.8,0A2,2,0,0,0,89.4,61V56.91a2,2,0,0,0-.6-1.48,1.93,1.93,0,0,0-2.8,0,2,2,0,0,0-.6,1.48Z"/></g></g></svg>