<svg xmlns="http://www.w3.org/2000/svg" viewBox="0 0 104.13 77.8"><defs><style>.cls-1{fill:#43a7b1;}.cls-2{fill:#0068a8;}.cls-3{fill:#fff;}</style></defs><title>资源 16</title><g id="图层_2" data-name="图层 2"><g id="图层_1-2" data-name="图层 1"><path class="cls-1" d="M19.62,34.42q3.68,0,5.08-.88t1.4-4.08V22.1A4,4,0,0,0,25,19.22a3.87,3.87,0,0,0-2.92-1.12A3.45,3.45,0,0,0,19,19.45a4.73,4.73,0,0,0-.92,2.64v4.64H9.93V22a11.86,11.86,0,0,1,1-4.72,11.47,11.47,0,0,1,2.64-3.84,13.15,13.15,0,0,1,3.92-2.56,12,12,0,0,1,4.8-1,10.67,10.67,0,0,1,5.56,1.32,12.82,12.82,0,0,1,3.32,2.68,17.5,17.5,0,0,1,1.4,1.92,9.33,9.33,0,0,1,1,2.32A31.83,31.83,0,0,1,34.26,26q0,3-.12,4.8a9.93,9.93,0,0,1-.6,3A6.07,6.07,0,0,1,32,36a18.38,18.38,0,0,1-2.76,1.92,15.46,15.46,0,0,1,2.92,2.24,6.55,6.55,0,0,1,1.48,2.4,12.44,12.44,0,0,1,.56,3.4q.08,2,.08,5,0,2.8-.12,4.64a23.66,23.66,0,0,1-.36,3,9.35,9.35,0,0,1-.64,2.16,13.1,13.1,0,0,1-1,1.84,13,13,0,0,1-3.88,3.72A11.54,11.54,0,0,1,22,67.87a14.45,14.45,0,0,1-4.08-.64A11.12,11.12,0,0,1,14,65.15a11.24,11.24,0,0,1-2.92-3.76,12.59,12.59,0,0,1-1.16-5.68V51.07H18.1v4.24a4.64,4.64,0,0,0,1.08,3.16,3.68,3.68,0,0,0,2.92,1.24A3.67,3.67,0,0,0,25,58.47a4.88,4.88,0,0,0,1.08-3.32V47q0-3.36-1.28-4.4a3.58,3.58,0,0,0-2-.8,26.5,26.5,0,0,0-3.24-.16Z"/><path class="cls-2" d="M22,77.8a24.4,24.4,0,0,1-6.89-1A20.89,20.89,0,0,1,2.21,65.82,22.4,22.4,0,0,1,0,55.71V51.07a9.93,9.93,0,0,1,9.68-9.93V36.67A9.93,9.93,0,0,1,0,26.74V22a21.79,21.79,0,0,1,1.77-8.64A21.36,21.36,0,0,1,6.68,6.27a23.15,23.15,0,0,1,6.87-4.51A22,22,0,0,1,22.26,0,20.45,20.45,0,0,1,32.92,2.73,22.35,22.35,0,0,1,38.8,7.62a27.19,27.19,0,0,1,2.16,3,19.26,19.26,0,0,1,2.11,4.8A40,40,0,0,1,44.19,26c0,2.24-.05,4.06-.14,5.46a19.47,19.47,0,0,1-1.3,6.09l-.24.53q.26.59.47,1.2a22.48,22.48,0,0,1,1.11,6.29q.09,2.12.09,5.4c0,2.13-.05,3.9-.14,5.3a32.81,32.81,0,0,1-.53,4.32A18.65,18.65,0,0,1,42.17,65,22.8,22.8,0,0,1,33.5,74.8,21.27,21.27,0,0,1,22,77.8Zm-.45-26.17h0Z"/><path class="cls-1" d="M61.07,10.41,51.79,34.34l.16.16A3.23,3.23,0,0,1,53.19,34a9.85,9.85,0,0,1,2.2-.2,8,8,0,0,1,4,1,8.15,8.15,0,0,1,2.88,2.64,9.07,9.07,0,0,1,.88,1.76,13.52,13.52,0,0,1,.56,2.32q.16,1.44.24,3.64T64,50.74q0,2.8-.08,4.6t-.24,3a11.12,11.12,0,0,1-.6,2.16,14.5,14.5,0,0,1-.92,1.84,11.05,11.05,0,0,1-4.28,4.08,12.57,12.57,0,0,1-6,1.44,12,12,0,0,1-6-1.48,11.59,11.59,0,0,1-4.24-4,10.43,10.43,0,0,1-1-1.84,8.49,8.49,0,0,1-.52-2.16,20.36,20.36,0,0,1-.32-3q-.08-1.8-.08-4.6,0-2.64.08-4.36c.05-1.15.13-2.15.24-3a12.81,12.81,0,0,1,.48-2.2q.32-1,.72-2.12L51.95,10.41Zm-5.2,34.65a3.86,3.86,0,0,0-1.2-3,4.06,4.06,0,0,0-5.6,0,3.86,3.86,0,0,0-1.2,3V55.63a3.86,3.86,0,0,0,1.2,3,4.06,4.06,0,0,0,5.6,0,3.86,3.86,0,0,0,1.2-3Z"/><path class="cls-2" d="M51.87,77.8A21.91,21.91,0,0,1,41,75.05a21.46,21.46,0,0,1-7.72-7.31,20.41,20.41,0,0,1-1.85-3.47,17.81,17.81,0,0,1-1.14-4.35,30.84,30.84,0,0,1-.43-4.14q-.09-2-.09-5,0-2.92.09-4.82.1-2.18.31-3.8a22.81,22.81,0,0,1,.87-4c.25-.78.53-1.6.84-2.46L42.64,6.93A9.93,9.93,0,0,1,51.95.48h9.12A9.93,9.93,0,0,1,70.33,14l-5,12.83A17.82,17.82,0,0,1,70.59,32a19.31,19.31,0,0,1,1.89,3.8,22.93,22.93,0,0,1,1,4.07c0,.18.05.36.07.54.13,1.15.23,2.61.3,4.37q.08,2.34.09,5.92,0,3.07-.09,5c-.07,1.55-.18,2.84-.32,3.87,0,.17-.05.34-.08.51a20.75,20.75,0,0,1-1.18,4.11,23.93,23.93,0,0,1-1.52,3.06,21.08,21.08,0,0,1-8.16,7.83A22.44,22.44,0,0,1,51.87,77.8ZM49.63,50.46a6,6,0,0,0,4.47,0v-.24a6,6,0,0,0-4.47,0Z"/><path class="cls-1" d="M74.27,27.78a7.08,7.08,0,0,1-5-1.68,5.67,5.67,0,0,1-1.84-4.4v-5.2a6.33,6.33,0,0,1,1.84-4.8,7.87,7.87,0,0,1,9.93,0,6.34,6.34,0,0,1,1.84,4.8v5.2a5.68,5.68,0,0,1-1.84,4.4A7.08,7.08,0,0,1,74.27,27.78ZM68.43,67.39,88,10.41h5.28l-19.53,57ZM74.27,23a1.92,1.92,0,0,0,1.4-.6,2,2,0,0,0,.6-1.48V16.81a2,2,0,0,0-.6-1.48,1.93,1.93,0,0,0-2.8,0,2,2,0,0,0-.6,1.48V20.9a2,2,0,0,0,.6,1.48A1.92,1.92,0,0,0,74.27,23ZM87.4,67.87a7.07,7.07,0,0,1-5-1.68,5.67,5.67,0,0,1-1.84-4.4v-5.2a6.33,6.33,0,0,1,1.84-4.8,7.87,7.87,0,0,1,9.92,0,6.34,6.34,0,0,1,1.84,4.8v5.2a5.69,5.69,0,0,1-1.84,4.4A7.08,7.08,0,0,1,87.4,67.87ZM85.4,61a2,2,0,0,0,.6,1.48,1.93,1.93,0,0,0,2.8,0A2,2,0,0,0,89.4,61V56.91a2,2,0,0,0-.6-1.48,1.93,1.93,0,0,0-2.8,0,2,2,0,0,0-.6,1.48Z"/><path class="cls-2" d="M87.4,77.8a17.67,17.67,0,0,1-8.42-2,9.92,9.92,0,0,1-5.27,1.51H68.43A9.93,9.93,0,0,1,59,64.17l9.38-27.37a16,16,0,0,1-5.8-3.37A15.67,15.67,0,0,1,57.54,21.7v-5.2a16.06,16.06,0,0,1,4.91-12A16.64,16.64,0,0,1,74.27,0a17.43,17.43,0,0,1,8.39,2A9.92,9.92,0,0,1,88,.48h5.28a9.93,9.93,0,0,1,9.4,13.15L93.25,41a15.91,15.91,0,0,1,10.88,15.57v5.2a15.68,15.68,0,0,1-5.07,11.73A16.85,16.85,0,0,1,87.4,77.8Zm-.59-18a2.22,2.22,0,0,0,.61.16,3.62,3.62,0,0,0,1.85-1l-.14-.14a3.67,3.67,0,0,0-1.68-.9ZM72.4,18.9a3.65,3.65,0,0,0,1.82,1L74.85,18a2.61,2.61,0,0,0-.58-.17,3.63,3.63,0,0,0-1.73.91Z"/><path class="cls-3" d="M19.62,34.42q3.68,0,5.08-.88t1.4-4.08V22.1A4,4,0,0,0,25,19.22a3.87,3.87,0,0,0-2.92-1.12A3.45,3.45,0,0,0,19,19.45a4.73,4.73,0,0,0-.92,2.64v4.64H9.93V22a11.86,11.86,0,0,1,1-4.72,11.47,11.47,0,0,1,2.64-3.84,13.15,13.15,0,0,1,3.92-2.56,12,12,0,0,1,4.8-1,10.67,10.67,0,0,1,5.56,1.32,12.82,12.82,0,0,1,3.32,2.68,17.5,17.5,0,0,1,1.4,1.92,9.33,9.33,0,0,1,1,2.32A31.83,31.83,0,0,1,34.26,26q0,3-.12,4.8a9.93,9.93,0,0,1-.6,3A6.07,6.07,0,0,1,32,36a18.38,18.38,0,0,1-2.76,1.92,15.46,15.46,0,0,1,2.92,2.24,6.55,6.55,0,0,1,1.48,2.4,12.44,12.44,0,0,1,.56,3.4q.08,2,.08,5,0,2.8-.12,4.64a23.66,23.66,0,0,1-.36,3,9.35,9.35,0,0,1-.64,2.16,13.1,13.1,0,0,1-1,1.84,13,13,0,0,1-3.88,3.72A11.54,11.54,0,0,1,22,67.87a14.45,14.45,0,0,1-4.08-.64A11.12,11.12,0,0,1,14,65.15a11.24,11.24,0,0,1-2.92-3.76,12.59,12.59,0,0,1-1.16-5.68V51.07H18.1v4.24a4.64,4.64,0,0,0,1.08,3.16,3.68,3.68,0,0,0,2.92,1.24A3.67,3.67,0,0,0,25,58.47a4.88,4.88,0,0,0,1.08-3.32V47q0-3.36-1.28-4.4a3.58,3.58,0,0,0-2-.8,26.5,26.5,0,0,0-3.24-.16Z"/><path class="cls-3" d="M61.07,10.41,51.79,34.34l.16.16A3.23,3.23,0,0,1,53.19,34a9.85,9.85,0,0,1,2.2-.2,8,8,0,0,1,4,1,8.15,8.15,0,0,1,2.88,2.64,9.07,9.07,0,0,1,.88,1.76,13.52,13.52,0,0,1,.56,2.32q.16,1.44.24,3.64T64,50.74q0,2.8-.08,4.6t-.24,3a11.12,11.12,0,0,1-.6,2.16,14.5,14.5,0,0,1-.92,1.84,11.05,11.05,0,0,1-4.28,4.08,12.57,12.57,0,0,1-6,1.44,12,12,0,0,1-6-1.48,11.59,11.59,0,0,1-4.24-4,10.43,10.43,0,0,1-1-1.84,8.49,8.49,0,0,1-.52-2.16,20.36,20.36,0,0,1-.32-3q-.08-1.8-.08-4.6,0-2.64.08-4.36c.05-1.15.13-2.15.24-3a12.81,12.81,0,0,1,.48-2.2q.32-1,.72-2.12L51.95,10.41Zm-5.2,34.65a3.86,3.86,0,0,0-1.2-3,4.06,4.06,0,0,0-5.6,0,3.86,3.86,0,0,0-1.2,3V55.63a3.86,3.86,0,0,0,1.2,3,4.06,4.06,0,0,0,5.6,0,3.86,3.86,0,0,0,1.2-3Z"/><path class="cls-3" d="M74.27,27.78a7.08,7.08,0,0,1-5-1.68,5.67,5.67,0,0,1-1.84-4.4v-5.2a6.33,6.33,0,0,1,1.84-4.8,7.87,7.87,0,0,1,9.93,0,6.34,6.34,0,0,1,1.84,4.8v5.2a5.68,5.68,0,0,1-1.84,4.4A7.08,7.08,0,0,1,74.27,27.78ZM68.43,67.39,88,10.41h5.28l-19.53,57ZM74.27,23a1.92,1.92,0,0,0,1.4-.6,2,2,0,0,0,.6-1.48V16.81a2,2,0,0,0-.6-1.48,1.93,1.93,0,0,0-2.8,0,2,2,0,0,0-.6,1.48V20.9a2,2,0,0,0,.6,1.48A1.92,1.92,0,0,0,74.27,23ZM87.4,67.87a7.07,7.07,0,0,1-5-1.68,5.67,5.67,0,0,1-1.84-4.4v-5.2a6.33,6.33,0,0,1,1.84-4.8,7.87,7.87,0,0,1,9.92,0,6.34,6.34,0,0,1,1.84,4.8v5.2a5.69,5.69,0,0,1-1.84,4.4A7.08,7.08,0,0,1,87.4,67.87ZM85.4,61a2,2,0,0,0,.6,1.48,1.93,1.93,0,0,0,2.8,0A2,2,0,0,0,89.4,61V56.91a2,2,0,0,0-.6-1.48,1.93,1.93,0,0,0-2.8,0,2,2,0,0,0-.6,1.48Z"/></g></g></svg>