<?xml version="1.0" encoding="UTF-8"?>
<svg width="30px" height="30px" viewBox="0 0 30 30" version="1.1" xmlns="http://www.w3.org/2000/svg" xmlns:xlink="http://www.w3.org/1999/xlink">
    <!-- Generator: Sketch 51.3 (57544) - http://www.bohemiancoding.com/sketch -->
    <title>Group 12</title>
    <desc>Created with Sketch.</desc>
    <defs></defs>
    <g id="設計立吞" stroke="none" stroke-width="1" fill="none" fill-rule="evenodd">
        <g id="Group-12" fill="#FFFFFF">
            <path d="M15,30 C6.71572875,30 0,23.2842712 0,15 C0,6.71572875 6.71572875,0 15,0 C23.2842712,0 30,6.71572875 30,15 C30,23.2842712 23.2842712,30 15,30 Z M16.3221983,13.1359375 L16.3221983,11.3046875 C16.3221983,10.7992625 16.7465431,10.3890625 17.2693966,10.3890625 L18.2165948,10.3890625 L18.2165948,8.1 L16.3221983,8.1 C14.7526907,8.1 13.4806034,9.32968437 13.4806034,10.846875 L13.4806034,13.1359375 L11.5862069,13.1359375 L11.5862069,15.425 L13.4806034,15.425 L13.4806034,22.75 L16.3221983,22.75 L16.3221983,15.425 L18.2165948,15.425 L19.1637931,13.1359375 L16.3221983,13.1359375 Z" id="Combined-Shape"></path>
        </g>
    </g>
</svg>