<?xml version="1.0" encoding="utf-8"?>
<!-- Generator: Adobe Illustrator 21.0.0, SVG Export Plug-In . SVG Version: 6.00 Build 0)  -->
<svg version="1.1" id="图层_1" xmlns="http://www.w3.org/2000/svg" xmlns:xlink="http://www.w3.org/1999/xlink" x="0px" y="0px"
	 viewBox="0 0 29 29" style="enable-background:new 0 0 29 29;" xml:space="preserve">
<style type="text/css">
	.st0{fill:none;}
	.st1{fill:#2A2A2A;}
</style>
<title>Group 7</title>
<desc>Created with Sketch.</desc>
<g id="symbol">
	<g id="Group-7">
		<rect id="Rectangle-3-Copy-2" class="st0" width="29" height="29"/>
		<g id="wechat" transform="translate(1.000000, 2.000000)">
			<path id="Shape" class="st1" d="M10.5,0C4.7,0,0,3.9,0,8.7c0,2.8,1.6,5.2,4,6.8l-1.4,2.7l3.8-1.6c0.8,0.3,1.6,0.5,2.5,0.6
				c-0.1-0.5-0.2-1.1-0.2-1.6c0-4.8,4.7-8.7,10.5-8.7c0.5,0,1,0,1.6,0.1C19.9,3,15.6,0,10.5,0z M7,6.5c-0.7,0-1.3-0.6-1.3-1.3
				S6.3,3.9,7,3.9s1.3,0.6,1.3,1.3S7.7,6.5,7,6.5z M14,6.5c-0.7,0-1.3-0.6-1.3-1.3s0.6-1.3,1.3-1.3s1.3,0.6,1.3,1.3S14.7,6.5,14,6.5
				z"/>
			<path id="Shape_1_" class="st1" d="M27.8,15.2c0-3.8-3.9-6.9-8.8-6.9s-8.8,3.1-8.8,6.9s3.9,6.9,8.8,6.9c0.8,0,1.6-0.1,2.3-0.3
				l4.7,2l-1.6-3.2C26.4,19.4,27.8,17.4,27.8,15.2z M16.4,14.8c-0.7,0-1.3-0.6-1.3-1.3s0.6-1.3,1.3-1.3c0.7,0,1.3,0.6,1.3,1.3
				S17.1,14.8,16.4,14.8z M21.6,14.8c-0.7,0-1.3-0.6-1.3-1.3s0.6-1.3,1.3-1.3s1.3,0.6,1.3,1.3S22.4,14.8,21.6,14.8z"/>
		</g>
	</g>
</g>
</svg>
