<?xml version="1.0" encoding="UTF-8"?>
<svg width="30px" height="30px" viewBox="0 0 30 30" version="1.1" xmlns="http://www.w3.org/2000/svg" xmlns:xlink="http://www.w3.org/1999/xlink">
    <!-- Generator: Sketch 51.3 (57544) - http://www.bohemiancoding.com/sketch -->
    <title>Group 11</title>
    <desc>Created with Sketch.</desc>
    <defs></defs>
    <g id="設計立吞" stroke="none" stroke-width="1" fill="none" fill-rule="evenodd">
        <g id="Group-11" fill="#FFFFFF">
            <path d="M15,30 C6.71572875,30 0,23.2842712 0,15 C0,6.71572875 6.71572875,0 15,0 C23.2842712,0 30,6.71572875 30,15 C30,23.2842712 23.2842712,30 15,30 Z M23.0013467,15.3692361 C23.0379182,15.1832343 23.056013,15.0267346 23.0643203,14.903978 C23.0780704,14.7013813 23.0624106,14.4005977 23.0568246,14.3064213 C22.8635592,11.0608168 19.3759976,8.475 15.1020062,8.475 C10.7039775,8.475 7.13873729,11.2130294 7.13873729,14.5905639 C7.13873729,17.6950191 10.1507744,20.2591241 14.0529877,20.6535309 C14.2915616,20.6776397 14.4635812,20.8855837 14.4371313,21.1157465 L14.2709842,22.5595999 C14.2332669,22.8873503 14.5842765,23.1258106 14.8918874,22.9824486 C18.1887618,21.4462166 20.1601833,19.8657776 21.3374407,18.4965555 C21.5516654,18.2474006 22.2501994,17.3024562 22.3926181,17.0542694 C22.6949294,16.5273796 22.9033295,15.9615838 23.0013467,15.3692361 Z M10.7232181,15.8294234 L11.945211,15.8294234 C12.170178,15.8294234 12.3525579,16.0055143 12.3525579,16.2227239 C12.3525579,16.4399334 12.170178,16.6160243 11.945211,16.6160243 L10.3158712,16.6160243 C10.0909042,16.6160243 9.9085243,16.4399334 9.9085243,16.2227239 L9.9085243,13.2534253 C9.9085243,13.0362158 10.0909042,12.8601249 10.3158712,12.8601249 C10.5408382,12.8601249 10.7232181,13.0362158 10.7232181,13.2534253 L10.7232181,15.8294234 Z M13.235859,16.6160243 L13.057776,16.6160243 C12.8819848,16.6160243 12.7394706,16.4784245 12.7394706,16.3086949 L12.7394706,13.1674542 C12.7394706,12.9977247 12.8819848,12.8601249 13.057776,12.8601249 L13.235859,12.8601249 C13.4116503,12.8601249 13.5541644,12.9977247 13.5541644,13.1674542 L13.5541644,16.3086949 C13.5541644,16.4784245 13.4116503,16.6160243 13.235859,16.6160243 Z M16.5276249,13.2534253 C16.5276249,13.0362158 16.7100048,12.8601709 16.9349718,12.8601249 C17.1599388,12.8601249 17.3423187,13.0362158 17.3423187,13.2534253 L17.3423187,16.2063594 C17.3423187,16.4247674 17.1574084,16.6179604 16.9312,16.6159782 C16.824398,16.6150563 16.7276221,16.5743064 16.6555773,16.5084798 C16.6313236,16.486261 14.9798308,14.419728 14.9798308,14.419728 L14.9798308,16.2226778 C14.9798308,16.4398873 14.7974509,16.6159782 14.5724839,16.6159782 C14.3475169,16.6159782 14.165137,16.4398873 14.165137,16.2226778 L14.165137,13.2695593 C14.165137,13.0554844 14.3350559,12.8685145 14.5566331,12.8604014 C14.6837738,12.8557456 14.7983103,12.9075588 14.8760366,12.9917782 C14.9008632,13.0186989 16.5276249,15.0673923 16.5276249,15.0673923 L16.5276249,13.2534253 Z M20.3972772,13.2534253 C20.3972772,13.4706348 20.2148973,13.6467258 19.9899303,13.6466336 L18.7679373,13.6466336 L18.7679373,14.344728 L19.9899303,14.344728 C20.2148973,14.344728 20.3972772,14.5208189 20.3972772,14.7380285 C20.3972772,14.955238 20.2148973,15.1313289 19.9899303,15.1313289 L18.7679373,15.1313289 L18.7679373,15.8294234 L19.9899303,15.8294234 C20.2148973,15.8294234 20.3972772,16.0055143 20.3972772,16.2227239 C20.3972772,16.4399334 20.2148973,16.6160243 19.9899303,16.6160243 L18.3605904,16.6160243 C18.1356234,16.6160243 17.9532435,16.4399334 17.9532435,16.2227239 L17.9532435,13.2534253 C17.9532435,13.0362158 18.1356234,12.8601249 18.3605904,12.8601249 L19.9899303,12.8601249 C20.2148973,12.8601249 20.3972772,13.0362158 20.3972772,13.2534253 Z" id="Combined-Shape"></path>
        </g>
    </g>
</svg>