<?xml version="1.0" encoding="UTF-8"?>
<svg width="18px" height="9px" viewBox="0 0 18 9" version="1.1" xmlns="http://www.w3.org/2000/svg" xmlns:xlink="http://www.w3.org/1999/xlink">
    <!-- Generator: Sketch 51.3 (57544) - http://www.bohemiancoding.com/sketch -->
    <title>Shape</title>
    <desc>Created with Sketch.</desc>
    <defs></defs>
    <g id="設計立吞" stroke="none" stroke-width="1" fill="none" fill-rule="evenodd">
        <g id="設計立吞_我要報名" transform="translate(-609.000000, -1128.000000)" fill="#2A2A2A" fill-rule="nonzero">
            <g id="Group-15" transform="translate(226.000000, 1107.000000)">
                <g id="Group-7" transform="translate(165.000000, 0.000000)">
                    <g id="next" transform="translate(227.000000, 25.500000) rotate(-270.000000) translate(-227.000000, -25.500000) translate(222.500000, 16.500000)">
                        <path d="M8.861192,8.64116938 L0.82390251,0.149944989 C0.634663797,-0.0499816629 0.331167748,-0.0499816629 0.141929035,0.149944989 C-0.0473096783,0.34987164 -0.0473096783,0.670508723 0.141929035,0.870435375 L7.83644652,8.99952847 L0.141929035,17.1286216 C-0.0473096783,17.3285482 -0.0473096783,17.6491853 0.141929035,17.849112 C0.23476312,17.9471892 0.359732082,18 0.481130502,18 C0.602528921,18 0.727497883,17.9509614 0.820331968,17.849112 L8.85762146,9.35788757 C9.04686017,9.16173312 9.04686017,8.83732383 8.861192,8.64116938 Z" id="Shape"></path>
                    </g>
                </g>
            </g>
        </g>
    </g>
</svg>