<?xml version="1.0" encoding="UTF-8"?>
<svg width="497px" height="137px" viewBox="0 0 497 137" version="1.1" xmlns="http://www.w3.org/2000/svg" xmlns:xlink="http://www.w3.org/1999/xlink">
    <!-- Generator: Sketch 51.3 (57544) - http://www.bohemiancoding.com/sketch -->
    <title>Group 7 Copy 2</title>
    <desc>Created with Sketch.</desc>
    <defs></defs>
    <g id="設計立吞" stroke="none" stroke-width="1" fill="none" fill-rule="evenodd">
        <g id="Group-7-Copy-2">
            <g id="Group-5" transform="translate(0.000000, 19.000000)">
                <path d="M76.49,98.15 L69.47,98.15 L69.47,103.1 L58.31,103.1 L58.76,86.9 L58.76,82.4 L58.49,73.4 L59.03,72.77 L69.38,73.04 L76.04,73.04 L87.2,72.77 L87.83,73.4 L87.56,82.4 L87.56,87.17 L87.65,94.19 C91.16,92.93 94.58,91.67 97.82,89.96 C99.89,88.97 101.78,87.8 103.67,86.54 C100.43,83.03 97.64,78.89 95.03,74.21 L95.03,73.22 L102.68,68.72 L91.79,69.35 L91.25,68.63 L91.25,58.46 L91.79,57.92 L104.21,58.19 L123.29,58.19 L129.05,57.83 L134,62.51 C134.27,62.78 134.63,63.32 134.63,64.13 C134.63,64.49 134.54,64.94 134.36,65.39 C131.12,73.94 127.25,80.69 122.84,86 C127.97,88.43 134.27,90.23 142.1,91.31 L135.17,102.02 C134.72,102.65 134.18,102.92 133.37,102.92 C133.01,102.92 132.56,102.83 132.11,102.74 C124.64,100.67 118.61,98.15 113.48,94.82 C108.17,98.69 102.5,101.3 96.92,103.19 C96.2,103.46 95.66,103.55 95.3,103.55 C94.4,103.55 94.04,103.1 93.59,102.56 L87.74,95.54 L87.83,102.02 L76.49,102.02 L76.49,98.15 Z M76.49,88.79 L76.49,82.4 L69.47,82.4 L69.47,88.79 L76.49,88.79 Z M119.15,68.63 L105.29,68.63 C107.27,72.32 109.61,75.83 112.67,78.8 C115.46,75.65 117.62,72.23 119.15,68.63 Z M66.14,43.88 L55.79,44.15 L55.16,43.61 L55.16,34.16 L55.7,33.62 L66.14,33.89 L79.91,33.89 L90.62,33.62 L91.16,34.07 L91.16,43.7 L90.62,44.15 L79.91,43.88 L66.14,43.88 Z M69.65,30.47 L60.38,30.74 L59.75,30.2 L59.75,21.38 L60.29,20.84 L69.65,21.11 L76.94,21.11 L86.3,20.84 L86.84,21.29 L86.84,30.29 L86.3,30.74 L76.94,30.47 L69.65,30.47 Z M69.65,56.66 L60.38,56.93 L59.75,56.39 L59.75,47.57 L60.29,47.03 L69.65,47.3 L76.94,47.3 L86.3,47.03 L86.84,47.48 L86.84,56.48 L86.3,56.93 L76.94,56.66 L69.65,56.66 Z M69.65,69.44 L60.38,69.71 L59.75,69.17 L59.75,60.35 L60.29,59.81 L69.65,60.08 L76.94,60.08 L86.3,59.81 L86.84,60.26 L86.84,69.26 L86.3,69.71 L76.94,69.44 L69.65,69.44 Z M109.16,31.82 L109.16,33.89 C109.16,44.06 105.65,51.44 98.63,57.02 C98.18,57.38 97.91,57.56 97.64,57.56 C97.37,57.56 97.19,57.47 96.92,57.2 L88.46,49.73 C94.85,46.22 97.1,39.38 97.1,31.37 L97.1,21.83 L97.82,21.2 L106.37,21.47 L119.24,21.47 L126.8,21.2 L127.43,21.92 L127.43,41.54 C127.43,43.43 127.7,43.61 128.87,43.61 C131.48,43.61 131.93,43.16 132.38,34.34 L141.29,38.3 C142.19,38.75 142.19,38.93 142.19,39.83 C142.1,46.76 141.11,50.09 139.04,52.07 C136.25,54.68 134.27,55.22 126.26,55.22 C116.9,55.22 115.1,54.5 115.1,46.31 L115.28,35.69 L115.28,31.82 L109.16,31.82 Z M228.38,45.95 L232.43,45.95 L245.84,45.68 L246.38,46.13 L246.38,56.93 L245.84,57.38 L232.43,57.11 L228.38,57.11 L228.38,72.41 L228.83,103.91 L215.15,103.91 L215.6,72.41 L215.6,57.11 L211.19,57.11 L197.87,57.38 L197.24,56.84 L197.24,46.22 L197.78,45.68 L211.19,45.95 L215.6,45.95 L215.6,18.59 L216.23,17.96 L227.75,17.96 L228.38,18.59 L228.38,45.95 Z M183.47,98.06 L175.46,98.06 L175.46,102.74 L163.85,102.74 L164.3,86.54 L164.3,82.31 L164.03,73.31 L164.57,72.68 L174.92,72.95 L183.47,72.95 L194.63,72.68 L195.26,73.31 L194.99,82.31 L194.99,86.81 L195.44,101.66 L183.47,101.66 L183.47,98.06 Z M183.47,88.7 L183.47,82.31 L175.46,82.31 L175.46,88.7 L183.47,88.7 Z M170.78,43.79 L160.43,44.06 L159.8,43.52 L159.8,34.07 L160.34,33.53 L170.78,33.8 L187.25,33.8 L197.96,33.53 L198.5,33.98 L198.5,43.61 L197.96,44.06 L187.25,43.79 L170.78,43.79 Z M175.19,30.38 L165.92,30.65 L165.29,30.11 L165.29,21.29 L165.83,20.75 L175.19,21.02 L184.01,21.02 L193.37,20.75 L193.91,21.2 L193.91,30.2 L193.37,30.65 L184.01,30.38 L175.19,30.38 Z M175.19,56.57 L165.92,56.84 L165.29,56.3 L165.29,47.48 L165.83,46.94 L175.19,47.21 L184.01,47.21 L193.37,46.94 L193.91,47.39 L193.91,56.39 L193.37,56.84 L184.01,56.57 L175.19,56.57 Z M175.19,69.35 L165.92,69.62 L165.29,69.08 L165.29,60.26 L165.83,59.72 L175.19,59.99 L184.01,59.99 L193.37,59.72 L193.91,60.17 L193.91,69.17 L193.37,69.62 L184.01,69.35 L175.19,69.35 Z M300.53,33.35 L300.53,18.95 L301.16,18.23 L313.94,18.23 L314.57,18.86 L314.57,33.35 L330.32,33.35 L343.91,33.08 L344.54,33.71 L344.54,44.15 L343.91,44.78 L330.32,44.51 L285.5,44.51 L272,44.78 L271.37,44.06 L271.37,33.62 L272.09,33.08 L285.5,33.35 L300.53,33.35 Z M280.46,88.79 L310.61,88.79 C314.66,74.3 317.54,60.35 319.61,47.3 L320.51,46.85 L333.38,50.09 L333.83,50.99 C331.13,63.86 327.71,76.91 323.48,88.79 L335.81,88.79 L349.4,88.52 L350.03,89.15 L350.03,99.59 L349.4,100.22 L335.81,99.95 L280.46,99.95 L266.96,100.22 L266.33,99.5 L266.33,89.06 L267.05,88.52 L280.46,88.79 Z M303.23,81.32 L302.6,82.22 L290.81,86.09 L289.82,85.64 C287.93,74.03 284.96,62.6 281.09,52.34 L281.54,51.44 L293.06,47.48 L293.87,47.84 C297.92,58.46 301.25,69.98 303.23,81.32 Z M386.54,86.54 L386.54,75.02 C384.2,76.46 381.68,77.81 379.16,79.16 C378.62,79.43 378.17,79.61 377.81,79.61 C377.36,79.61 376.91,79.34 376.37,78.8 L368.63,70.07 C379.16,65.39 387.53,60.26 393.92,52.61 L387.17,52.61 L371.78,52.88 L371.15,52.25 L371.15,42.35 L371.78,41.72 L387.17,41.99 L400.49,41.99 C401.93,39.02 402.92,35.96 403.91,32.81 L394.01,32.81 L379.07,33.08 L378.44,32.45 L378.44,22.73 L379.07,22.1 L394.01,22.37 L432.44,22.37 L447.38,22.1 L448.01,22.73 L448.01,32.45 L447.38,33.08 L432.44,32.81 L417.86,32.81 C417.05,35.87 416.15,39.02 414.98,41.99 L439.01,41.99 L454.4,41.72 L455.03,42.35 L455.03,52.25 L454.4,52.88 L439.01,52.61 L431.63,52.61 C437.3,58.28 444.95,62.6 457.55,66.83 L450.98,77.99 C450.71,78.35 450.35,78.53 449.99,78.53 C449.63,78.53 449.18,78.44 448.73,78.26 C445.67,76.91 442.7,75.47 440,73.85 L440,86.27 L440.45,103.64 L427.22,103.64 L427.22,98.87 L398.96,98.87 L398.96,104.09 L386.09,104.09 L386.54,86.54 Z M397.88,66.83 L400.31,66.92 L426.14,66.92 L430.01,66.83 C425.15,62.69 420.92,57.92 417.23,52.61 L409.85,52.61 C406.61,58.01 402.56,62.69 397.88,66.83 Z M398.96,88.52 L427.22,88.52 L427.22,77.09 L398.96,77.09 L398.96,88.52 Z" id="設計立吞" fill="#FFFFFF"></path>
                <path d="M465.285156,94.1894531 C465.513022,93.2779902 465.789712,92.7001965 466.115234,92.4560547 C466.440757,92.2119128 467.010413,92.0898438 467.824219,92.0898438 L476.320312,92.0898438 C476.645835,92.0898438 476.938801,92.1793611 477.199219,92.3583984 C477.459637,92.5374358 477.589844,92.7571602 477.589844,93.0175781 C477.589844,93.1152349 477.56543,93.2617178 477.516602,93.4570312 C477.467773,93.6523447 477.394532,93.8639312 477.296875,94.0917969 L466.603516,116.210938 C466.408202,116.634117 466.164064,116.951496 465.871094,117.163086 C465.578124,117.374676 465.252606,117.480469 464.894531,117.480469 C464.829427,117.480469 464.739909,117.472331 464.625977,117.456055 C464.512044,117.439779 464.341147,117.382813 464.113281,117.285156 L461.378906,116.308594 C460.988279,116.145833 460.679038,115.942384 460.451172,115.698242 C460.223306,115.4541 460.109375,115.185548 460.109375,114.892578 C460.109375,114.762369 460.125651,114.607748 460.158203,114.428711 C460.190755,114.249674 460.239583,114.078777 460.304688,113.916016 L465.285156,94.1894531 Z M484.523438,94.1894531 C484.751303,93.2779902 485.019855,92.7001965 485.329102,92.4560547 C485.638348,92.2119128 486.199866,92.0898438 487.013672,92.0898438 L495.509766,92.0898438 C495.835288,92.0898438 496.111978,92.1793611 496.339844,92.3583984 C496.567709,92.5374358 496.681641,92.7571602 496.681641,93.0175781 C496.681641,93.1152349 496.657227,93.2617178 496.608398,93.4570312 C496.55957,93.6523447 496.486329,93.8639312 496.388672,94.0917969 L485.792969,116.210938 C485.597655,116.634117 485.361655,116.951496 485.084961,117.163086 C484.808267,117.374676 484.474611,117.480469 484.083984,117.480469 C484.01888,117.480469 483.9375,117.472331 483.839844,117.456055 C483.742187,117.439779 483.563152,117.382813 483.302734,117.285156 L480.617188,116.308594 C480.194008,116.145833 479.868491,115.942384 479.640625,115.698242 C479.412759,115.4541 479.298828,115.185548 479.298828,114.892578 C479.298828,114.63216 479.306966,114.428712 479.323242,114.282227 C479.339518,114.135741 479.363932,114.013672 479.396484,113.916016 L484.523438,94.1894531 Z" id="”" fill="#F6D44F"></path>
                <path d="M32.1875,23.7207031 C31.9596343,24.632166 31.6829443,25.2099597 31.3574219,25.4541016 C31.0318994,25.6982434 30.4785195,25.8203125 29.6972656,25.8203125 L21.1035156,25.8203125 C20.7454409,25.8203125 20.4524751,25.7389331 20.2246094,25.5761719 C19.9967437,25.4134106 19.8828125,25.2181001 19.8828125,24.9902344 C19.8828125,24.8925776 19.9153643,24.7460947 19.9804688,24.5507812 C20.0455732,24.3554678 20.1106768,24.1438813 20.1757812,23.9160156 L30.9179688,1.796875 C31.1783867,1.30859131 31.4388008,0.950521973 31.6992188,0.72265625 C31.9596367,0.494790527 32.2200508,0.380859375 32.4804688,0.380859375 C32.64323,0.380859375 32.8548164,0.413411133 33.1152344,0.478515625 C33.2128911,0.543620117 33.2779946,0.576171875 33.3105469,0.576171875 L36.09375,1.6015625 C36.484377,1.73177148 36.7854807,1.93521997 36.9970703,2.21191406 C37.2086599,2.48860815 37.3144531,2.78971191 37.3144531,3.11523438 C37.3144531,3.37565234 37.3063152,3.57910083 37.2900391,3.72558594 C37.2737629,3.87207104 37.2493491,3.99414014 37.2167969,4.09179688 L32.1875,23.7207031 Z M12.9980469,23.7207031 C12.7701812,24.632166 12.4934912,25.2099597 12.1679688,25.4541016 C11.8424463,25.6982434 11.2890664,25.8203125 10.5078125,25.8203125 L2.01171875,25.8203125 C1.6210918,25.8203125 1.30371216,25.7389331 1.05957031,25.5761719 C0.815428467,25.4134106 0.693359375,25.2181001 0.693359375,24.9902344 C0.693359375,24.8925776 0.717773193,24.7460947 0.766601562,24.5507812 C0.815429932,24.3554678 0.888671387,24.1438813 0.986328125,23.9160156 L11.6796875,1.796875 C11.9726577,1.30859131 12.2493477,0.950521973 12.5097656,0.72265625 C12.7701836,0.494790527 13.0631494,0.380859375 13.3886719,0.380859375 C13.5514331,0.380859375 13.7630195,0.413411133 14.0234375,0.478515625 C14.088542,0.543620117 14.1536455,0.576171875 14.21875,0.576171875 L16.9042969,1.6015625 C17.2949238,1.73177148 17.6123035,1.93521997 17.8564453,2.21191406 C18.1005872,2.48860815 18.2226562,2.78971191 18.2226562,3.11523438 C18.2226562,3.24544336 18.1982424,3.39192627 18.1494141,3.5546875 C18.1005857,3.71744873 18.0436201,3.8964834 17.9785156,4.09179688 L12.9980469,23.7207031 Z" id="“" fill="#F6D44F"></path>
            </g>
            <path d="M126.026,10.77 L129.338,10.356 C129.572,11.94 130.292,12.804 131.786,12.804 C132.632,12.804 133.262,12.372 133.262,11.472 C133.262,10.464 132.65,10.068 130.436,9.294 C127.88,8.394 126.566,7.152 126.566,5.01 C126.566,2.364 128.438,0.78 131.282,0.78 C134.162,0.78 135.926,2.22 136.322,4.902 L133.118,5.568 C132.992,3.876 132.326,2.994 131.138,2.994 C130.22,2.994 129.716,3.57 129.716,4.434 C129.716,5.388 130.382,5.892 132.398,6.54 C135.386,7.494 136.646,8.61 136.646,10.914 C136.646,13.524 134.756,15.198 131.588,15.198 C128.276,15.198 126.404,13.704 126.026,10.77 Z M148.626,0.96 L153.234,0.96 C156.564,0.96 158.364,2.436 158.364,5.586 C158.364,9.042 156.096,10.554 152.892,10.554 L151.776,10.554 L151.776,15 L148.626,15 L148.626,0.96 Z M151.776,8.214 L153.072,8.214 C154.224,8.214 155.034,7.494 155.034,5.766 C155.034,4.074 154.224,3.3 153.072,3.3 L151.776,3.3 L151.776,8.214 Z M173.584,12.57 L178.948,12.57 L178.948,15 L170.344,15 L170.344,0.96 L178.786,0.96 L178.786,3.39 L173.584,3.39 L173.584,6.72 L178.264,6.72 L178.264,9.06 L173.584,9.06 L173.584,12.57 Z M194.168,12.57 L199.532,12.57 L199.532,15 L190.928,15 L190.928,0.96 L199.37,0.96 L199.37,3.39 L194.168,3.39 L194.168,6.72 L198.848,6.72 L198.848,9.06 L194.168,9.06 L194.168,12.57 Z M211.512,0.96 L216.21,0.96 C220.098,0.96 222.528,3.102 222.528,7.818 C222.528,12.822 219.864,15 216.03,15 L211.512,15 L211.512,0.96 Z M214.752,12.66 L216.21,12.66 C217.992,12.66 219.216,11.4 219.216,7.98 C219.216,4.632 217.992,3.3 215.868,3.3 L214.752,3.3 L214.752,12.66 Z M245.38,0.96 L240.808,10.446 L240.808,15 L237.46,15 L237.46,10.446 L232.888,0.96 L236.488,0.96 L238.702,5.73 C238.936,6.234 239.134,6.756 239.332,7.278 C239.512,6.738 239.71,6.27 239.944,5.73 L241.96,0.96 L245.38,0.96 Z M271.104,0.96 L275.802,0.96 C279.69,0.96 282.12,3.102 282.12,7.818 C282.12,12.822 279.456,15 275.622,15 L271.104,15 L271.104,0.96 Z M274.344,12.66 L275.802,12.66 C277.584,12.66 278.808,11.4 278.808,7.98 C278.808,4.632 277.584,3.3 275.46,3.3 L274.344,3.3 L274.344,12.66 Z M297.52,12.57 L302.884,12.57 L302.884,15 L294.28,15 L294.28,0.96 L302.722,0.96 L302.722,3.39 L297.52,3.39 L297.52,6.72 L302.2,6.72 L302.2,9.06 L297.52,9.06 L297.52,12.57 Z M313.964,10.77 L317.276,10.356 C317.51,11.94 318.23,12.804 319.724,12.804 C320.57,12.804 321.2,12.372 321.2,11.472 C321.2,10.464 320.588,10.068 318.374,9.294 C315.818,8.394 314.504,7.152 314.504,5.01 C314.504,2.364 316.376,0.78 319.22,0.78 C322.1,0.78 323.864,2.22 324.26,4.902 L321.056,5.568 C320.93,3.876 320.264,2.994 319.076,2.994 C318.158,2.994 317.654,3.57 317.654,4.434 C317.654,5.388 318.32,5.892 320.336,6.54 C323.324,7.494 324.584,8.61 324.584,10.914 C324.584,13.524 322.694,15.198 319.526,15.198 C316.214,15.198 314.342,13.704 313.964,10.77 Z M339.894,0.96 L339.894,15 L336.564,15 L336.564,0.96 L339.894,0.96 Z M357.832,7.314 L363.628,7.314 C363.682,7.854 363.7,8.304 363.7,8.844 C363.7,12.876 361.738,15.198 358.12,15.198 C354.124,15.198 352.054,12.75 352.054,7.98 C352.054,3.534 354.322,0.78 357.958,0.78 C360.892,0.78 362.8,2.364 363.304,5.226 L359.956,5.982 C359.794,4.02 359.146,3.12 357.904,3.12 C356.338,3.12 355.474,4.794 355.474,7.854 C355.474,11.256 356.41,12.948 358.264,12.948 C359.686,12.948 360.388,11.85 360.406,9.564 L357.832,9.564 L357.832,7.314 Z M384.158,0.96 L387.074,0.96 L387.074,15 L382.394,15 L379.406,6.63 C379.064,5.694 378.812,4.722 378.596,3.75 L378.434,3.75 C378.668,6.054 378.776,9.294 378.776,11.256 L378.776,15 L375.86,15 L375.86,0.96 L380.54,0.96 L383.528,9.33 C383.87,10.266 384.14,11.238 384.356,12.21 L384.518,12.21 C384.284,9.888 384.158,7.422 384.158,5.082 L384.158,0.96 Z" id="SPEEDY-DESIGN" fill="#FFFFFF"></path>
        </g>
    </g>
</svg>