<?xml version="1.0" encoding="UTF-8"?>
<svg width="455px" height="455px" viewBox="0 0 455 455" version="1.1" xmlns="http://www.w3.org/2000/svg" xmlns:xlink="http://www.w3.org/1999/xlink">
    <!-- Generator: Sketch 63.1 (92452) - https://sketch.com -->
    <title>behance</title>
    <desc>Created with Sketch.</desc>
    <g id="Page-1" stroke="none" stroke-width="1" fill="none" fill-rule="evenodd">
        <g id="behance" fill="#FFFFFF" fill-rule="nonzero">
            <path d="M181.289,242.565 C175.692,238.319 168.227,236.207 159.044,236.207 L112.665,236.207 L112.665,289.563 L158.189,289.563 C162.4,289.563 166.394,289.19 170.152,288.349 C173.967,287.515 177.351,286.193 180.204,284.239 C183.057,282.36 185.42,279.784 187.138,276.508 C188.862,273.261 189.688,269.043 189.688,263.949 C189.688,253.961 186.879,246.873 181.289,242.565 Z" id="Path"></path>
            <path d="M174.606,201.654 C179.513,198.072 181.892,192.152 181.892,184.033 C181.892,179.524 181.102,175.798 179.513,172.907 C177.868,170.015 175.691,167.752 172.939,166.168 C170.209,164.519 167.126,163.38 163.548,162.766 C160.035,162.079 156.349,161.81 152.576,161.81 L112.663,161.81 L112.663,207.086 L155.831,207.086 C163.391,207.086 169.649,205.293 174.606,201.654 Z" id="Path"></path>
            <path d="M0,0 L0,455 L455,455 L455,0 L0,0 Z M275.636,141.802 L354.176,141.802 L354.176,160.922 L275.636,160.922 L275.636,141.802 Z M226.605,291.707 C222.812,298.911 217.646,304.748 211.279,309.253 C204.863,313.798 197.491,317.131 189.235,319.301 C181.073,321.471 172.595,322.563 163.915,322.563 L70,322.563 L70,128.804 L161.351,128.804 C170.62,128.804 178.983,129.605 186.628,131.262 C194.23,132.875 200.718,135.566 206.2,139.255 C211.596,142.945 215.821,147.852 218.845,154.035 C221.798,160.125 223.279,167.752 223.279,176.769 C223.279,186.523 221.066,194.67 216.64,201.183 C212.178,207.685 205.626,213.021 196.867,217.163 C208.794,220.59 217.625,226.626 223.48,235.208 C229.365,243.849 232.246,254.187 232.246,266.309 C232.246,276.134 230.363,284.595 226.605,291.707 Z M384.755,261.692 L283.518,261.692 C283.518,272.782 287.268,283.283 293.06,288.919 C298.829,294.556 307.171,297.39 317.977,297.39 C325.751,297.39 332.469,295.425 338.102,291.509 C343.685,287.597 347.083,283.415 348.398,279.072 L382.333,279.072 C376.88,295.96 368.603,308.016 357.315,315.274 C346.157,322.563 332.547,326.195 316.691,326.195 C305.64,326.195 295.696,324.406 286.765,320.882 C277.841,317.314 270.383,312.314 264.111,305.797 C257.996,299.248 253.247,291.51 249.863,282.417 C246.515,273.374 244.826,263.362 244.826,252.512 C244.826,242.022 246.579,232.221 250.006,223.164 C253.505,214.075 258.341,206.233 264.7,199.655 C271.073,193.041 278.631,187.821 287.433,184.01 C296.235,180.212 305.941,178.301 316.691,178.301 C328.56,178.301 338.957,180.585 347.867,185.238 C356.747,189.826 364.026,196.045 369.745,203.83 C375.464,211.601 379.531,220.489 382.075,230.458 C384.597,240.41 385.481,250.807 384.755,261.692 Z" id="Shape"></path>
            <path d="M315.534,207.398 C309.377,207.398 304.282,208.433 300.202,210.545 C296.214,212.629 292.945,215.222 290.445,218.276 C287.959,221.38 286.263,224.656 285.279,228.159 C284.288,231.572 283.699,234.669 283.519,237.407 L346.216,237.407 C345.296,227.581 341.933,220.317 337.335,215.209 C332.757,210.139 324.997,207.398 315.534,207.398 Z" id="Path"></path>
        </g>
    </g>
</svg>