<?xml version="1.0" encoding="UTF-8"?>
<svg width="40px" height="40px" viewBox="0 0 40 40" version="1.1" xmlns="http://www.w3.org/2000/svg" xmlns:xlink="http://www.w3.org/1999/xlink">
    <!-- Generator: Sketch 63.1 (92452) - https://sketch.com -->
    <title>icon_behance</title>
    <desc>Created with Sketch.</desc>
    <g id="APP" stroke="none" stroke-width="1" fill="none" fill-rule="evenodd">
        <g id="icon_behance" fill="#000000" fill-rule="nonzero">
            <path d="M15.9374945,21.3243956 C15.4454505,20.9511209 14.7891868,20.7654505 13.9818901,20.7654505 L9.90461538,20.7654505 L9.90461538,25.4560879 L13.9067253,25.4560879 C14.2769231,25.4560879 14.628044,25.4232967 14.9584176,25.3493626 C15.2938022,25.276044 15.5912967,25.1598242 15.8421099,24.988044 C16.0929231,24.8228571 16.3006593,24.5963956 16.4516923,24.3083956 C16.6032527,24.0229451 16.6758681,23.6521319 16.6758681,23.2043077 C16.6758681,22.3262418 16.4289231,21.7031209 15.9374945,21.3243956 Z" id="Path"></path>
            <path d="M15.349978,17.7278242 C15.7813626,17.4129231 15.9905055,16.8924835 15.9905055,16.1787253 C15.9905055,15.7823297 15.9210549,15.4547692 15.7813626,15.2006154 C15.6367473,14.9463736 15.4453626,14.7474286 15.2034286,14.6081758 C14.9634286,14.4632088 14.6923956,14.3630769 14.3778462,14.3090989 C14.069011,14.2487033 13.744967,14.2250549 13.4132747,14.2250549 L9.90443956,14.2250549 L9.90443956,18.2053626 L13.6994286,18.2053626 C14.364044,18.2053626 14.9141978,18.0477363 15.349978,17.7278242 Z" id="Path"></path>
            <path d="M0,0 L0,40 L40,40 L40,0 L0,0 Z M24.2317363,12.4661099 L31.1363516,12.4661099 L31.1363516,14.146989 L24.2317363,14.146989 L24.2317363,12.4661099 Z M19.9213187,25.6445714 C19.5878681,26.2778901 19.1337143,26.791033 18.573978,27.1870769 C18.0099341,27.5866374 17.3618462,27.8796484 16.636044,28.0704176 C15.9185055,28.2611868 15.1731868,28.3571868 14.4101099,28.3571868 L6.15384615,28.3571868 L6.15384615,11.3234286 L14.1847033,11.3234286 C14.9995604,11.3234286 15.7347692,11.3938462 16.4068571,11.5395165 C17.0751648,11.6813187 17.6455385,11.9178901 18.1274725,12.2421978 C18.6018462,12.5665934 18.9732747,12.997978 19.2391209,13.5415385 C19.4987253,14.0769231 19.6289231,14.7474286 19.6289231,15.5401319 C19.6289231,16.3976264 19.4343736,17.1138462 19.0452747,17.6864176 C18.653011,18.258022 18.077011,18.7271209 17.306989,19.0912527 C18.3555165,19.3925275 19.1318681,19.9231648 19.6465934,20.6776264 C20.163956,21.4372747 20.4172308,22.3461099 20.4172308,23.4117802 C20.4172308,24.2755165 20.2516923,25.0193407 19.9213187,25.6445714 Z M33.8246154,23.0058901 L24.9246593,23.0058901 C24.9246593,23.9808352 25.2543297,24.904 25.7635165,25.3994725 C26.2706813,25.895033 27.004044,26.1441758 27.954022,26.1441758 C28.6374505,26.1441758 29.228044,25.9714286 29.7232527,25.6271648 C30.2140659,25.2832527 30.5127912,24.9156044 30.6283956,24.5338022 L33.6116923,24.5338022 C33.1323077,26.0184615 32.4046593,27.0783297 31.4123077,27.7163956 C30.4313846,28.3571868 29.2349011,28.6764835 27.840967,28.6764835 C26.8694505,28.6764835 25.9952527,28.5192088 25.2101099,28.2094066 C24.4255824,27.8957363 23.7699341,27.4561758 23.2185495,26.8832527 C22.680967,26.3075165 22.2634725,25.6272527 21.965978,24.8278681 C21.6716484,24.0328791 21.5231648,23.1527033 21.5231648,22.1988571 C21.5231648,21.2766593 21.6772747,20.415033 21.9785495,19.6188132 C22.2861538,18.8197802 22.7112967,18.1303736 23.2703297,17.5520879 C23.8305934,16.9706374 24.495033,16.5117363 25.2688352,16.1767033 C26.0426374,15.8428132 26.8959121,15.6748132 27.840967,15.6748132 C28.8843956,15.6748132 29.7984176,15.8756044 30.5817143,16.2846593 C31.3623736,16.688 32.0022857,17.2347253 32.5050549,17.9191209 C33.0078242,18.6022857 33.3653626,19.3836484 33.589011,20.260044 C33.8107253,21.1349451 33.8884396,22.048967 33.8246154,23.0058901 Z" id="Shape"></path>
            <path d="M27.7392527,18.2327912 C27.197978,18.2327912 26.7500659,18.3237802 26.3913846,18.5094505 C26.0407912,18.6926593 25.7534066,18.9206154 25.5336264,19.1890989 C25.3150769,19.461978 25.165978,19.749978 25.0794725,20.0579341 C24.9923516,20.357978 24.9405714,20.6302418 24.9247473,20.8709451 L30.4365714,20.8709451 C30.3556923,20.0071209 30.060044,19.3685275 29.6558242,18.9194725 C29.2533626,18.4737582 28.5711648,18.2327912 27.7392527,18.2327912 Z" id="Path"></path>
        </g>
    </g>
</svg>