<?xml version="1.0" encoding="UTF-8"?>
<svg width="40px" height="40px" viewBox="0 0 40 40" version="1.1" xmlns="http://www.w3.org/2000/svg" xmlns:xlink="http://www.w3.org/1999/xlink">
    <!-- Generator: Sketch 63.1 (92452) - https://sketch.com -->
    <title>Combined Shape</title>
    <desc>Created with Sketch.</desc>
    <g id="APP" stroke="none" stroke-width="1" fill="none" fill-rule="evenodd">
        <path d="M20,0 C31.045695,0 40,8.954305 40,20 C40,31.045695 31.045695,40 20,40 C8.954305,40 0,31.045695 0,20 C0,8.954305 8.954305,0 20,0 Z M23.7902561,10.3592 C23.5101284,10.0712323 23.0558341,10.0707499 22.7752363,10.3577156 L22.7752363,10.3577156 L14.2109818,19.1214703 C14.0760533,19.2597023 14,19.4472523 14,19.6428922 C14,19.8385322 14.0758363,20.0263049 14.2109818,20.164277 L14.2109818,20.164277 L22.7752724,28.9278091 C22.9154447,29.0711621 23.0986886,29.1428571 23.2821856,29.1428571 C23.4661528,29.1428571 23.6501199,29.0706797 23.7905454,28.9263247 C24.0704199,28.6383571 24.0696966,28.1722279 23.7890988,27.8850024 L23.7890988,27.8850024 L15.7343252,19.6428922 L23.7888095,11.400745 C24.0694435,11.1135566 24.0701667,10.6471306 23.7902561,10.3592 Z" id="Combined-Shape" fill="#000000"></path>
    </g>
</svg>