<?xml version="1.0" encoding="UTF-8"?>
<svg width="38px" height="38px" viewBox="0 0 38 38" version="1.1" xmlns="http://www.w3.org/2000/svg" xmlns:xlink="http://www.w3.org/1999/xlink">
    <!-- Generator: Sketch 63.1 (92452) - https://sketch.com -->
    <title>Combined Shape Copy 2</title>
    <desc>Created with Sketch.</desc>
    <g id="APP" stroke="none" stroke-width="1" fill="none" fill-rule="evenodd">
        <path d="M38,0 L38,38 L0,38 L0,0 L38,0 Z M21.8594688,20.1349844 L19.4502812,22.4502812 L19.3631084,22.5244469 C19.2409769,22.6123469 19.0970594,22.6562969 18.9531719,22.6562969 C18.7733125,22.6562969 18.5933594,22.587625 18.4560625,22.4502812 L18.4560625,22.4502812 L16.140625,20.1348906 L8.20534375,28.0696562 L8.3738065,28.142224 C8.6029,28.2301 8.8495375,28.28125 9.109375,28.28125 L9.109375,28.28125 L28.890625,28.28125 L29.0828946,28.2718952 C29.3357631,28.2472487 29.5743156,28.1751062 29.7943281,28.0698437 L29.7943281,28.0698437 L21.8594688,20.1349844 Z M30.788875,11.206 L22.8537344,19.1407187 L30.7885937,27.0755781 L30.861106,26.9071585 C30.94891,26.67814 31,26.4316375 31,26.171875 L31,26.171875 L31,12.109375 L30.9906655,11.9172025 C30.96607,11.664445 30.8940625,11.4259375 30.788875,11.206 L30.788875,11.206 Z M7.21140625,11.2056719 C7.07982812,11.4806875 7,11.7846719 7,12.109375 L7,12.109375 L7,26.171875 L7.00934425,26.3640572 C7.03396375,26.6168387 7.10603125,26.8554062 7.21121875,27.0753437 L7.21121875,27.0753437 L15.1463594,19.140625 Z M28.890625,10 L9.109375,10 L8.91710537,10.0093547 C8.66423688,10.0340012 8.42568437,10.1061438 8.20567187,10.2114062 L8.20567187,10.2114062 L18.953125,20.9588594 L21.3619844,18.6438438 L21.3624531,18.6433281 L29.7946563,10.2115938 L29.6261935,10.139026 C29.3971,10.05115 29.1504625,10 28.890625,10 L28.890625,10 Z" id="Combined-Shape-Copy-2" fill="#FFFFFF"></path>
    </g>
</svg>