<?xml version="1.0" encoding="UTF-8"?>
<svg width="440px" height="133px" viewBox="0 0 440 133" version="1.1" xmlns="http://www.w3.org/2000/svg" xmlns:xlink="http://www.w3.org/1999/xlink">
    <!-- Generator: Sketch 51.3 (57544) - http://www.bohemiancoding.com/sketch -->
    <title>Group 10 Copy 2</title>
    <desc>Created with Sketch.</desc>
    <defs>
        <filter x="-1.3%" y="-2.8%" width="102.5%" height="108.7%" filterUnits="objectBoundingBox" id="filter-1">
            <feOffset dx="0" dy="2" in="SourceAlpha" result="shadowOffsetOuter1"></feOffset>
            <feGaussianBlur stdDeviation="1.5" in="shadowOffsetOuter1" result="shadowBlurOuter1"></feGaussianBlur>
            <feColorMatrix values="0 0 0 0 0   0 0 0 0 0   0 0 0 0 0  0 0 0 0.4 0" type="matrix" in="shadowBlurOuter1" result="shadowMatrixOuter1"></feColorMatrix>
            <feMerge>
                <feMergeNode in="shadowMatrixOuter1"></feMergeNode>
                <feMergeNode in="SourceGraphic"></feMergeNode>
            </feMerge>
        </filter>
        <polygon id="path-2" points="0.00148996207 0.381 126.674341 0.381 126.674341 127 0.00148996207 127"></polygon>
    </defs>
    <g id="總監操刀" stroke="none" stroke-width="1" fill="none" fill-rule="evenodd">
        <g id="Group-10-Copy-2" filter="url(#filter-1)" transform="translate(3.000000, 1.000000)">
            <g id="Group-3">
                <mask id="mask-3" fill="white">
                    <use xlink:href="#path-2"></use>
                </mask>
                <g id="Clip-2"></g>
                <path d="M104.313735,84.3033471 C119.582121,87.2542294 126.674341,95.1767882 126.674341,103.906171 C126.674341,110.084347 123.061183,112.904494 118.907913,112.904494 C115.428852,112.904494 112.750645,111.025641 112.214259,106.457376 C111.011114,96.2525529 109.133762,89.8054353 103.643252,85.2446412 L104.313735,84.3033471 Z M84.2253211,34.8891412 C83.4281914,36.3608471 82.4857903,37.8400235 81.4167426,39.3192 C83.9608528,40.3949647 86.3708664,41.6014647 88.6467835,43.0769059 C89.5854596,40.3949647 90.3900391,37.7055529 90.9227006,34.8891412 L84.2253211,34.8891412 Z M81.6849357,73.6913765 C96.5473074,75.4357588 102.440107,81.0797882 102.440107,88.3299941 C102.440107,92.6255824 99.3596108,95.5802 95.6123562,95.5802 C92.2636664,95.5802 90.1181211,94.2354941 89.451363,90.2088471 C88.2444938,82.1518176 85.8344801,77.9907 81.0144528,74.7671412 L81.6849357,73.6913765 Z M71.2403016,66.9790529 C76.8649084,62.4145235 81.4167426,57.0394353 84.895804,51.1339353 C83.0221767,48.3137882 80.7462596,45.7663176 78.336246,43.3421118 C75.6580391,46.5656706 72.7116391,49.3858176 69.3629494,51.8062882 L68.5583699,51.1339353 C70.7039152,47.5069647 72.443446,43.6147882 73.7844118,39.5844059 C72.443446,38.5123765 70.9721084,37.4366118 69.3629494,36.4990529 L70.0334323,35.4232882 C71.6425914,35.8229647 73.1176538,36.2301118 74.719363,36.7642588 C75.5239426,33.8096412 76.1944255,30.8550235 76.8649084,27.7659353 C77.4012948,25.3529353 77.665763,23.4703471 77.4012948,21.7259647 L78.4703426,21.1918176 C89.7195562,24.4153765 91.3249903,25.3529353 91.3249903,26.8283765 C91.3249903,28.0386118 90.5204108,28.7109647 87.3095426,28.9724353 C86.7731562,30.1901412 86.2367699,31.2584353 85.7003835,32.3342 L89.9840245,32.3342 C93.4668108,27.9041412 94.5395835,26.8283765 95.3404381,26.8283765 C96.1450176,26.8283765 97.4859835,27.5007294 100.56648,30.3208765 C103.911445,33.2754941 104.581928,34.2167882 104.581928,35.2925529 C104.581928,36.2301118 103.777348,36.8987294 101.099142,37.5748176 C99.627804,41.7359353 97.8845484,45.3591706 95.7427279,48.7172 C98.8232245,51.8062882 100.432384,55.0298471 100.432384,58.1152 C100.432384,62.4145235 97.3518869,64.2933765 94.6736801,64.2933765 C92.397763,64.2933765 90.788604,63.0831412 89.3172664,59.4636412 C89.0490733,58.9182882 88.7808801,58.2459353 88.5126869,57.7117882 C83.9608528,62.1418471 78.4703426,65.5036118 71.7766879,68.0548176 L71.2403016,66.9790529 Z M105.252411,68.7271706 L105.252411,20.5194647 L70.4357221,20.5194647 C70.0334323,21.1918176 69.2325777,21.7259647 67.7575152,22.2675824 L67.7575152,68.7271706 L105.252411,68.7271706 Z M67.8916118,98.2658765 L67.8916118,88.4644647 C67.8916118,84.0306706 67.4893221,82.0210824 66.4202743,79.8695529 L67.2211289,78.9282588 C83.1562733,80.8108471 86.2367699,82.2862882 86.2367699,84.0306706 C86.2367699,85.7787882 85.0299006,86.7163471 81.5508391,87.6576412 L81.5508391,109.277524 C81.5508391,111.9632 81.5508391,111.9632 86.6353347,111.9632 C92.5281347,111.9632 96.9458723,111.152641 99.627804,106.991524 C101.769624,103.7717 103.777348,99.3379059 105.252411,95.3112588 L106.593377,95.7184059 C106.321459,99.4761118 106.187362,103.7717 106.187362,105.923229 C106.187362,107.663876 106.723748,109.680935 108.060989,110.887435 C109.401955,112.093935 110.072438,113.576847 110.072438,115.586435 C110.072438,118.679259 108.735197,121.230465 104.850121,122.840376 C100.96877,124.584759 96.4132108,125.257112 85.3018187,125.257112 C70.4357221,125.257112 67.6234187,123.912406 67.6234187,113.304171 L67.8916118,98.2658765 Z M67.7575152,71.6780529 C67.7575152,76.3770529 64.6770187,78.3903765 58.5160255,78.3903765 C54.2361094,78.3903765 53.5619016,77.8562294 53.5619016,73.8295824 L54.5005777,39.9915529 L54.5005777,21.9911706 C54.5005777,16.4853471 54.0982879,14.7447 53.1633367,12.5969059 L54.0982879,11.6556118 C64.6770187,15.0099059 68.8302879,16.6235529 70.1675289,18.1027294 L73.6503152,18.1027294 C74.3207982,13.6689353 74.8571845,8.30131765 74.9875562,4.67434706 C74.9875562,3.86752353 74.9875562,3.0607 74.8571845,1.32005294 L75.9262323,0.509494118 C91.1946187,3.73678824 94.1372938,5.20849412 94.1372938,7.08734706 C94.1372938,8.96993529 92.397763,9.64228824 88.9149767,10.1801706 C85.9723016,13.1310529 82.7539835,15.9512 79.945405,18.1027294 L103.51288,18.1027294 C107.662424,12.0590235 108.999665,10.5798471 110.072438,10.5798471 C111.279307,10.5798471 112.750645,11.1214647 117.972962,15.4170529 C123.463472,19.8471118 123.999859,20.9228765 123.999859,22.3983176 C123.999859,23.8700235 122.658893,25.0839941 119.4443,26.4287 L119.4443,40.2567588 L120.382976,69.3957882 C120.382976,74.8978765 117.038011,76.7804647 109.804245,76.7804647 C105.788797,76.7804647 105.252411,75.9773765 105.252411,72.6156118 L105.252411,71.1439059 L67.7575152,71.1439059 L67.7575152,71.6780529 Z M59.8569914,86.3129353 C63.2056811,92.3566412 64.4088255,97.0593765 64.4088255,103.103082 C64.4088255,113.972788 58.9183152,118.406582 53.1633367,118.406582 C49.2782606,118.406582 46.4659572,115.855376 46.4659572,111.152641 C46.4659572,106.991524 48.7418743,104.847465 51.8223709,102.5652 C56.5083016,99.0689647 58.653847,95.4457294 58.653847,86.5818765 L59.8569914,86.3129353 Z M35.0863719,77.7180235 C46.6000538,82.1518176 52.2246606,88.0610529 52.2246606,96.6559647 C52.2246606,101.354965 49.144164,104.709259 44.9946197,104.709259 C41.9141231,104.709259 39.5041094,102.964876 39.2359163,98.3966118 C38.6995299,88.0610529 37.6267572,82.9623765 34.2817924,78.6593176 L35.0863719,77.7180235 Z M24.906206,58.5223471 C29.4617651,58.1152 34.1476958,57.8499941 38.6995299,57.4465824 C37.8949504,53.5506706 36.5577094,49.9274353 34.0135992,46.8346118 C31.2012958,50.8687294 28.1207992,54.7571706 24.906206,58.5223471 Z M19.8179855,0.378758824 C33.4772128,4.67434706 36.8259026,6.42246471 36.8259026,8.43205294 C36.8259026,10.0457 35.6227582,10.8487882 31.8680538,11.2522 C27.7222343,17.8300529 23.4348685,23.7392882 19.2853241,28.5690235 C22.630289,31.5311118 24.3735446,35.1543471 24.3735446,39.1809941 C24.3735446,44.8250235 21.0248548,47.7759059 17.0056821,47.7759059 C13.6607173,47.7759059 11.3848002,46.0315235 10.7143173,41.7359353 C9.50744799,33.9478471 7.09743434,26.8283765 1.33873092,23.0669353 L2.00921386,21.9911706 C6.56104799,22.5290529 10.5802207,23.7392882 13.791089,25.2184647 C15.8025377,18.6406118 17.2738753,12.5969059 18.4807446,6.55693529 C19.013406,3.59858235 19.1512275,2.51908235 18.8793094,1.04737647 L19.8179855,0.378758824 Z M33.4772128,65.0964647 C36.4236128,65.9032882 37.2281924,66.5756412 37.2281924,67.5132 C37.2281924,69.1268471 36.0213231,69.9336706 33.6113094,71.0019647 L33.6113094,86.1822 L34.2817924,120.558112 C34.2817924,125.395318 29.8603299,127.001494 23.7030616,127.001494 C19.955807,127.001494 19.2853241,126.463612 19.2853241,122.171759 L20.2202753,87.1234941 C19.683889,87.3887 19.013406,87.5194353 18.2088265,87.7958471 C14.1971036,100.010259 9.3733514,110.215082 1.20835924,119.217141 L0.269683135,118.541053 C3.08198655,108.067288 5.08971044,96.3870235 5.89428996,85.5098471 C6.02466164,83.3620529 6.02466164,81.4794647 5.4920002,79.3316706 L6.43067631,78.5285824 C13.6607173,80.4074353 17.9443582,81.4794647 20.2202753,82.5552294 L20.2202753,70.3333471 C16.7412139,71.5473176 13.3925241,72.7538176 9.77564116,73.8295824 C8.17020703,74.3674647 7.09743434,74.6326706 6.29657972,74.6326706 C5.4920002,74.6326706 4.5533241,74.0985235 4.15103434,72.8845529 C2.67597188,68.9923765 1.20835924,64.5660529 0.00148996207,60.1322588 L0.66824799,59.0564941 C4.15103434,59.1872294 7.09743434,59.1872294 10.5802207,59.0564941 C13.1243309,59.0564941 15.6684412,58.9182882 18.0784548,58.7912882 C24.1016265,47.6451706 29.0594753,35.5577588 32.9408265,22.9324647 C33.6113094,20.7846706 34.0135992,18.3716706 34.0135992,16.0856706 L35.0863719,15.4170529 C49.4123572,21.3262882 51.9564675,22.8017294 51.9564675,24.9457882 C51.9564675,26.6901706 50.2169367,27.6314647 46.197764,28.0386118 C42.7149777,33.9478471 38.9677231,39.8533471 35.0863719,45.3591706 C45.7991992,49.1168765 52.4891289,54.7571706 52.4891289,64.5660529 C52.4891289,70.0644059 49.4123572,72.8845529 45.3969094,72.8845529 C42.0482197,72.8845529 40.1708675,71.0019647 39.9063992,66.8408471 C39.7723026,65.2384059 39.6344811,63.7554941 39.5041094,62.2800529 L33.4772128,65.0964647 Z" id="Fill-1" fill="#FFFFFF" mask="url(#mask-3)"></path>
            </g>
            <path d="M224.927389,84.4754468 L219.439838,84.4754468 C219.175512,85.9490026 218.371366,86.7490392 216.092953,87.2848777 L216.092953,119.520771 L224.927389,119.520771 L224.927389,84.4754468 Z M208.330712,52.369792 C215.694603,53.1698286 220.243984,53.4414689 226.803729,53.4414689 L232.957678,53.4414689 C240.183822,43.405661 241.393763,42.3414262 242.458512,42.3414262 C243.668454,42.3414262 246.077168,43.8075398 250.488802,47.4244495 C255.440255,51.5697554 256.244401,53.0395901 256.244401,54.111267 C256.244401,55.443421 255.574279,55.8490209 253.563915,55.8490209 L226.803729,55.8490209 C220.378008,55.8490209 215.694603,56.1169402 209.536931,56.9206979 L208.330712,52.369792 Z M237.909132,26.4188373 C245.269299,16.2527908 246.60582,15.0508754 247.815761,15.0508754 C249.02198,15.0508754 250.75685,15.9885927 256.918245,21.0716159 C261.065553,24.5508449 261.735674,25.3471604 261.735674,26.8169951 C261.735674,28.4282316 260.927806,28.8301104 258.653115,28.8301104 L223.724893,28.8301104 C216.897099,39.3980357 208.732785,47.4244495 199.902073,53.4414689 L198.963903,52.5074727 C207.396265,39.7924724 211.677597,27.3565546 215.024482,9.6924907 C215.556856,6.88305984 215.828628,3.80943085 215.556856,1.67351919 L216.766798,1 C234.431945,6.22442506 238.445229,8.49801745 238.445229,10.369731 C238.445229,12.6433234 236.170538,13.44336 231.621158,13.9791984 C229.614516,18.3924236 227.47385,22.5377295 225.195437,26.4188373 L237.909132,26.4188373 Z M201.372617,84.4754468 L196.28714,84.4754468 C196.019091,85.9490026 195.218668,86.7490392 192.943978,87.2848777 L192.943978,119.520771 L201.372617,119.520771 L201.372617,84.4754468 Z M178.487968,119.520771 L178.487968,84.4754468 L173.134441,84.4754468 C172.870116,85.2792045 171.931945,85.815043 170.055605,86.48112 L170.055605,119.520771 L178.487968,119.520771 Z M156.135692,66.815104 L166.306648,66.815104 L166.306648,49.8320015 L156.135692,49.8320015 L156.135692,66.815104 Z M156.139415,47.4244495 L184.511615,47.4244495 L184.511615,31.3679009 L156.139415,31.3679009 L156.139415,47.4244495 Z M159.080504,13.3094004 C158.682154,13.8452388 157.878008,14.3810773 156.135692,15.0508754 L156.135692,28.9603489 L166.310371,28.9603489 L166.310371,13.3094004 L159.080504,13.3094004 Z M188.792947,10.9055695 C194.816595,2.6075154 195.751042,1.93771732 196.689213,1.93771732 C197.895431,1.93771732 199.634024,2.87543464 203.915356,6.62630391 C207.794615,10.0980906 208.330712,10.9055695 208.330712,11.9698042 C208.330712,12.7735619 207.664314,13.3094004 205.657672,13.3094004 L182.236925,13.3094004 C181.965154,14.5150369 181.298755,14.9169158 179.828211,15.5829927 L179.828211,28.9603489 L183.305397,28.9603489 C187.184656,23.6094065 188.394597,22.2735314 189.597093,22.2735314 C190.799589,22.2735314 192.675929,23.2075276 196.153115,25.7527603 C200.706219,29.0905874 201.506642,30.1622644 201.506642,30.9660221 C201.506642,32.1716586 201.108292,32.4395779 198.293781,34.1736107 L198.293781,37.258403 L198.56183,50.6320381 C198.56183,53.4414689 196.421164,55.443421 189.865142,55.443421 C184.775941,55.443421 184.511615,55.0489843 184.511615,52.1055939 L184.511615,49.8282804 L182.370949,49.8282804 C182.099178,51.298115 181.566804,51.8376746 179.828211,52.5074727 L179.828211,66.815104 L189.727395,66.815104 C195.751042,58.5244922 196.689213,57.8584152 197.627383,57.8584152 C198.829878,57.8584152 200.572194,58.7961325 204.853526,62.5358385 C208.732785,66.0150674 209.268883,66.815104 209.268883,67.8867809 C209.268883,68.6942597 208.598761,69.2263771 206.592119,69.2263771 L156.135692,69.2263771 L156.135692,69.7584945 C156.135692,74.5773196 153.592953,77.9188678 145.432362,77.9188678 C141.947731,77.9188678 141.15103,77.6509486 141.281332,73.1074849 L142.085478,34.7094492 L142.085478,18.7980235 C142.085478,11.035808 141.817429,7.96217898 140.614933,5.28670774 L141.549381,4.35271152 C152.926555,7.69053864 157.341911,9.6924907 158.812455,10.9055695 L188.792947,10.9055695 Z M155.067221,87.6867565 C155.067221,81.5320564 154.802895,78.7226255 153.998749,76.5867138 L154.933196,75.6489965 C166.042322,78.9905447 170.591702,80.8622583 172.334018,82.0678948 L222.786723,82.0678948 C227.8722,75.3773562 228.810371,74.3131215 230.280915,74.3131215 C231.621158,74.3131215 233.091702,75.109437 238.713277,79.258464 C244.468877,83.5414506 245.946867,85.4131642 245.946867,86.6150796 C245.946867,88.3565546 245.269299,89.0226316 240.987968,91.1659855 L240.987968,119.520771 L241.922415,119.520771 C248.080087,108.684926 249.286306,107.620692 250.224476,107.620692 C251.158923,107.620692 252.23484,108.022571 257.852692,114.03959 C261.329878,117.786738 262,119.126334 262,120.32825 C262,121.396206 261.195854,121.932044 258.924887,121.932044 L170.993775,121.932044 C159.348553,121.932044 145.160591,122.199963 138.202496,123 L137,118.456536 C141.415356,118.850973 147.975101,119.256573 155.067221,119.390533 L155.067221,87.6867565 Z" id="Fill-4" fill="#FFFFFF"></path>
            <path d="M335.26259,56.0513718 L335.26259,45.0199459 L330.146125,45.0199459 C329.876837,45.2912105 329.428025,45.5624751 328.709924,45.8337396 L328.709924,56.0513718 L335.26259,56.0513718 Z M328.709924,58.7640176 C328.709924,60.9341341 326.376098,61.9325385 323.051144,61.9325385 C320.900583,61.9325385 320.45177,61.5670848 320.45177,59.3969682 L320.81082,49.179336 L320.81082,45.468286 C320.81082,43.0306724 320.631295,41.7610035 320.08898,40.2276052 L320.717318,39.685076 C326.645386,41.6743495 328.979212,42.6652187 329.876837,43.3923585 L334.634252,43.3923585 C337.416891,39.9563406 338.138732,39.3233899 338.76707,39.3233899 C339.48143,39.3233899 340.020005,39.685076 342.712882,41.7610035 C345.405758,43.8444661 345.854571,44.4774168 345.854571,45.200789 C345.854571,45.8337396 345.495521,46.4666903 343.520745,47.5517486 L343.520745,50.8069235 L343.969557,58.4023315 C343.969557,61.0245556 342.178046,61.8383494 338.224754,61.8383494 C335.711403,61.8383494 335.26259,61.4766633 335.26259,59.5815788 L335.26259,57.6789593 L328.709924,57.6789593 L328.709924,58.7640176 Z M325.927285,33.98852 L325.927285,21.3257391 L312.732191,21.3257391 C312.552666,21.7778467 312.010351,22.0491113 310.753675,22.5916404 L310.753675,33.98852 L325.927285,33.98852 Z M308.599374,56.0513718 L308.599374,45.0199459 L303.482909,45.0199459 C303.217361,45.2912105 302.768548,45.5624751 302.046708,45.8337396 L302.046708,56.0513718 L308.599374,56.0513718 Z M310.753675,35.9777935 C310.753675,38.7808608 308.419849,40.0467621 304.021484,40.0467621 C301.332348,40.0467621 300.883535,39.5946545 300.883535,37.0590843 L301.332348,26.8452196 L301.332348,22.0491113 C301.332348,19.2460441 301.149082,17.8897212 300.610507,16.0812907 L301.238845,15.4483401 C309.317474,17.7088782 311.924328,18.7939364 312.638688,19.7019192 L324.850135,19.7019192 C328.261112,15.7196046 329.158737,15 329.876837,15 C330.864225,15 332.569714,15.9908692 335.26259,18.1609858 C338.404279,20.6927884 339.215882,21.5970037 339.215882,22.5049865 C339.215882,23.4958557 338.404279,24.4038385 335.890928,25.6697398 L335.890928,28.378618 L336.339741,34.7985462 C336.339741,37.8766455 334.005915,39.2292008 329.428025,39.2292008 C326.376098,39.2292008 325.927285,38.8675147 325.927285,36.6107442 L325.927285,35.6161074 L310.753675,35.6161074 L310.753675,35.9777935 Z M302.046708,60.6666371 C302.046708,62.8329861 299.892407,63.8276229 296.750718,63.8276229 C294.596416,63.8276229 294.147604,63.5563583 294.147604,61.2995878 L294.510394,49.179336 L294.510394,45.468286 C294.510394,43.0306724 294.327129,41.7610035 293.788554,40.2276052 L294.416891,39.685076 C300.071932,41.6743495 302.409498,42.6652187 303.217361,43.3923585 L308.154301,43.3923585 C310.847178,39.8621515 311.382013,39.3233899 312.010351,39.3233899 C312.732191,39.3233899 313.450291,39.7754975 315.963643,41.7610035 C318.383491,43.6636231 319.011829,44.4774168 319.011829,45.200789 C319.011829,45.8337396 318.383491,46.4666903 316.412455,47.5517486 L316.412455,50.1702052 L316.771506,57.9502238 C316.771506,60.572448 315.15578,61.3862417 311.561538,61.3862417 C309.048186,61.3862417 308.599374,61.0245556 308.599374,59.1257036 L308.599374,57.6789593 L302.046708,57.6789593 L302.046708,60.6666371 Z M307.077151,71.6076415 C300.969557,71.6076415 295.942855,71.7884846 290.557102,72.3272461 L289.749239,69.2529143 C295.404279,69.8896326 300.70401,69.9762865 307.077151,69.9762865 L312.821954,69.9762865 L312.821954,68.7103852 C312.821954,64.8222597 312.821954,63.8276229 312.010351,62.4713 L312.638688,61.8383494 C323.499957,63.1042507 325.38871,64.0084659 325.38871,65.1839457 C325.38871,66.269004 324.580847,66.9019547 322.247021,67.8061699 L322.247021,69.9762865 L333.198052,69.9762865 C338.138732,63.1946722 338.76707,62.5654891 339.48143,62.5654891 C340.19953,62.5654891 340.738106,62.7425646 344.41837,65.8168964 C347.739584,68.5333097 348.457685,69.2529143 348.457685,70.2513186 C348.457685,71.0613448 347.922849,71.6076415 346.396886,71.6076415 L323.862747,71.6076415 C328.350874,78.4759098 338.045229,83.1815966 349,85.8000532 L348.816735,86.888879 C345.944333,88.1547804 343.520745,90.7770046 341.635731,94.3938655 C341.007393,95.5693453 340.55858,95.9310314 339.84422,95.9310314 C339.12238,95.9310314 338.224754,95.5693453 337.237366,94.8459731 C329.876837,89.9632109 325.209185,82.0061168 322.336784,71.6076415 L322.067496,71.6076415 L323.051144,95.8406099 C323.051144,98.8282878 320.272245,100 315.604593,100 C312.821954,100 312.373141,99.6383139 312.373141,96.7448251 L313.087501,81.6444307 C306,89.2398387 295.404279,95.0268162 285.350874,97.4681973 L284.991824,96.7448251 C293.429503,92.2237489 303.217361,82.6390674 308.154301,71.6076415 L307.077151,71.6076415 Z M286.158737,90.4153185 C286.158737,96.0214529 280.234409,100 274.755154,100 C272.335305,100 272.241802,99.6383139 271.976255,97.6490404 C271.437679,93.9417579 270.809342,92.1333274 263.35531,89.9632109 L263.35531,88.9648065 C266.85979,89.0589956 269.279638,89.0589956 271.886492,88.7839635 C274.938419,88.4260449 275.746282,87.6989052 275.746282,84.5379194 L275.746282,66.9019547 C273.861268,68.2582776 271.886492,69.618368 270.001479,70.7900802 C269.642428,70.9709233 268.744803,71.4230309 268.29599,71.4230309 C267.753675,71.4230309 267.21884,71.1555339 266.945812,70.5225832 C265.513351,67.719516 264.256676,64.2834981 263,61.1149772 L263.179525,60.2107619 C265.962164,59.6682328 267.93694,59.1257036 271.164652,58.2214884 C272.694355,57.7693808 274.220318,57.3172732 275.746282,56.9555871 L275.746282,38.5962502 C270.356789,38.5962502 267.488127,38.8675147 264.342698,39.3233899 L263.534835,36.2490581 C266.945812,36.6973982 270.181004,36.9724303 275.746282,36.9724303 L275.746282,24.3096494 C275.746282,19.1556225 275.476994,17.3471921 274.669131,15.9042152 L275.297469,15.2712646 C285.530399,16.4429768 288.941376,17.6184566 288.941376,18.9747795 C288.941376,20.1502593 288.313038,20.8736315 285.350874,21.8720358 L285.350874,36.9724303 L286.068975,36.9724303 C290.108289,30.3716591 290.736627,29.8253624 291.54823,29.8253624 C292.083065,29.8253624 292.890928,30.2812375 295.134992,32.7226187 C298.276681,36.1586366 298.725494,36.9724303 298.725494,37.5149594 C298.725494,38.3287532 298.276681,38.5962502 296.930243,38.5962502 L285.350874,38.5962502 L285.350874,53.8812553 C287.953988,52.97704 290.736627,51.8015602 293.788554,50.4452374 L294.327129,51.3494526 C291.275202,54.7854705 288.941376,57.2268516 285.440637,60.2107619 L286.158737,90.4153185 Z" id="Fill-6" fill="#FFFFFF"></path>
            <path d="M398.510973,55.7553389 C398.331755,57.1080143 397.525271,58.0097979 395.736818,58.2803329 C394.747382,79.2017122 391.883617,92.4616885 384.979965,103.733983 C377.990438,115.186635 367.774975,122.761617 352.537656,127 L352,126.188395 C362.756853,120.150202 370.642473,111.579501 375.929424,98.864352 C380.947546,86.8668728 383.00856,73.8811891 383.187779,55.7553389 L381.485202,55.7553389 C371.534833,55.7553389 364.993352,55.9356956 357.649121,56.4767658 L356.842637,53.4107015 C364.45943,53.9517717 371.269739,54.128371 381.485202,54.128371 L416.167744,54.128371 C420.200164,49.1685612 421.633913,48 422.440397,48 C423.33649,48 424.68063,48.8078478 429.075221,52.508918 C433.372735,56.2062307 434,57.2846136 434,58.3705113 C434,59.3624732 433.10764,60.3544352 429.609143,61.8874673 C429.075221,78.390107 428.085785,97.6920333 424.77024,110.948252 C423.515709,115.99824 421.185866,120.507158 417.511884,123.306445 C414.461433,125.651082 409.174483,126.909822 405.948547,126.909822 C403.980876,126.909822 403.532829,126.639287 403.084783,124.839477 C401.916128,119.785731 399.407067,116.900024 391.704399,114.825922 L391.704399,113.743781 C394.120117,113.924138 396.629178,114.014316 398.873145,114.014316 C401.471815,114.014316 403.887533,113.924138 405.769329,113.743781 C409.353702,113.292889 411.597669,111.579501 412.852199,105.717907 C415.715964,92.4616885 417.063838,77.8490369 417.691103,55.7553389 L398.510973,55.7553389 Z" id="Fill-8" fill="#FFFFFF"></path>
        </g>
    </g>
</svg>