<?xml version="1.0" encoding="UTF-8"?>
<svg width="64px" height="486px" viewBox="0 0 64 486" version="1.1" xmlns="http://www.w3.org/2000/svg" xmlns:xlink="http://www.w3.org/1999/xlink">
    <!-- Generator: Sketch 51.3 (57544) - http://www.bohemiancoding.com/sketch -->
    <title>Direct Work!</title>
    <desc>Created with Sketch.</desc>
    <defs></defs>
    <g id="總監操刀" stroke="none" stroke-width="1" fill="none" fill-rule="evenodd" fill-opacity="0.2">
        <g id="總監操刀-copy" transform="translate(-1301.000000, -879.000000)" fill="#555555">
            <path d="M1108.36427,1149.78443 L1113.05138,1149.78443 C1125.34545,1149.78443 1132.26087,1140.35689 1132.26087,1124.33772 C1132.26087,1107.85868 1125.34545,1098.89102 1113.58925,1098.89102 L1108.36427,1098.89102 C1108.13375,1106.63234 1108.13375,1114.60359 1108.13375,1122.72814 L1108.13375,1125.25749 C1108.13375,1133.99521 1108.13375,1141.96647 1108.36427,1149.78443 Z M1090,1095.9018 L1114.74182,1095.9018 C1132.64506,1095.9018 1143.55605,1106.47904 1143.55605,1124.26108 C1143.55605,1142.11976 1131.79984,1152.77365 1113.35874,1152.77365 L1090,1152.77365 L1090,1150.09102 L1097.2996,1149.4012 C1097.45328,1141.81317 1097.45328,1133.91856 1097.45328,1125.25749 L1097.45328,1122.72814 C1097.45328,1114.83353 1097.45328,1107.09222 1097.2996,1099.3509 L1090,1098.66108 L1090,1095.9018 Z M1160.76775,1102.03353 C1157.46372,1102.03353 1154.69755,1099.65749 1154.69755,1096.36168 C1154.69755,1092.91257 1157.46372,1090.61317 1160.76775,1090.61317 C1164.07178,1090.61317 1166.83794,1092.91257 1166.83794,1096.36168 C1166.83794,1099.65749 1164.07178,1102.03353 1160.76775,1102.03353 Z M1166.22324,1149.78443 L1171.37138,1150.3976 L1171.37138,1152.77365 L1150.24095,1152.77365 L1150.24095,1150.3976 L1155.85012,1149.70778 C1155.92696,1145.33892 1156.00379,1138.97725 1156.00379,1134.76168 L1156.00379,1129.31976 C1156.00379,1124.41437 1155.92696,1121.5018 1155.77328,1117.66946 L1149.54941,1117.05629 L1149.54941,1114.98683 L1165.14751,1110.61796 L1166.22324,1111.30778 L1166.06957,1123.26467 L1166.06957,1134.76168 C1166.06957,1138.97725 1166.1464,1145.41557 1166.22324,1149.78443 Z M1191.88711,1111.30778 L1192.57866,1121.96168 C1195.03747,1114.60359 1200.18561,1110.54132 1204.79589,1110.54132 C1208.02308,1110.54132 1210.78925,1111.84431 1211.7113,1115.44671 C1211.48079,1118.89581 1210.02087,1121.27186 1206.40949,1121.27186 C1203.87383,1121.27186 1202.26024,1119.81557 1200.33929,1117.59281 L1199.49407,1116.67305 C1196.26688,1119.2024 1194.19225,1122.57485 1192.57866,1127.94012 L1192.57866,1134.76168 C1192.57866,1138.9006 1192.65549,1145.10898 1192.73233,1149.47784 L1199.80142,1150.3976 L1199.80142,1152.77365 L1176.6732,1152.77365 L1176.6732,1150.3976 L1182.28237,1149.70778 C1182.35921,1145.33892 1182.43605,1138.97725 1182.43605,1134.76168 L1182.43605,1129.24311 C1182.43605,1124.26108 1182.35921,1121.5018 1182.1287,1117.82275 L1176.0585,1117.20958 L1176.0585,1115.29341 L1190.81138,1110.61796 L1191.88711,1111.30778 Z M1224.4664,1129.24311 L1237.60569,1129.24311 C1241.14024,1129.24311 1241.98545,1127.48024 1241.98545,1123.57126 C1241.98545,1117.36287 1238.68142,1113.37725 1233.99431,1113.37725 C1229.15352,1113.37725 1224.92743,1118.05269 1224.4664,1129.24311 Z M1251.05233,1132.07904 L1224.4664,1132.07904 C1224.77375,1143.80599 1230.61344,1148.94132 1238.06672,1148.94132 C1243.59905,1148.94132 1246.90308,1146.64192 1249.59241,1143.03952 L1251.12917,1144.11257 C1248.05565,1150.3976 1242.21597,1154 1234.60901,1154 C1222.54545,1154 1213.78593,1146.18204 1213.78593,1132.23234 C1213.78593,1118.43593 1223.92854,1110.54132 1234.68585,1110.54132 C1245.21265,1110.54132 1251.5902,1117.66946 1251.5902,1127.32695 C1251.5902,1129.31976 1251.43652,1130.77605 1251.05233,1132.07904 Z M1284.93787,1119.73892 L1283.7853,1113.76048 C1282.7864,1113.45389 1281.78751,1113.37725 1280.78862,1113.37725 C1273.48901,1113.37725 1268.34087,1119.96886 1268.34087,1131.38922 C1268.34087,1142.50299 1273.95004,1148.94132 1282.24854,1148.94132 C1286.85881,1148.94132 1290.54704,1146.87186 1293.3132,1143.19281 L1294.9268,1144.03593 C1291.77644,1150.3976 1286.24411,1154 1278.17613,1154 C1266.5736,1154 1257.73723,1146.02874 1257.73723,1132.38563 C1257.73723,1118.51257 1267.72617,1110.54132 1279.55921,1110.54132 C1287.70403,1110.54132 1293.77423,1115.44671 1294.9268,1122.03832 C1294.23526,1124.49102 1292.77534,1125.64072 1290.4702,1125.64072 C1287.55036,1125.64072 1285.39889,1124.03114 1284.93787,1119.73892 Z M1325.73881,1147.1018 L1327.1219,1148.55808 C1324.8936,1152.00719 1321.28221,1154 1316.05723,1154 C1308.98814,1154 1305.06941,1150.5509 1305.06941,1142.73293 C1305.06941,1140.28024 1305.14625,1138.13413 1305.14625,1135.06826 L1305.14625,1114.98683 L1298.53818,1114.98683 L1298.53818,1112.45749 L1305.68411,1111.69102 L1308.98814,1099.65749 L1315.59621,1099.65749 L1315.36569,1111.76766 L1325.5083,1111.76766 L1325.5083,1114.98683 L1315.28885,1114.98683 L1315.28885,1143.34611 C1315.28885,1147.63832 1317.2098,1149.4012 1320.28332,1149.4012 C1322.28111,1149.4012 1323.66419,1148.63473 1325.73881,1147.1018 Z M1429.16269,1095.9018 L1429.16269,1098.66108 L1421.93992,1099.65749 L1406.95652,1153.08024 L1401.42419,1153.08024 L1387.74704,1109.31497 L1374.53091,1153.08024 L1368.92174,1153.08024 L1353.2468,1099.27425 L1347.33028,1098.66108 L1347.33028,1095.9018 L1371.84158,1095.9018 L1371.84158,1098.66108 L1364.3883,1099.42754 L1375.14561,1140.28024 L1387.28601,1099.58084 L1379.60221,1098.66108 L1379.60221,1095.9018 L1403.57565,1095.9018 L1403.57565,1098.66108 L1395.27715,1099.58084 L1407.26387,1140.58683 L1417.94435,1099.65749 L1410.49107,1098.66108 L1410.49107,1095.9018 L1429.16269,1095.9018 Z M1446.91225,1154 C1435.00237,1154 1426.16601,1145.87545 1426.16601,1132.15569 C1426.16601,1118.43593 1435.69391,1110.54132 1446.91225,1110.54132 C1458.05375,1110.54132 1467.6585,1118.35928 1467.6585,1132.15569 C1467.6585,1145.9521 1458.66846,1154 1446.91225,1154 Z M1446.91225,1151.16407 C1453.13613,1151.16407 1456.82435,1144.95569 1456.82435,1132.23234 C1456.82435,1119.58563 1453.13613,1113.37725 1446.91225,1113.37725 C1440.5347,1113.37725 1437.00016,1119.58563 1437.00016,1132.23234 C1437.00016,1144.95569 1440.5347,1151.16407 1446.91225,1151.16407 Z M1488.78893,1111.30778 L1489.48047,1121.96168 C1491.93929,1114.60359 1497.08743,1110.54132 1501.69771,1110.54132 C1504.9249,1110.54132 1507.69107,1111.84431 1508.61312,1115.44671 C1508.38261,1118.89581 1506.92269,1121.27186 1503.3113,1121.27186 C1500.77565,1121.27186 1499.16206,1119.81557 1497.24111,1117.59281 L1496.39589,1116.67305 C1493.1687,1119.2024 1491.09407,1122.57485 1489.48047,1127.94012 L1489.48047,1134.76168 C1489.48047,1138.9006 1489.55731,1145.10898 1489.63415,1149.47784 L1496.70324,1150.3976 L1496.70324,1152.77365 L1473.57502,1152.77365 L1473.57502,1150.3976 L1479.18419,1149.70778 C1479.26103,1145.33892 1479.33787,1138.97725 1479.33787,1134.76168 L1479.33787,1129.24311 C1479.33787,1124.26108 1479.26103,1121.5018 1479.03051,1117.82275 L1472.96032,1117.20958 L1472.96032,1115.29341 L1487.7132,1110.61796 L1488.78893,1111.30778 Z M1551.41186,1149.78443 L1556.63684,1150.3976 L1556.63684,1152.77365 L1542.03763,1152.77365 L1530.28142,1130.62275 L1525.90166,1134.76168 C1525.90166,1139.28383 1525.9785,1145.41557 1526.13217,1149.78443 L1531.58767,1150.3976 L1531.58767,1152.77365 L1509.99621,1152.77365 L1509.99621,1150.3976 L1515.75905,1149.70778 C1515.83589,1145.26228 1515.91273,1139.05389 1515.91273,1134.76168 L1515.91273,1095.9018 L1509.68885,1095.44192 L1509.68885,1093.29581 L1525.13328,1090 L1526.20901,1090.68982 L1525.90166,1102.87665 L1525.90166,1131.15928 L1542.03763,1115.29341 L1534.66119,1114.22036 L1534.66119,1111.76766 L1554.48538,1111.76766 L1554.48538,1114.22036 L1546.80158,1115.06347 L1537.27368,1124.10778 L1551.41186,1149.78443 Z M1569.62245,1154 C1566.08791,1154 1563.2449,1151.16407 1563.2449,1147.63832 C1563.2449,1144.11257 1566.08791,1141.27665 1569.62245,1141.27665 C1573.23383,1141.27665 1576,1144.11257 1576,1147.63832 C1576,1151.16407 1573.23383,1154 1569.62245,1154 Z M1569.62245,1094.82874 C1573.46435,1094.82874 1575.84632,1096.97485 1575.84632,1101.11377 C1575.84632,1104.71617 1574.84743,1111.0012 1572.38862,1122.34491 L1570.85186,1133.84192 L1568.46988,1133.84192 L1566.85628,1122.34491 C1564.47431,1111.0012 1563.47542,1104.71617 1563.47542,1101.11377 C1563.47542,1096.97485 1565.78055,1094.82874 1569.62245,1094.82874 Z" id="Direct-Work!" transform="translate(1333.000000, 1122.000000) rotate(-270.000000) translate(-1333.000000, -1122.000000) "></path>
        </g>
    </g>
</svg>