<?xml version="1.0" encoding="UTF-8"?>
<svg width="704px" height="61px" viewBox="0 0 704 61" version="1.1" xmlns="http://www.w3.org/2000/svg" xmlns:xlink="http://www.w3.org/1999/xlink">
    <!-- Generator: Sketch 51.3 (57544) - http://www.bohemiancoding.com/sketch -->
    <title>Group 5 Copy</title>
    <desc>Created with Sketch.</desc>
    <defs>
        <path d="M6.51,8.33 L8.01,8.9 C7.89,9.17 7.62,9.38 7.05,9.47 L7.05,27.71 C7.02,27.95 5.7,28.61 4.47,28.61 L3.87,28.61 L3.87,12.71 C2.94,14 1.95,15.11 0.87,16.1 L0.48,15.86 C2.55,12.05 4.56,6.14 5.46,0.47 L10.14,1.43 C10.02,1.82 9.69,2.12 9.03,2.15 C8.31,4.37 7.47,6.44 6.51,8.33 Z M21.63,20.9 L16.35,20.9 C15.9,21.38 15.39,21.86 14.85,22.31 C15.96,23.03 17.25,23.6 18.75,24.02 C19.92,23.09 20.88,22.07 21.63,20.9 Z M23.64,18.32 L26.64,21.02 C26.4,21.29 26.1,21.38 25.38,21.44 C24.48,22.7 23.4,23.78 22.08,24.68 C24.12,24.98 26.43,25.1 29.01,25.13 L28.98,25.49 C27.78,25.94 27.09,26.93 26.94,28.43 C23.37,28.1 20.61,27.53 18.48,26.6 C15.78,27.65 12.54,28.31 8.82,28.67 L8.67,28.25 C11.58,27.65 14.25,26.75 16.47,25.55 C15.42,24.89 14.55,24.11 13.74,23.18 C12.36,24.23 10.77,25.16 9.09,25.79 L8.82,25.49 C10.17,24.41 11.43,22.94 12.45,21.47 C12.03,20.84 11.64,20.18 11.28,19.46 L11.58,19.01 C11.97,19.64 12.42,20.24 12.93,20.75 C13.5,19.85 13.98,18.95 14.28,18.14 L18.78,18.98 C18.69,19.34 18.39,19.52 17.49,19.58 C17.37,19.73 17.25,19.91 17.1,20.06 L21.75,20.06 L23.64,18.32 Z M12.36,13.34 L12.84,13.37 C13.5,15.83 12.78,17.63 11.82,18.35 C11.16,18.83 9.96,18.83 9.6,18.02 C9.3,17.27 9.72,16.61 10.44,16.19 C11.25,15.74 12.27,14.51 12.36,13.34 Z M13.71,13.1 L17.13,13.43 C17.07,13.82 16.8,14.06 16.29,14.15 L16.29,16.01 C16.29,16.31 16.35,16.4 17.1,16.4 L21.09,16.4 C21.39,16.4 21.57,16.34 21.72,16.19 C21.93,15.92 22.26,15.29 22.56,14.48 L22.92,14.48 L23.01,16.22 C23.76,16.49 23.94,16.7 23.94,17.09 C23.94,18.17 22.92,18.35 18.99,18.35 L16.47,18.35 C14.07,18.35 13.71,17.84 13.71,16.25 L13.71,13.1 Z M17.25,12.95 L17.52,12.74 C23.01,13.46 20.97,17.42 18.9,15.92 C18.72,14.9 17.91,13.64 17.25,12.95 Z M15.21,10.43 L15.21,11.75 L21.9,11.75 L21.9,10.43 L15.21,10.43 Z M21.9,5.93 L15.21,5.93 L15.21,7.31 L21.9,7.31 L21.9,5.93 Z M21.9,9.56 L21.9,8.18 L15.21,8.18 L15.21,9.56 L21.9,9.56 Z M26.79,10.22 L29.43,12.8 C29.22,13.07 28.89,13.1 28.29,13.13 C27.72,13.55 26.85,14.12 26.07,14.57 C28.65,16.28 27.12,19.04 25.14,17.81 C24.78,16.37 23.43,14.6 22.2,13.64 L22.5,13.4 C23.49,13.52 24.33,13.73 24.99,14 C25.11,13.55 25.26,13.07 25.35,12.62 L11.19,12.62 C11.31,14.12 10.86,15.26 10.17,15.74 C9.45,16.22 8.16,16.07 7.8,15.14 C7.47,14.27 8.01,13.52 8.82,13.1 C9.54,12.62 10.29,11.39 10.17,10.31 L10.62,10.31 C10.83,10.82 10.95,11.3 11.07,11.75 L11.97,11.75 L11.97,3.71 L15.6,5.09 L16.65,5.09 C16.71,4.52 16.77,3.86 16.77,3.26 L10.02,3.26 L9.78,2.39 L23.58,2.39 L25.44,0.29 C25.44,0.29 27.51,1.73 28.83,2.78 C28.74,3.11 28.41,3.26 27.99,3.26 L20.1,3.26 C19.38,3.92 18.54,4.58 17.79,5.09 L21.63,5.09 L23.19,3.47 L26.31,5.81 C26.13,6.02 25.74,6.23 25.2,6.35 L25.2,11.75 L25.26,11.75 L26.79,10.22 Z M31.89,28.67 L31.77,28.25 C35.55,27.14 39.75,24.92 41.73,23.15 L45.42,25.85 C45.12,26.15 44.55,26.24 43.65,26 C40.86,27.29 36.18,28.34 31.89,28.67 Z M46.26,24.41 L46.35,24.02 C63.15,24.17 56.88,30.44 53.7,28.07 C52.32,26.93 49.83,25.43 46.26,24.41 Z M39.84,21.8 L50.64,21.8 L50.64,19.31 L39.84,19.31 L39.84,21.8 Z M50.64,16.01 L39.84,16.01 L39.84,18.44 L50.64,18.44 L50.64,16.01 Z M50.64,12.8 L39.84,12.8 L39.84,15.17 L50.64,15.17 L50.64,12.8 Z M54.27,5.54 L55.92,3.53 C55.92,3.53 57.72,4.91 58.86,5.93 C58.8,6.26 58.47,6.41 58.05,6.41 L54.39,6.41 L54.39,10.13 C54.36,10.22 53.73,10.61 52.62,10.76 L55.26,12.74 C55.08,12.95 54.72,13.19 54.18,13.31 L54.18,23 C54.15,23.21 52.38,23.87 51.24,23.87 L50.64,23.87 L50.64,22.61 L39.84,22.61 L39.84,23.42 C39.84,23.75 38.34,24.53 36.9,24.53 L36.39,24.53 L36.39,10.49 L40.08,11.96 L50.34,11.96 L51.42,10.82 L51.12,10.82 L51.12,6.41 L48.93,6.41 C48.63,8.18 47.43,10.28 43.35,11.48 L43.14,11.09 C45.3,9.56 45.84,7.7 45.93,6.02 C45.81,6.29 45.54,6.41 45.15,6.41 L42.12,6.41 L42.12,10.22 C42.09,10.37 41.16,10.91 39.54,10.91 L38.97,10.91 L38.97,6.41 L36.69,6.41 C36.48,8.39 35.49,10.91 31.41,12.35 L31.17,11.96 C33.48,9.98 33.69,7.46 33.69,5.42 L33.69,1.82 L37.08,2.81 C39,2.06 41.04,1.13 42.21,0.47 L44.94,3.26 C44.58,3.53 44.01,3.5 43.23,3.17 C41.61,3.41 39.09,3.68 36.75,3.77 L36.75,5.54 L41.58,5.54 L43.14,3.65 C43.14,3.65 44.85,4.94 45.93,5.9 C45.96,5.63 45.96,5.39 45.96,5.12 L45.96,1.79 L49.11,2.66 C51.15,1.97 53.28,1.07 54.51,0.47 L57.27,3.29 C56.91,3.59 56.28,3.56 55.56,3.2 C53.88,3.44 51.39,3.65 49.05,3.77 L49.05,5.54 L54.27,5.54 Z M84.75,5.27 L75.84,5.27 L75.84,15.32 L84.75,15.32 L84.75,9.32 C84.54,9.41 84.3,9.41 84,9.35 C83.64,9.95 83.22,10.49 82.8,11 C84.87,13.34 83.91,15.11 82.35,14.24 C82.08,13.7 81.69,13.13 81.24,12.53 C79.89,13.67 78.39,14.51 76.89,15.11 L76.56,14.69 C77.82,13.82 79.02,12.59 80.1,11.15 C79.68,10.7 79.26,10.22 78.84,9.8 C78.06,10.58 77.22,11.21 76.35,11.69 L75.96,11.39 C76.56,10.67 77.16,9.71 77.67,8.63 C77.13,8.09 76.59,7.64 76.11,7.22 L76.44,6.95 C77.04,7.19 77.58,7.43 78.06,7.67 C78.36,6.92 78.6,6.14 78.81,5.36 L82.05,6.53 C81.93,6.86 81.57,7.13 80.91,7.07 C80.58,7.61 80.25,8.15 79.86,8.63 C80.34,8.9 80.76,9.2 81.15,9.47 C81.51,8.81 81.84,8.12 82.11,7.4 L84.75,8.72 L84.75,5.27 Z M73.44,18.17 L72.93,18.17 L72.93,3.14 L76.2,4.43 L77.61,4.43 C77.88,3.29 78.24,1.64 78.45,0.53 L82.77,1.37 C82.65,1.82 82.26,2.06 81.6,2.06 C80.88,2.72 79.77,3.68 78.9,4.43 L84.6,4.43 L86.07,2.72 L88.98,4.97 C88.77,5.21 88.47,5.42 87.78,5.54 L87.78,16.82 C87.78,16.97 86.76,17.57 85.26,17.57 L84.75,17.57 L84.75,16.16 L75.84,16.16 L75.84,17.39 C75.84,17.6 74.94,18.17 73.44,18.17 Z M62.4,19.91 L61.14,16.31 C61.14,16.31 61.89,16.13 62.19,15.92 C63.6,14.87 65.31,12.8 66.78,10.67 C65.76,11.09 64.62,11.54 63.39,11.99 C63.18,12.32 62.91,12.53 62.64,12.65 L61.14,9.05 C61.14,9.05 61.77,8.9 62.04,8.72 C63.54,7.22 65.49,2.9 66.06,0.59 L70.08,2.63 C69.96,2.9 69.6,3.11 69.09,3.05 C67.77,4.97 65.43,7.52 63.36,9.2 C64.59,9.2 66.12,9.2 67.74,9.17 C68.4,8.06 68.97,6.98 69.3,6.14 L72.93,8.63 C72.78,8.87 72.36,9.05 71.76,8.93 C70.08,11.09 66.81,14.21 63.87,16.28 C65.43,16.19 67.47,16.04 69.54,15.92 C69.27,14.9 68.85,13.91 68.46,13.19 L68.79,13.01 C75,15.8 72.24,20.48 69.96,18.32 C69.96,17.81 69.87,17.3 69.75,16.76 C68.1,17.48 65.79,18.41 63.21,19.31 C62.97,19.64 62.67,19.85 62.4,19.91 Z M78.99,17.27 L79.32,17.09 C86.13,19.52 82.89,24.65 80.43,22.22 C80.55,20.54 79.83,18.56 78.99,17.27 Z M63.42,20.18 L63.87,20.18 C65.04,23.3 64.83,25.67 63.96,26.84 C63.3,27.65 61.71,27.68 61.17,26.63 C60.72,25.73 61.14,24.8 61.98,24.23 C62.7,23.48 63.6,21.65 63.42,20.18 Z M65.94,19.82 L66.33,19.73 C71.43,23.39 68.07,27.68 66.09,25.19 C66.45,23.42 66.27,21.32 65.94,19.82 Z M73.23,19.58 L73.68,19.58 C74.82,22.49 74.46,24.68 73.53,25.64 C72.87,26.3 71.43,26.24 70.95,25.28 C70.62,24.44 71.01,23.63 71.73,23.15 C71.22,23.45 70.5,23.42 69.87,22.82 C69.96,21.59 69.48,20.18 68.94,19.28 L69.27,19.13 C72.42,20.06 72.84,21.77 72.21,22.7 C72.84,21.95 73.38,20.66 73.23,19.58 Z M85.08,21.35 L85.17,24.62 C85.95,24.95 86.13,25.31 86.13,25.88 C86.13,27.14 84.93,27.77 80.88,27.77 L78.33,27.77 C75.69,27.77 75.24,27.17 75.24,25.13 L75.24,18.53 L79.23,18.86 C79.17,19.25 78.9,19.52 78.33,19.61 L78.33,24.41 C78.33,24.77 78.45,24.86 79.17,24.86 L82.92,24.86 C83.28,24.83 83.4,24.77 83.55,24.53 C83.82,24.11 84.24,22.85 84.72,21.35 L85.08,21.35 Z M84.6,19.34 L84.93,19.16 C91.86,21.95 88.95,27.17 86.4,24.86 C86.31,23 85.44,20.81 84.6,19.34 Z M106.14,12.14 L105.75,11.9 C107.16,9.11 108.15,4.55 108.54,0.77 L113.13,1.88 C113.07,2.24 112.74,2.51 112.08,2.51 C111.75,3.56 111.33,4.67 110.82,5.75 L113.88,5.75 L115.74,3.35 C115.74,3.35 117.81,4.97 119.07,6.14 C118.98,6.47 118.65,6.62 118.23,6.62 L110.37,6.62 C109.29,8.75 107.85,10.73 106.14,12.14 Z M113.52,13.55 L115.29,11.21 C115.29,11.21 117.3,12.83 118.47,13.94 C118.41,14.27 118.08,14.42 117.66,14.42 L106.95,14.42 L106.71,13.55 L113.52,13.55 Z M98.28,19.31 L98.28,26.87 L100.59,26.87 L100.59,19.31 L98.28,19.31 Z M95.97,3.47 L95.97,6.74 L98.19,6.74 L98.19,3.47 L95.97,3.47 Z M102.42,7.58 L95.97,7.58 L95.97,11.12 L102.42,11.12 L102.42,7.58 Z M98.19,15.68 L98.19,11.99 L95.97,11.99 L95.97,15.68 L98.19,15.68 Z M106.17,19.31 L103.8,19.31 L103.8,26.87 L106.17,26.87 L106.17,19.31 Z M111.69,19.31 L109.38,19.31 L109.38,26.87 L111.69,26.87 L111.69,19.31 Z M115.2,26.87 L116.58,24.71 C116.58,24.71 118.2,26.24 119.07,27.26 C118.98,27.59 118.74,27.74 118.32,27.74 L91.23,27.74 L90.96,26.87 L94.98,26.87 L94.98,17.54 L92.01,16.13 C92.19,15.89 92.49,15.62 92.79,15.38 L92.79,0.92 L96.36,2.6 L102.03,2.6 L103.68,0.47 C103.68,0.47 105.57,1.94 106.71,2.99 C106.62,3.32 106.29,3.47 105.87,3.47 L101.16,3.47 L101.16,6.74 L102.18,6.74 L103.5,5.36 L106.26,7.43 C106.11,7.58 105.81,7.79 105.36,7.88 L105.36,11.96 C105.33,12.2 103.86,12.74 102.93,12.74 L102.42,12.74 L102.42,11.99 L101.16,11.99 L101.16,15.68 L102.63,15.68 L104.28,13.49 C104.28,13.49 106.14,14.99 107.25,16.04 C107.16,16.37 106.86,16.52 106.44,16.52 L96.15,16.52 L95.55,17.3 L98.55,18.44 L111.39,18.44 L112.89,16.58 L116.52,19.04 C116.31,19.34 115.95,19.52 115.14,19.64 L115.14,26.87 L115.2,26.87 Z M143.01,26.81 L144.99,24.29 C144.99,24.29 147.18,25.97 148.53,27.17 C148.44,27.5 148.14,27.65 147.69,27.65 L122.4,27.65 L122.16,26.81 L133.08,26.81 L133.08,20.39 L125.34,20.39 L125.1,19.55 L133.08,19.55 L133.08,13.82 L126.45,13.82 L126.21,12.95 L138.78,12.95 L140.55,10.76 C140.55,10.76 142.56,12.26 143.82,13.34 C143.73,13.67 143.4,13.82 142.98,13.82 L136.77,13.82 L136.77,19.55 L140.79,19.55 L142.65,17.18 C142.65,17.18 144.72,18.8 146.01,19.91 C145.95,20.24 145.62,20.39 145.2,20.39 L136.77,20.39 L136.77,26.81 L143.01,26.81 Z M135.99,0.53 L139.08,2.57 C138.75,2.96 137.79,3.23 136.56,3.29 C138.78,6.05 144.21,8.93 149.58,10.19 L149.58,10.55 C148.02,11 146.79,12.41 146.37,13.85 C142.02,11.42 137.82,7.58 135.84,3.38 C132.81,8.42 127.2,12.62 120.99,15.02 L120.81,14.72 C125.37,11.84 129.57,7.37 131.4,3.2 L126.42,3.2 L126.15,2.33 L134.88,2.33 L135.99,0.53 Z M166.77,10.16 L173.49,10.16 L173.49,3.89 L166.77,3.89 L166.77,10.16 Z M174.54,26.9 L176.34,24.47 C176.34,24.47 178.41,26.12 179.67,27.29 C179.58,27.62 179.25,27.77 178.83,27.77 L160.98,27.77 L160.74,26.9 L168.33,26.9 L168.33,21.41 L162.48,21.41 L162.24,20.57 L168.33,20.57 L168.33,16.49 C166.53,16.67 164.7,16.76 162.96,16.82 C162.81,18.14 161.4,18.86 160.11,17.69 C160.02,16.28 159.39,14.69 158.67,13.37 L158.67,27.68 C158.64,27.89 157.53,28.67 155.85,28.67 L155.22,28.67 L155.22,17.69 C153.99,19.43 152.55,20.99 150.87,22.34 L150.54,22.04 C152.67,18.92 154.08,14.66 154.89,10.61 L151.11,10.61 L150.87,9.74 L155.22,9.74 L155.22,5.24 C153.78,5.45 152.28,5.63 150.84,5.75 L150.72,5.39 C153.81,4.19 157.53,2.03 159.39,0.5 L163.32,3.8 C162.93,4.13 162.3,4.19 161.34,3.89 C160.59,4.13 159.66,4.37 158.67,4.58 L158.67,9.74 L159,9.74 L160.56,7.58 C160.56,7.58 162.27,9.08 163.29,10.13 C163.2,10.46 162.9,10.61 162.48,10.61 L158.67,10.61 L158.67,12.47 C161.67,13.55 162.81,15.08 162.96,16.31 C166.65,15.32 171.09,13.64 173.67,12.29 L173.49,12.29 L173.49,11 L166.77,11 L166.77,11.81 C166.77,12.11 165.33,12.86 163.98,12.86 L163.5,12.86 L163.5,1.67 L166.92,3.05 L173.22,3.05 L174.78,1.31 L178.08,3.83 C177.9,4.07 177.51,4.31 176.91,4.46 L176.91,11.36 C176.88,11.57 175.62,12.11 174.51,12.26 L177.9,15.47 C177.54,15.8 176.85,15.8 175.92,15.44 C174.75,15.68 173.37,15.89 171.84,16.1 L171.84,20.57 L173.73,20.57 L175.53,18.23 C175.53,18.23 177.54,19.82 178.74,20.93 C178.68,21.26 178.35,21.41 177.93,21.41 L171.84,21.41 L171.84,26.9 L174.54,26.9 Z M204.33,6.32 L207.6,9.2 C207.36,9.47 206.97,9.68 206.25,9.77 C205.98,19.49 205.29,25.19 203.52,26.87 C202.41,27.95 201.06,28.43 198.75,28.43 C198.78,27.29 198.6,26.39 197.97,25.85 C197.34,25.25 195.84,24.71 194.13,24.41 L194.16,24.02 C195.99,24.17 198.66,24.35 199.5,24.35 C200.07,24.35 200.4,24.26 200.7,23.93 C201.84,22.97 202.38,17.27 202.65,9.14 L195.36,9.14 C194.76,17.12 192.45,23.96 181.41,28.64 L181.11,28.22 C189.27,22.85 191.13,16.49 191.58,9.14 L182.67,9.14 L182.4,8.3 L191.61,8.3 C191.73,5.84 191.7,3.26 191.7,0.59 L196.68,1.04 C196.62,1.52 196.35,1.79 195.6,1.88 C195.54,4.07 195.54,6.23 195.39,8.3 L202.35,8.3 L204.33,6.32 Z M217.65,9.32 L219.3,9.92 C219.21,10.19 218.94,10.4 218.37,10.52 L218.37,27.65 C218.31,27.92 216.87,28.67 215.49,28.67 L214.83,28.67 L214.83,12.98 C213.63,14.36 212.34,15.56 210.96,16.58 L210.6,16.31 C213.27,12.56 216.06,6.47 217.56,0.47 L222.33,2.06 C222.18,2.45 221.79,2.69 221.13,2.66 C220.11,5.09 218.94,7.31 217.65,9.32 Z M238.47,7.76 L230.55,7.76 L230.55,13.31 L232.95,13.31 L234.78,10.91 C234.78,10.91 236.85,12.56 238.14,13.7 C238.05,14.03 237.72,14.18 237.3,14.18 L230.55,14.18 L230.55,19.85 L233.13,19.85 L235.14,17.24 C235.14,17.24 237.36,19.01 238.74,20.21 C238.65,20.54 238.32,20.69 237.87,20.69 L230.55,20.69 L230.55,27.71 C230.55,27.92 229.44,28.64 227.58,28.64 L226.92,28.64 L226.92,7.76 L226.2,7.76 C224.25,10.7 222,13.1 219.48,14.9 L219.15,14.66 C221.46,11.27 223.98,5.81 225.33,0.5 L230.16,2.21 C230.01,2.6 229.62,2.84 228.93,2.78 C228.24,4.25 227.52,5.66 226.71,6.95 L233.76,6.95 L235.74,4.37 C235.74,4.37 237.96,6.11 239.31,7.28 C239.22,7.61 238.89,7.76 238.47,7.76 Z M255.27,14.54 L254.04,13.76 C252.87,13.04 252.36,12.23 252.36,11.12 C252.36,9.89 253.47,8.84 254.94,8.84 C255.81,8.84 256.41,9.02 257.07,9.65 C257.46,10.52 257.52,11.06 257.52,11.9 C257.49,15.14 255.78,17.48 253.08,19.1 L252.51,18.23 C253.86,17.06 254.7,15.86 255.27,14.54 Z M291.96,3.74 L291.96,4.73 L289.29,5.18 L282.3,26.12 L280.11,26.12 L272.52,5.06 L270.24,4.82 L270.24,3.74 L280.14,3.74 L280.14,4.79 L277.02,5.12 L282.6,21.65 L287.64,5.21 L284.55,4.79 L284.55,3.74 L291.96,3.74 Z M303.51,4.82 L300.66,5.09 C300.57,8.09 300.57,11.09 300.57,14.15 L300.57,15.62 C300.57,18.62 300.57,21.68 300.66,24.68 L303.51,24.95 L303.51,26 L293.49,26 L293.49,24.95 L296.34,24.68 C296.4,21.71 296.4,18.68 296.4,15.62 L296.4,14.15 C296.4,11.15 296.4,8.12 296.34,5.09 L293.49,4.82 L293.49,3.74 L303.51,3.74 L303.51,4.82 Z M314.94,4.91 L313.35,4.91 C313.26,7.94 313.26,11.03 313.26,14.15 L313.26,15.92 L314.73,15.92 C318.51,15.92 320.13,13.64 320.13,10.34 C320.13,6.8 318.45,4.91 314.94,4.91 Z M314.67,17.09 L313.26,17.09 C313.26,19.43 313.26,22.01 313.35,24.65 L316.56,24.95 L316.56,26 L306.18,26 L306.18,24.95 L309.03,24.68 C309.09,21.71 309.09,18.68 309.09,15.62 L309.09,14.15 C309.09,11.15 309.09,8.12 309.03,5.09 L306.18,4.82 L306.18,3.74 L315.12,3.74 C321.45,3.74 324.12,6.26 324.12,10.34 C324.12,14.06 321.6,17.09 314.67,17.09 Z M327.39,19.94 L326.16,16.31 C326.16,16.31 326.88,16.13 327.21,15.92 C328.62,14.87 330.36,12.8 331.83,10.64 C330.81,11.06 329.64,11.51 328.38,11.99 C328.17,12.32 327.9,12.53 327.63,12.65 L326.13,9.05 C326.13,9.05 326.76,8.9 327.03,8.72 C328.53,7.22 330.45,2.9 331.02,0.59 L335.04,2.63 C334.92,2.9 334.56,3.11 334.05,3.05 C332.73,4.97 330.39,7.52 328.35,9.2 C329.58,9.2 331.14,9.2 332.76,9.17 C333.45,8.06 333.99,6.98 334.35,6.14 L337.95,8.63 C337.8,8.87 337.41,9.05 336.81,8.93 C335.1,11.09 331.83,14.18 328.89,16.28 C330.42,16.19 332.43,16.04 334.5,15.92 C334.23,14.9 333.81,13.91 333.42,13.19 L333.75,13.01 C339.96,15.8 337.2,20.48 334.92,18.32 C334.92,17.81 334.83,17.3 334.71,16.76 C333.09,17.45 330.75,18.41 328.23,19.31 C327.96,19.64 327.69,19.85 327.39,19.94 Z M328.08,20.18 L328.53,20.18 C329.76,23.36 329.58,25.79 328.71,27.08 C328.08,27.98 326.49,28.04 325.92,27.05 C325.44,26.15 325.83,25.25 326.61,24.65 C327.36,23.84 328.26,21.86 328.08,20.18 Z M330.57,19.85 L330.96,19.73 C336.15,23.51 332.88,27.95 330.87,25.46 C331.14,23.63 330.96,21.41 330.57,19.85 Z M349.26,11.96 L343.08,11.96 C343.77,15.11 344.97,17.6 346.53,19.64 C347.82,17.3 348.69,14.72 349.26,11.96 Z M346.89,3.71 L342.51,3.71 C342.48,6.23 342.45,8.72 342.3,11.09 L345.99,11.09 L346.89,3.71 Z M350.85,9.29 L353.88,12.02 C353.73,12.32 353.4,12.44 352.71,12.53 C351.84,15.89 350.49,19.01 348.36,21.68 C350.16,23.33 352.23,24.59 354.45,25.58 L354.36,25.91 C352.95,26.06 351.81,27.05 351.18,28.67 C349.26,27.32 347.67,25.73 346.38,23.81 C344.25,25.82 341.46,27.47 337.83,28.64 L337.62,28.25 C340.86,26.6 343.35,24.35 345.21,21.77 C343.92,19.16 343.05,15.98 342.54,11.96 L342.24,11.96 C341.76,18.35 340.29,24.14 335.55,28.67 L335.13,28.22 C336.03,26.72 336.72,25.16 337.29,23.57 C336.81,24.26 335.85,24.5 334.98,23.69 C334.98,22.25 334.29,20.48 333.57,19.37 L333.9,19.19 C336.72,20.12 337.62,21.62 337.56,22.73 C339.33,16.85 339.24,10.31 339.24,3.71 L337.23,3.71 L336.96,2.84 L346.71,2.84 L348.06,1.28 L351.24,3.71 C351,3.98 350.73,4.07 350.16,4.13 L349.23,10.88 L350.85,9.29 Z M358.89,1.13 L359.1,0.95 C367.02,1.34 364.17,7.34 360.99,5.24 C360.78,3.74 359.79,2.12 358.89,1.13 Z M364.8,6.35 L366.3,4.4 C366.3,4.4 368.01,5.75 369.06,6.74 C369,7.07 368.67,7.22 368.25,7.22 L356.13,7.22 L355.89,6.35 L364.8,6.35 Z M357.15,10.19 L363.72,10.19 L365.16,8.3 C365.16,8.3 366.78,9.62 367.8,10.58 C367.71,10.91 367.41,11.06 366.99,11.06 L357.39,11.06 L357.15,10.19 Z M372.84,3.53 L372.84,5.06 C372.84,7.52 372.3,11.57 367.26,13.91 C367.44,14.09 367.65,14.27 367.83,14.45 C367.74,14.78 367.44,14.93 367.02,14.93 L357.36,14.93 L357.12,14.06 L363.72,14.06 L365.16,12.23 C365.16,12.23 366,12.89 366.84,13.58 C369.36,10.97 369.69,7.7 369.69,5.06 L369.69,1.34 L373.38,2.69 L375.93,2.69 L377.52,0.98 L380.43,3.38 C380.25,3.59 379.89,3.74 379.35,3.83 L379.35,8.78 C379.35,9.08 379.44,9.2 379.83,9.2 L381.39,9.2 C381.57,9.2 381.87,9.17 382.02,9.17 C382.2,9.14 382.5,9.08 382.71,9.05 L382.98,9.05 L383.1,9.08 C383.82,9.44 384.09,9.74 384.09,10.34 C384.09,11.54 383.07,12.2 380.19,12.2 L378.75,12.2 C376.5,12.2 376.23,11.57 376.23,9.62 L376.23,3.53 L372.84,3.53 Z M360.57,24.71 L363.96,24.71 L363.96,18.83 L360.57,18.83 L360.57,24.71 Z M364.47,27.17 L363.96,27.17 L363.96,25.55 L360.57,25.55 L360.57,27.35 C360.57,27.65 359.25,28.34 357.96,28.34 L357.51,28.34 L357.51,16.7 L360.69,17.99 L363.69,17.99 L365.13,16.46 L368.19,18.74 C368.01,18.95 367.62,19.19 367.05,19.31 L367.05,26.27 C367.02,26.51 365.52,27.17 364.47,27.17 Z M377.4,15.23 L370.32,15.23 C371.22,17.66 372.6,19.52 374.4,20.96 C375.72,19.22 376.71,17.33 377.4,15.23 Z M379.23,12.53 L382.35,15.35 C382.14,15.65 381.81,15.74 381.09,15.8 C380.04,18.35 378.6,20.57 376.68,22.49 C378.87,23.72 381.45,24.53 384.18,25.07 L384.15,25.4 C382.77,25.7 381.75,26.75 381.3,28.37 C378.6,27.35 376.32,26.12 374.49,24.35 C371.94,26.27 368.64,27.68 364.59,28.61 L364.41,28.22 C367.92,26.84 370.8,24.98 372.99,22.64 C371.55,20.72 370.47,18.32 369.78,15.23 L368.34,15.23 L368.07,14.36 L377.31,14.36 L379.23,12.53 Z M390.09,0.86 L390.33,0.71 C398.4,1.13 395.46,7.4 392.22,5.18 C392.01,3.59 391.05,1.91 390.09,0.86 Z M396.69,6.23 L398.4,4.04 C398.4,4.04 400.32,5.54 401.49,6.62 C401.43,6.95 401.1,7.1 400.68,7.1 L386.07,7.1 L385.83,6.23 L396.69,6.23 Z M387.39,10.13 L395.22,10.13 L396.9,8 C396.9,8 398.79,9.44 399.9,10.49 C399.81,10.82 399.51,10.97 399.09,10.97 L387.63,10.97 L387.39,10.13 Z M395.22,14 L396.9,11.9 C396.9,11.9 398.79,13.34 399.9,14.39 C399.81,14.72 399.51,14.87 399.09,14.87 L387.63,14.87 L387.39,14 L395.22,14 Z M391.11,24.62 L395.73,24.62 L395.73,18.92 L391.11,18.92 L391.11,24.62 Z M395.43,18.08 L396.96,16.46 L400.14,18.86 C399.96,19.07 399.54,19.34 398.94,19.46 L398.94,26.27 C398.91,26.51 397.35,27.17 396.27,27.17 L395.73,27.17 L395.73,25.46 L391.11,25.46 L391.11,27.23 C391.11,27.53 389.73,28.25 388.41,28.25 L387.96,28.25 L387.96,16.76 L391.23,18.08 L395.43,18.08 Z M409.5,11.57 L411.24,9.23 C411.24,9.23 413.22,10.85 414.42,11.96 C414.33,12.29 414,12.44 413.58,12.44 L408.06,12.44 L408.06,27.32 C408.06,27.71 406.56,28.55 405.24,28.55 L404.58,28.55 L404.58,12.44 L399.78,12.44 L399.54,11.57 L404.58,11.57 L404.58,0.68 L409.17,1.13 C409.08,1.55 408.87,1.88 408.06,2 L408.06,11.57 L409.5,11.57 Z M421.05,17.42 L421.05,19.19 C421.05,19.76 421.05,20.36 420.99,20.99 C421.77,20.75 423,20.33 424.32,19.88 L424.32,18.68 C424.02,18.98 423.54,19.16 422.97,18.98 C422.55,18.47 421.77,17.87 421.05,17.42 Z M424.32,15.14 L421.05,15.14 L421.05,16.67 C422.85,16.4 423.87,16.73 424.32,17.24 L424.32,15.14 Z M420.75,3.47 L420.75,10.58 L421.8,10.58 L421.8,5.18 L423.81,6.08 L424.47,6.08 L424.47,3.47 L420.75,3.47 Z M423.39,6.95 L423.39,10.58 L424.47,10.58 L424.47,6.95 L423.39,6.95 Z M433.23,4.88 L431.94,4.88 L431.94,7.76 L433.23,7.76 L433.23,4.88 Z M436.41,4.88 L435.12,4.88 L435.12,7.76 L436.41,7.76 L436.41,4.88 Z M439.59,4.88 L438.3,4.88 L438.3,7.76 L439.59,7.76 L439.59,4.88 Z M438.3,11.54 L439.59,11.54 L439.59,8.63 L438.3,8.63 L438.3,11.54 Z M435.12,8.63 L435.12,11.54 L436.41,11.54 L436.41,8.63 L435.12,8.63 Z M433.23,11.54 L433.23,8.63 L431.94,8.63 L431.94,11.54 L433.23,11.54 Z M425.25,12.83 L428.16,14.96 C427.98,15.2 427.53,15.47 426.96,15.56 L426.96,25.25 C426.96,27.14 426.57,28.16 423.69,28.43 C423.63,27.65 423.54,27.02 423.24,26.66 C422.91,26.27 422.49,26 421.5,25.82 L421.5,25.37 C421.5,25.37 423.33,25.52 423.81,25.52 C424.23,25.52 424.32,25.34 424.32,24.98 L424.32,21.14 C423.81,21.71 423.21,22.37 422.58,23.12 C422.49,23.48 422.25,23.78 421.95,23.9 L420.9,21.74 C420.57,24.2 419.52,26.75 416.37,28.61 L416.07,28.25 C418.17,25.67 418.29,22.34 418.29,19.16 L418.29,13.28 C418.17,13.64 417.99,13.94 417.78,14.12 C417.21,14.6 416.1,14.54 415.74,13.76 C415.44,13.01 415.89,12.29 416.58,11.9 C417.09,11.45 417.54,10.28 417.3,9.41 L417.78,9.44 C417.96,9.83 418.08,10.22 418.17,10.58 L418.5,10.58 L418.5,1.52 L421.05,2.6 L424.14,2.6 L425.28,1.1 L428.16,3.17 C427.92,3.47 427.56,3.65 426.78,3.74 L426.78,10.19 L427.65,9.32 L429.33,10.97 L429.33,2.87 L432.3,4.04 L433.23,4.04 L433.23,0.62 L435.84,0.92 C435.81,1.22 435.6,1.46 435.12,1.55 L435.12,4.04 L436.41,4.04 L436.41,0.62 L439.14,0.92 C439.08,1.28 438.87,1.49 438.3,1.61 L438.3,4.04 L439.5,4.04 L440.79,2.54 L443.46,4.55 C443.28,4.79 442.98,4.97 442.35,5.06 L442.35,12.26 C442.35,12.32 442.08,12.5 441.63,12.68 C442.23,13.13 443.16,13.85 443.85,14.45 C443.76,14.78 443.46,14.93 443.04,14.93 L428.73,14.93 L428.49,14.06 L439.53,14.06 L440.49,12.89 C440.37,12.92 440.22,12.92 440.07,12.92 L439.59,12.92 L439.59,12.38 L431.94,12.38 L431.94,12.68 C431.94,12.89 431.13,13.4 429.75,13.4 L429.33,13.4 L429.33,11.72 C429.15,11.75 428.97,11.78 428.73,11.78 C428.22,12.38 427.38,13.34 426.87,13.85 L426.45,13.64 C426.48,13.1 426.6,12.17 426.66,11.42 L418.38,11.42 C418.47,12.05 418.47,12.62 418.35,13.1 L421.47,14.3 L424.05,14.3 L425.25,12.83 Z M433.11,21.68 L433.11,22.25 C433.11,22.34 432.96,22.49 432.63,22.61 C435.69,24.02 435.12,26.03 433.86,26.42 L436.29,26.42 C436.8,25.07 437.34,23.36 437.61,22.07 L438.18,22.25 L438.18,21.68 L433.11,21.68 Z M438.18,17.45 L433.11,17.45 L433.11,20.81 L438.18,20.81 L438.18,17.45 Z M439.65,26.42 L441.3,24.38 C441.3,24.38 443.13,25.79 444.27,26.81 C444.18,27.14 443.88,27.29 443.43,27.29 L427.65,27.29 L427.41,26.42 L432.99,26.42 C432.69,26.33 432.39,26.15 432.12,25.88 C432.15,24.89 431.88,23.75 431.55,22.88 C431.31,22.91 431.04,22.94 430.74,22.94 L430.23,22.94 L430.23,15.32 L433.44,16.58 L438.12,16.58 L439.5,15.02 L442.29,17.09 C442.14,17.36 441.84,17.51 441.21,17.63 L441.21,21.89 C441.21,22.01 440.37,22.49 438.99,22.55 L441.21,23.3 C441.09,23.63 440.73,23.87 440.07,23.81 C439.35,24.56 438.3,25.55 437.25,26.42 L439.65,26.42 Z M447.33,19.19 L447.78,19.19 C450.36,27.86 443.82,26.63 445.89,23.69 C446.76,22.91 447.27,21.35 447.33,19.19 Z M448.71,19.01 L449.1,18.89 C452.52,22.55 450.33,26 448.95,24.26 C449.28,22.55 449.04,20.42 448.71,19.01 Z M450.36,18.47 L450.75,18.32 C455.01,21.23 453.21,24.53 451.74,23.09 C451.77,21.62 451.05,19.67 450.36,18.47 Z M467.76,19.22 L471.81,20.48 C471.69,20.78 471.45,20.99 470.76,20.99 C470.46,21.77 470.07,22.58 469.62,23.36 C476.13,24.95 474.21,29.81 471.45,28.19 C471.03,26.93 470.01,25.49 468.99,24.32 C467.7,26.15 465.87,27.77 463.44,28.7 L463.23,28.34 C463.95,27.77 464.58,27.08 465.09,26.33 C464.58,26.63 463.86,26.63 463.17,26.09 C463.14,25.25 462.78,24.35 462.27,23.6 C460.95,25.67 459.06,27.56 456.48,28.73 L456.27,28.34 C458.82,26.06 460.23,22.28 460.71,19.25 L464.64,20.63 C464.52,20.96 464.28,21.14 463.59,21.11 C463.35,21.65 463.11,22.19 462.81,22.73 C465.15,23.18 465.9,24.29 465.84,25.19 C466.89,23.33 467.49,21.17 467.76,19.22 Z M470.01,12.53 L468.33,12.53 L468.33,16.76 L470.01,16.76 L470.01,12.53 Z M468.33,17.63 L468.33,18.41 C468.33,18.59 467.55,19.04 466.35,19.04 L465.96,19.04 L465.96,10.58 L468.63,11.69 L469.92,11.69 L471.06,10.31 L473.49,12.2 C473.31,12.41 473.04,12.59 472.41,12.68 L472.41,18.2 C472.41,18.32 471.57,18.8 470.4,18.8 L470.01,18.8 L470.01,17.63 L468.33,17.63 Z M466.02,8.57 L467.49,6.74 C467.49,6.74 469.17,8 470.19,8.93 C470.1,9.26 469.8,9.41 469.38,9.41 L461.28,9.41 L461.04,8.57 L466.02,8.57 Z M451.38,15.53 L451.38,12.11 L449.7,12.11 L449.7,15.53 L451.38,15.53 Z M451.38,3.77 L449.7,3.77 L449.7,7.07 L451.38,7.07 L451.38,3.77 Z M451.38,11.24 L451.38,7.91 L449.7,7.91 L449.7,11.24 L451.38,11.24 Z M462.45,12.53 L460.83,12.53 L460.83,16.76 L462.45,16.76 L462.45,12.53 Z M463.35,0.59 L467.7,1.76 C467.61,2.09 467.34,2.27 466.47,2.36 C468.24,4.4 471.15,5.99 474.45,6.59 L474.42,6.98 C473.28,7.43 472.8,8.96 472.62,10.31 C469.89,8.63 467.52,5.87 466.14,2.66 C464.58,5.45 461.13,8.9 457.35,10.67 C457.71,11 458.07,11.33 458.37,11.63 C458.31,11.96 458.01,12.11 457.59,12.11 L454.05,12.11 L454.05,15.53 L454.77,15.53 L456.24,14.06 L458.55,15.95 L458.55,10.61 L461.16,11.69 L462.36,11.69 L463.5,10.37 L465.87,12.2 C465.69,12.41 465.39,12.59 464.79,12.68 L464.79,18.2 C464.79,18.32 463.95,18.8 462.84,18.8 L462.45,18.8 L462.45,17.63 L460.83,17.63 L460.83,18.41 C460.83,18.59 460.11,19.04 458.94,19.04 L458.55,19.04 L458.55,16.61 C458.34,16.7 458.1,16.76 457.77,16.82 C457.53,23.87 456.99,26.54 455.7,27.65 C454.92,28.34 453.87,28.64 452.64,28.64 C452.64,27.83 452.55,27.14 452.22,26.78 C451.89,26.36 451.29,26.09 450.48,25.91 L450.48,25.43 C451.2,25.52 452.4,25.58 452.88,25.58 C453.33,25.58 453.54,25.52 453.78,25.31 C454.2,24.92 454.53,23.66 454.77,21.26 C454.53,21.29 454.26,21.23 453.96,21.02 C453.78,19.94 452.85,18.62 451.98,17.93 L452.28,17.69 C453.6,17.99 454.47,18.5 454.95,19.04 C454.98,18.23 455.04,17.36 455.07,16.37 L449.7,16.37 L449.7,17.51 C449.7,17.69 448.83,18.35 447.45,18.35 L447,18.35 L447,1.67 L450.06,2.9 L454.68,2.9 L456.18,0.95 C456.18,0.95 457.89,2.3 458.94,3.29 C458.85,3.62 458.58,3.77 458.16,3.77 L454.05,3.77 L454.05,7.07 L454.74,7.07 L456.03,5.33 C456.03,5.33 457.5,6.56 458.4,7.43 C458.34,7.76 458.04,7.91 457.62,7.91 L454.05,7.91 L454.05,11.24 L454.68,11.24 L456,9.5 C456,9.5 456.54,9.95 457.17,10.52 L457.14,10.46 C459.87,8.09 462.42,3.68 463.35,0.59 Z M490.23,14.54 L489,13.76 C487.83,13.04 487.32,12.23 487.32,11.12 C487.32,9.89 488.43,8.84 489.9,8.84 C490.77,8.84 491.37,9.02 492.03,9.65 C492.42,10.52 492.48,11.06 492.48,11.9 C492.45,15.14 490.74,17.48 488.04,19.1 L487.47,18.23 C488.82,17.06 489.66,15.86 490.23,14.54 Z M508.89,1.13 L509.1,0.95 C517.02,1.34 514.17,7.34 510.99,5.24 C510.78,3.74 509.79,2.12 508.89,1.13 Z M514.8,6.35 L516.3,4.4 C516.3,4.4 518.01,5.75 519.06,6.74 C519,7.07 518.67,7.22 518.25,7.22 L506.13,7.22 L505.89,6.35 L514.8,6.35 Z M507.15,10.19 L513.72,10.19 L515.16,8.3 C515.16,8.3 516.78,9.62 517.8,10.58 C517.71,10.91 517.41,11.06 516.99,11.06 L507.39,11.06 L507.15,10.19 Z M522.84,3.53 L522.84,5.06 C522.84,7.52 522.3,11.57 517.26,13.91 C517.44,14.09 517.65,14.27 517.83,14.45 C517.74,14.78 517.44,14.93 517.02,14.93 L507.36,14.93 L507.12,14.06 L513.72,14.06 L515.16,12.23 C515.16,12.23 516,12.89 516.84,13.58 C519.36,10.97 519.69,7.7 519.69,5.06 L519.69,1.34 L523.38,2.69 L525.93,2.69 L527.52,0.98 L530.43,3.38 C530.25,3.59 529.89,3.74 529.35,3.83 L529.35,8.78 C529.35,9.08 529.44,9.2 529.83,9.2 L531.39,9.2 C531.57,9.2 531.87,9.17 532.02,9.17 C532.2,9.14 532.5,9.08 532.71,9.05 L532.98,9.05 L533.1,9.08 C533.82,9.44 534.09,9.74 534.09,10.34 C534.09,11.54 533.07,12.2 530.19,12.2 L528.75,12.2 C526.5,12.2 526.23,11.57 526.23,9.62 L526.23,3.53 L522.84,3.53 Z M510.57,24.71 L513.96,24.71 L513.96,18.83 L510.57,18.83 L510.57,24.71 Z M514.47,27.17 L513.96,27.17 L513.96,25.55 L510.57,25.55 L510.57,27.35 C510.57,27.65 509.25,28.34 507.96,28.34 L507.51,28.34 L507.51,16.7 L510.69,17.99 L513.69,17.99 L515.13,16.46 L518.19,18.74 C518.01,18.95 517.62,19.19 517.05,19.31 L517.05,26.27 C517.02,26.51 515.52,27.17 514.47,27.17 Z M527.4,15.23 L520.32,15.23 C521.22,17.66 522.6,19.52 524.4,20.96 C525.72,19.22 526.71,17.33 527.4,15.23 Z M529.23,12.53 L532.35,15.35 C532.14,15.65 531.81,15.74 531.09,15.8 C530.04,18.35 528.6,20.57 526.68,22.49 C528.87,23.72 531.45,24.53 534.18,25.07 L534.15,25.4 C532.77,25.7 531.75,26.75 531.3,28.37 C528.6,27.35 526.32,26.12 524.49,24.35 C521.94,26.27 518.64,27.68 514.59,28.61 L514.41,28.22 C517.92,26.84 520.8,24.98 522.99,22.64 C521.55,20.72 520.47,18.32 519.78,15.23 L518.34,15.23 L518.07,14.36 L527.31,14.36 L529.23,12.53 Z M540.09,0.86 L540.33,0.71 C548.4,1.13 545.46,7.4 542.22,5.18 C542.01,3.59 541.05,1.91 540.09,0.86 Z M546.69,6.23 L548.4,4.04 C548.4,4.04 550.32,5.54 551.49,6.62 C551.43,6.95 551.1,7.1 550.68,7.1 L536.07,7.1 L535.83,6.23 L546.69,6.23 Z M537.39,10.13 L545.22,10.13 L546.9,8 C546.9,8 548.79,9.44 549.9,10.49 C549.81,10.82 549.51,10.97 549.09,10.97 L537.63,10.97 L537.39,10.13 Z M545.22,14 L546.9,11.9 C546.9,11.9 548.79,13.34 549.9,14.39 C549.81,14.72 549.51,14.87 549.09,14.87 L537.63,14.87 L537.39,14 L545.22,14 Z M541.11,24.62 L545.73,24.62 L545.73,18.92 L541.11,18.92 L541.11,24.62 Z M545.43,18.08 L546.96,16.46 L550.14,18.86 C549.96,19.07 549.54,19.34 548.94,19.46 L548.94,26.27 C548.91,26.51 547.35,27.17 546.27,27.17 L545.73,27.17 L545.73,25.46 L541.11,25.46 L541.11,27.23 C541.11,27.53 539.73,28.25 538.41,28.25 L537.96,28.25 L537.96,16.76 L541.23,18.08 L545.43,18.08 Z M559.5,11.57 L561.24,9.23 C561.24,9.23 563.22,10.85 564.42,11.96 C564.33,12.29 564,12.44 563.58,12.44 L558.06,12.44 L558.06,27.32 C558.06,27.71 556.56,28.55 555.24,28.55 L554.58,28.55 L554.58,12.44 L549.78,12.44 L549.54,11.57 L554.58,11.57 L554.58,0.68 L559.17,1.13 C559.08,1.55 558.87,1.88 558.06,2 L558.06,11.57 L559.5,11.57 Z M566.7,28.76 L566.58,28.34 C570.42,27.2 574.56,24.92 576.54,23.06 L580.38,25.58 C580.11,25.91 579.54,26.03 578.64,25.82 C575.88,27.29 571.08,28.43 566.7,28.76 Z M581.16,24.41 L581.25,24.05 C598.17,24.29 592.17,30.5 588.99,28.19 C587.55,26.99 584.94,25.46 581.16,24.41 Z M586.86,10.97 L586.86,10.55 C587.49,10.61 588.6,10.67 589.05,10.67 C589.41,10.67 589.59,10.61 589.71,10.52 C589.86,10.43 589.95,10.1 590.04,9.68 L584.76,9.68 L584.76,11.72 C584.76,11.99 583.32,12.53 582,12.53 L581.43,12.53 L581.43,9.68 L576.72,9.68 C575.94,10.79 574.77,11.78 573.06,12.65 L574.56,13.25 L585.63,13.25 L587.19,11.51 L588.87,12.74 C588.84,12.29 588.75,11.99 588.48,11.69 C588.15,11.33 587.61,11.15 586.86,10.97 Z M574.35,22.07 L585.9,22.07 L585.9,19.94 L574.35,19.94 L574.35,22.07 Z M574.35,16.16 L585.9,16.16 L585.9,14.09 L574.35,14.09 L574.35,16.16 Z M574.35,17 L574.35,19.1 L585.9,19.1 L585.9,17 L574.35,17 Z M570.96,8.84 L574.08,8.84 C574.44,8.15 574.68,7.46 574.83,6.74 L571.35,6.74 C571.23,7.4 571.11,8.18 570.96,8.84 Z M578.34,3.83 L578.34,4.25 C578.31,4.79 578.28,5.33 578.19,5.87 L581.43,5.87 L581.43,3.83 L578.34,3.83 Z M588.18,3.83 L584.76,3.83 L584.76,5.87 L588.18,5.87 L588.18,3.83 Z M581.43,8.84 L581.43,6.74 L578.04,6.74 C577.86,7.46 577.62,8.15 577.23,8.84 L581.43,8.84 Z M591.33,7.46 L594.06,9.65 C593.88,9.89 593.52,9.98 593.01,10.07 C592.86,11.51 592.59,12.26 591.69,12.74 C591.12,13.07 590.4,13.16 589.44,13.19 L590.52,14 C590.34,14.21 589.95,14.45 589.44,14.57 L589.44,23.03 C589.41,23.24 587.64,23.9 586.47,23.9 L585.9,23.9 L585.9,22.94 L574.35,22.94 L574.35,23.39 C574.35,23.72 572.82,24.5 571.35,24.5 L570.87,24.5 L570.87,13.58 C569.52,14.06 567.96,14.48 566.13,14.84 L565.95,14.48 C570,13.19 572.28,11.54 573.54,9.68 L571.02,9.68 L569.91,11 L567.03,9.2 C567.3,8.96 567.72,8.72 568.11,8.54 C568.29,7.46 568.5,5.93 568.56,5.03 L572.07,5.87 L574.95,5.87 C575.01,5.3 575.04,4.76 575.04,4.19 L575.04,3.83 L567.9,3.83 L567.63,2.99 L575.04,2.99 L575.04,0.5 L579.33,0.89 C579.27,1.28 579.03,1.58 578.34,1.67 L578.34,2.99 L581.43,2.99 L581.43,0.5 L585.87,0.92 C585.81,1.31 585.57,1.61 584.76,1.73 L584.76,2.99 L587.88,2.99 L589.38,1.4 L592.53,3.74 C592.38,3.95 591.99,4.19 591.45,4.31 L591.45,6.86 C591.42,7.1 589.83,7.73 588.75,7.73 L588.18,7.73 L588.18,6.74 L584.76,6.74 L584.76,8.84 L589.86,8.84 L591.33,7.46 Z M622.98,4.28 L613.44,4.28 C612.72,6.02 611.82,7.76 610.74,9.44 L612.6,10.13 C612.51,10.4 612.24,10.61 611.67,10.7 L611.67,27.89 C611.64,28.1 610.05,28.67 608.73,28.67 L608.07,28.67 L608.07,13.13 C604.83,17.09 600.69,20.63 595.95,23.09 L595.71,22.85 C601.74,17.99 606.87,10.58 608.73,4.28 L596.37,4.28 L596.13,3.44 L617.76,3.44 L619.92,0.68 C619.92,0.68 622.38,2.54 623.85,3.8 C623.76,4.13 623.43,4.28 622.98,4.28 Z M612.63,12.14 L612.9,11.87 C626.49,14.81 624.99,22.91 620.97,20.93 C619.35,17.9 615.6,14.3 612.63,12.14 Z M636.18,7.16 L638.01,5.27 L641.16,8 C640.95,8.27 640.56,8.48 639.87,8.6 C639.63,20.63 639.21,24.98 637.59,26.66 C636.57,27.71 635.25,28.16 633.63,28.16 C633.63,27.02 633.54,26.18 633.15,25.73 C632.7,25.16 631.89,24.77 630.72,24.5 L630.75,24.08 C631.71,24.17 633.27,24.29 633.87,24.29 C634.38,24.29 634.62,24.17 634.92,23.93 C635.94,22.97 636.27,17.99 636.48,8 L633.66,8 C633.36,15.47 632.19,23.03 625.86,28.67 L625.44,28.25 C629.34,22.16 630.09,15.08 630.21,8 L626.49,8 L626.22,7.16 L630.24,7.16 C630.27,5 630.24,2.87 630.24,0.74 L634.89,1.16 C634.8,1.61 634.53,1.88 633.78,2 C633.75,3.68 633.75,5.42 633.69,7.16 L636.18,7.16 Z M645.42,23.6 L649.08,23.6 L649.08,6.47 L645.42,6.47 L645.42,23.6 Z M650.49,3.71 L653.88,6.44 C653.67,6.71 653.25,6.95 652.65,7.1 L652.65,26.24 C652.59,26.57 651,27.5 649.65,27.5 L649.08,27.5 L649.08,24.47 L645.42,24.47 L645.42,26.81 C645.42,27.23 644.07,28.04 642.6,28.04 L642,28.04 L642,4.1 L645.54,5.63 L648.78,5.63 L650.49,3.71 Z M661.89,8.9 L663.33,9.44 C663.24,9.71 663,9.92 662.43,10.01 L662.43,27.65 C662.37,27.92 660.96,28.67 659.61,28.67 L658.98,28.67 L658.98,13.31 C658.02,14.51 657,15.62 655.92,16.58 L655.53,16.34 C657.69,12.44 659.88,6.29 661.02,0.5 L665.97,1.94 C665.85,2.33 665.46,2.57 664.77,2.57 C663.93,4.85 662.97,6.98 661.89,8.9 Z M663.45,28.64 L663.3,28.31 C666.09,26.99 669.06,24.65 670.47,22.94 L674.58,25.25 C674.34,25.58 673.8,25.76 672.9,25.61 C670.77,26.9 666.93,28.1 663.45,28.64 Z M674.79,24.02 L674.91,23.63 C689.1,24.38 683.04,30.68 680.28,28.01 C679.38,26.75 677.64,25.16 674.79,24.02 Z M674.79,6.11 L674.79,3.74 L672.93,3.74 L672.93,6.11 L674.79,6.11 Z M679.59,6.95 L677.7,6.95 L677.7,10.4 L679.59,10.4 L679.59,6.95 Z M678.03,13.07 L679.59,11.39 L679.59,11.27 L668.19,11.27 L668.19,11.54 C668.19,11.66 667.83,11.9 667.29,12.11 L669.66,13.07 L678.03,13.07 Z M669.48,21.77 L678.3,21.77 L678.3,19.67 L669.48,19.67 L669.48,21.77 Z M669.48,15.92 L678.3,15.92 L678.3,13.91 L669.48,13.91 L669.48,15.92 Z M669.48,16.76 L669.48,18.83 L678.3,18.83 L678.3,16.76 L669.48,16.76 Z M672.93,10.4 L674.79,10.4 L674.79,6.95 L672.93,6.95 L672.93,10.4 Z M670.02,6.95 L668.19,6.95 L668.19,10.4 L670.02,10.4 L670.02,6.95 Z M683.31,3.74 L677.7,3.74 L677.7,6.11 L679.35,6.11 L680.85,4.49 L684,6.86 C683.88,7.04 683.55,7.25 683.04,7.34 L683.04,11.3 C683.01,11.48 681.6,11.99 680.52,12.08 L682.8,13.82 C682.65,14.03 682.29,14.3 681.75,14.39 L681.75,23 C681.72,23.21 680.04,23.9 678.9,23.9 L678.3,23.9 L678.3,22.61 L669.48,22.61 L669.48,23.24 C669.48,23.54 668.01,24.29 666.63,24.29 L666.15,24.29 L666.15,12.44 C665.88,12.5 665.61,12.53 665.34,12.53 L664.89,12.53 L664.89,4.73 L668.4,6.11 L670.02,6.11 L670.02,3.74 L665.16,3.74 L664.92,2.87 L678.69,2.87 L680.64,0.47 C680.64,0.47 682.8,2.09 684.15,3.26 C684.06,3.59 683.73,3.74 683.31,3.74 Z" id="path-1"></path>
        <filter x="-0.8%" y="-12.3%" width="101.6%" height="138.6%" filterUnits="objectBoundingBox" id="filter-2">
            <feOffset dx="0" dy="2" in="SourceAlpha" result="shadowOffsetOuter1"></feOffset>
            <feGaussianBlur stdDeviation="1.5" in="shadowOffsetOuter1" result="shadowBlurOuter1"></feGaussianBlur>
            <feColorMatrix values="0 0 0 0 0   0 0 0 0 0   0 0 0 0 0  0 0 0 0.6 0" type="matrix" in="shadowBlurOuter1"></feColorMatrix>
        </filter>
    </defs>
    <g id="總監操刀" stroke="none" stroke-width="1" fill="none" fill-rule="evenodd">
        <g id="Group-5-Copy" transform="translate(3.000000, 1.000000)">
            <g id="優質總監全程力作，VIP級設計體驗，設計">
                <use fill="black" fill-opacity="1" filter="url(#filter-2)" xlink:href="#path-1"></use>
                <use fill="#FFFFFF" fill-rule="evenodd" xlink:href="#path-1"></use>
            </g>
            <rect id="Rectangle-12-Copy-2" fill="#CEA95B" x="444" y="46" width="234" height="2"></rect>
            <rect id="Rectangle-12-Copy-3" fill="#CEA95B" x="426" y="51" width="234" height="2"></rect>
            <rect id="Rectangle-12-Copy-4" fill="#CEA95B" x="467" y="58" width="234" height="2"></rect>
        </g>
    </g>
</svg>