<?xml version="1.0" encoding="UTF-8"?>
<svg width="29px" height="29px" viewBox="0 0 29 29" version="1.1" xmlns="http://www.w3.org/2000/svg" xmlns:xlink="http://www.w3.org/1999/xlink">
    <!-- Generator: Sketch 51.3 (57544) - http://www.bohemiancoding.com/sketch -->
    <title>Group 8</title>
    <desc>Created with Sketch.</desc>
    <defs></defs>
    <g id="symbol" stroke="none" stroke-width="1" fill="none" fill-rule="evenodd">
        <g id="Group-8">
            <rect id="Rectangle-3-Copy" x="0" y="0" width="29" height="29"></rect>
            <g id="line" transform="translate(1.000000, 2.000000)" fill="#FFFFFF" fill-rule="nonzero">
                <g id="Group">
                    <path d="M27.2553427,11.8457664 C27.0869282,12.863546 26.7288525,13.8357037 26.2094172,14.7410128 C25.9647116,15.1674505 24.7644813,16.7910664 24.3963975,17.2191675 C22.3736186,19.5717828 18.9862965,22.2873138 13.3215638,24.9268876 C12.7930228,25.173214 12.1899134,24.7634884 12.2547198,24.2003434 L12.5401959,21.7194958 C12.5856424,21.324027 12.2900762,20.9667349 11.8801554,20.9253109 C5.17532155,20.247636 0,15.8419572 0,10.5078417 C0,4.70451787 6.12584227,0 13.6825927,0 C21.0262204,0 27.0185944,4.44298416 27.3506655,10.0196243 C27.3602634,10.1814394 27.3871703,10.6982496 27.3635447,11.046354 C27.3492709,11.257276 27.3181803,11.5261757 27.2553427,11.8457664 Z M6.15890172,12.6364663 L6.15890172,8.21035275 C6.15890172,7.8371405 5.84553423,7.53457878 5.45899296,7.53457878 C5.0724517,7.53457878 4.75908421,7.8371405 4.75908421,8.21035275 L4.75908421,13.3122403 C4.75908421,13.6854525 5.0724517,13.9880143 5.45899296,13.9880143 L8.25854595,13.9880143 C8.64508721,13.9880143 8.9584547,13.6854525 8.9584547,13.3122403 C8.9584547,12.939028 8.64508721,12.6364663 8.25854595,12.6364663 L6.15890172,12.6364663 Z M10.4761542,13.9880143 C10.7782011,13.9880143 11.0230707,13.7515884 11.0230707,13.4599569 L11.0230707,8.0626361 C11.0230707,7.77100463 10.7782011,7.53457878 10.4761542,7.53457878 L10.1701697,7.53457878 C9.8681228,7.53457878 9.62325317,7.77100463 9.62325317,8.0626361 L9.62325317,13.4599569 C9.62325317,13.7515884 9.8681228,13.9880143 10.1701697,13.9880143 L10.4761542,13.9880143 Z M16.1321093,8.21035275 L16.1321093,11.3271345 C16.1321093,11.3271345 13.3369861,7.80704274 13.2943287,7.76078723 C13.1607784,7.61608036 12.9639803,7.52705434 12.7455255,7.53505401 C12.3648086,7.54899403 12.0728518,7.87024804 12.0728518,8.23807438 L12.0728518,13.3121611 C12.0728518,13.6853733 12.3862193,13.9879351 12.7727605,13.9879351 C13.1593018,13.9879351 13.4726693,13.6853733 13.4726693,13.3121611 L13.4726693,10.2143093 C13.4726693,10.2143093 16.3102858,13.7650532 16.3519587,13.8032298 C16.4757471,13.9163341 16.6420287,13.986351 16.8255374,13.9879351 C17.2142115,13.9913409 17.5319268,13.6593942 17.5319268,13.2841226 L17.5319268,8.21035275 C17.5319268,7.8371405 17.2185593,7.53457878 16.832018,7.53457878 C16.4454768,7.53465799 16.1321093,7.8371405 16.1321093,8.21035275 Z M22.7809963,8.21035275 C22.7809963,7.8371405 22.4676288,7.53457878 22.0810876,7.53457878 L19.2815346,7.53457878 C18.8949933,7.53457878 18.5816258,7.8371405 18.5816258,8.21035275 L18.5816258,13.3122403 C18.5816258,13.6854525 18.8949933,13.9880143 19.2815346,13.9880143 L22.0810876,13.9880143 C22.4676288,13.9880143 22.7809963,13.6854525 22.7809963,13.3122403 C22.7809963,12.939028 22.4676288,12.6364663 22.0810876,12.6364663 L19.9814433,12.6364663 L19.9814433,11.4369913 L22.0810876,11.4369913 C22.4676288,11.4369913 22.7809963,11.1344296 22.7809963,10.7612173 C22.7809963,10.3880051 22.4676288,10.0854433 22.0810876,10.0854433 L19.9814433,10.0854433 L19.9814433,8.88596831 L22.0810876,8.88596831 C22.4676288,8.88612672 22.7809963,8.58356501 22.7809963,8.21035275 Z" id="Combined-Shape"></path>
                </g>
            </g>
        </g>
    </g>
</svg>