<?xml version="1.0" encoding="UTF-8"?>
<svg width="23px" height="23px" viewBox="0 0 23 23" version="1.1" xmlns="http://www.w3.org/2000/svg" xmlns:xlink="http://www.w3.org/1999/xlink">
    <!-- Generator: Sketch 51.3 (57544) - http://www.bohemiancoding.com/sketch -->
    <title>Group 26</title>
    <desc>Created with Sketch.</desc>
    <defs></defs>
    <g id="總監操刀" stroke="none" stroke-width="1" fill="none" fill-rule="evenodd">
        <g id="Group-26" transform="translate(1.000000, 1.000000)" fill="#FFFFFF" fill-rule="nonzero">
            <path d="M19.7928932,-0.207106781 C20.1834175,-0.597631073 20.8165825,-0.597631073 21.2071068,-0.207106781 C21.5976311,0.183417511 21.5976311,0.816582489 21.2071068,1.20710678 L0.946307192,21.4679064 C0.5557829,21.8584307 -0.0773820788,21.8584307 -0.467906371,21.4679064 C-0.858430662,21.0773821 -0.858430662,20.4442171 -0.467906371,20.0536928 L19.7928932,-0.207106781 Z" id="Line-9"></path>
            <path d="M19.7928932,-0.207106781 C20.1834175,-0.597631073 20.8165825,-0.597631073 21.2071068,-0.207106781 C21.5976311,0.183417511 21.5976311,0.816582489 21.2071068,1.20710678 L0.946307192,21.4679064 C0.5557829,21.8584307 -0.0773820788,21.8584307 -0.467906371,21.4679064 C-0.858430662,21.0773821 -0.858430662,20.4442171 -0.467906371,20.0536928 L19.7928932,-0.207106781 Z" id="Line-9-Copy" transform="translate(10.369600, 10.630400) scale(-1, 1) translate(-10.369600, -10.630400) "></path>
        </g>
    </g>
</svg>