<?xml version="1.0" encoding="UTF-8"?>
<svg width="29px" height="29px" viewBox="0 0 29 29" version="1.1" xmlns="http://www.w3.org/2000/svg" xmlns:xlink="http://www.w3.org/1999/xlink">
    <!-- Generator: Sketch 51.3 (57544) - http://www.bohemiancoding.com/sketch -->
    <title>Group 7</title>
    <desc>Created with Sketch.</desc>
    <defs></defs>
    <g id="symbol" stroke="none" stroke-width="1" fill="none" fill-rule="evenodd">
        <g id="Group-7">
            <rect id="Rectangle-3-Copy-2" x="0" y="0" width="29" height="29"></rect>
            <g id="wechat" transform="translate(1.000000, 2.000000)" fill="#FFFFFF" fill-rule="nonzero">
                <path d="M10.5,0 C4.7005,0 0,3.87519231 0,8.65384615 C0,11.4092308 1.5715,13.8530769 4.00925,15.435 L2.625,18.1730769 L6.39625,16.5755769 C7.20475,16.8594231 8.04475,17.0930769 8.9425,17.2021154 C8.82,16.6742308 8.75,16.1325 8.75,15.5769231 C8.75,10.8051923 13.45925,6.92307692 19.25,6.92307692 C19.78025,6.92307692 20.29825,6.96634615 20.80925,7.02865385 C19.88525,3.02711538 15.624,0 10.5,0 Z M7,6.49038462 C6.2755,6.49038462 5.6875,5.90884615 5.6875,5.19230769 C5.6875,4.47576923 6.2755,3.89423077 7,3.89423077 C7.7245,3.89423077 8.3125,4.47576923 8.3125,5.19230769 C8.3125,5.90884615 7.7245,6.49038462 7,6.49038462 Z M14,6.49038462 C13.2755,6.49038462 12.6875,5.90884615 12.6875,5.19230769 C12.6875,4.47576923 13.2755,3.89423077 14,3.89423077 C14.7245,3.89423077 15.3125,4.47576923 15.3125,5.19230769 C15.3125,5.90884615 14.7245,6.49038462 14,6.49038462 Z" id="Shape"></path>
                <path d="M27.7666667,15.2307692 C27.7666667,11.4075 23.8484167,8.30769231 19.0166667,8.30769231 C14.1849167,8.30769231 10.2666667,11.4075 10.2666667,15.2307692 C10.2666667,19.0540385 14.1849167,22.1538462 19.0166667,22.1538462 C19.8111667,22.1538462 20.5671667,22.0430769 21.3004167,21.8855769 L26.0166667,23.8846154 L24.3856667,20.6601923 C26.4296667,19.3932692 27.7666667,17.4444231 27.7666667,15.2307692 Z M16.3916667,14.7980769 C15.6671667,14.7980769 15.0791667,14.2165385 15.0791667,13.5 C15.0791667,12.7834615 15.6671667,12.2019231 16.3916667,12.2019231 C17.1161667,12.2019231 17.7041667,12.7834615 17.7041667,13.5 C17.7041667,14.2165385 17.1161667,14.7980769 16.3916667,14.7980769 Z M21.6416667,14.7980769 C20.9171667,14.7980769 20.3291667,14.2165385 20.3291667,13.5 C20.3291667,12.7834615 20.9171667,12.2019231 21.6416667,12.2019231 C22.3661667,12.2019231 22.9541667,12.7834615 22.9541667,13.5 C22.9541667,14.2165385 22.3661667,14.7980769 21.6416667,14.7980769 Z" id="Shape"></path>
            </g>
        </g>
    </g>
</svg>