<?xml version="1.0" encoding="UTF-8"?>
<svg width="15px" height="14px" viewBox="0 0 15 14" version="1.1" xmlns="http://www.w3.org/2000/svg" xmlns:xlink="http://www.w3.org/1999/xlink">
    <!-- Generator: Sketch 51.3 (57544) - http://www.bohemiancoding.com/sketch -->
    <title>Group 23</title>
    <desc>Created with Sketch.</desc>
    <defs></defs>
    <g id="設計立吞" stroke="none" stroke-width="1" fill="none" fill-rule="evenodd">
        <g id="設計立吞_VS" transform="translate(-116.000000, -1584.000000)">
            <g id="Group-3-Copy-2" transform="translate(116.000000, 1578.000000)">
                <g id="Group-23" transform="translate(0.000000, 6.000000)">
                    <rect id="Rectangle-19" fill="#F6D44F" x="0.2" y="5" width="4" height="7.5"></rect>
                    <g id="like" fill="#2A2A2A" fill-rule="nonzero">
                        <path d="M14.9735081,6.09745968 C14.9735081,5.31222782 14.3346774,4.67342742 13.5494758,4.67342742 L13.0646976,4.67342742 L10.9675706,4.67342742 C11.3674294,3.94958669 11.5800605,3.26642137 11.5800605,2.32290323 L11.5800605,2.17042339 C11.5800605,2.17033266 11.5800605,2.17027218 11.5800605,2.17018145 C11.5799093,1.66266129 11.3837601,1.18408266 11.027631,0.822631048 C10.6717137,0.461391129 10.1965222,0.258044355 9.68957661,0.250120968 C9.6847379,0.250060484 9.67986895,0.25 9.67503024,0.25 C9.18368952,0.25 8.7540121,0.64078629 8.71366935,1.12771169 C8.5213004,3.44971774 6.28385081,4.64633065 4.78720766,5.37413306 L4.78720766,5.13386089 C4.78720766,4.88285282 4.58370968,4.67938508 4.33273185,4.67938508 L0.454475806,4.67938508 C0.203467742,4.67938508 0,4.88288306 0,5.13386089 L0,12.8903125 C0,13.1412903 0.203497984,13.3447883 0.454475806,13.3447883 L3.36314516,13.3447883 C3.9202621,13.3447883 4.40334677,13.0230444 4.63720766,12.555746 C6.25587702,13.258871 7.66212702,13.3504435 9.27704637,13.3504435 C9.55288306,13.3504435 9.83507056,13.3477823 10.1252117,13.3450302 C10.4460484,13.342006 10.7778024,13.3388609 11.1255847,13.3388609 L12.5625302,13.3388609 C13.3477621,13.3388609 13.9865625,12.7000302 13.9865625,11.9148286 C13.9865625,11.6508165 13.9143448,11.403377 13.788629,11.1911694 C14.1977722,10.9406754 14.4713407,10.4895867 14.4713407,9.97571573 C14.4713407,9.71170363 14.3991532,9.46426411 14.2734073,9.25205645 C14.6825504,9.0015625 14.956119,8.55047379 14.956119,8.03660282 C14.956119,7.66680444 14.814375,7.32957661 14.5824496,7.07617944 C14.824506,6.82075605 14.9735081,6.47627016 14.9735081,6.09745968 Z M3.87822581,11.9207258 C3.87822581,12.2047581 3.64717742,12.4358065 3.36314516,12.4358065 L2.84806452,12.4358065 L2.84806452,10.9511694 C2.84806452,10.7001613 2.64456653,10.4966935 2.39358871,10.4966935 C2.14261089,10.4966935 1.9391129,10.7001915 1.9391129,10.9511694 L1.9391129,12.4358065 L0.908981855,12.4358065 L0.908981855,5.58830645 L3.87825605,5.58830645 L3.87825605,11.9207258 L3.87822581,11.9207258 Z M12.5799194,7.52149194 L13.0646976,7.52149194 L13.5320867,7.52149194 C13.816119,7.52149194 14.0471673,7.75254032 14.0471673,8.03657258 C14.0471673,8.32060484 13.816119,8.55165323 13.5320867,8.55165323 L13.0646976,8.55165323 L13.0473085,8.55165323 L12.5799194,8.55165323 C12.3289113,8.55165323 12.1254435,8.75515121 12.1254435,9.00612903 C12.1254435,9.25710685 12.3289415,9.46060484 12.5799194,9.46060484 L13.0473085,9.46060484 C13.3313407,9.46060484 13.5623891,9.69165323 13.5623891,9.97568548 C13.5623891,10.2597177 13.3313407,10.4907661 13.0473085,10.4907661 L12.5625302,10.4907661 C12.3115222,10.4907661 12.1080544,10.6942641 12.1080544,10.9452419 C12.1080544,11.1962198 12.3115524,11.3997177 12.5625302,11.3997177 C12.8465625,11.3997177 13.0776109,11.6307661 13.0776109,11.9147984 C13.0776109,12.1988306 12.8465625,12.429879 12.5625302,12.429879 L11.1255847,12.429879 C10.7735081,12.429879 10.4395766,12.4330242 10.116623,12.4361089 C8.09065524,12.455252 6.60220766,12.4694052 4.79316532,11.6294355 L4.79316532,6.38079637 L4.79313508,6.38079637 C4.84043347,6.35793347 4.88897177,6.33449597 4.93847782,6.31063508 C5.72854839,5.92970766 6.8105746,5.40803427 7.7409375,4.61790323 C8.87987903,3.65058468 9.51196573,2.50154234 9.61953629,1.20271169 C9.62080645,1.18728831 9.65044355,1.15889113 9.67484879,1.15889113 C9.675,1.15889113 9.67518145,1.15889113 9.67533266,1.15889113 C10.2244052,1.16747984 10.6711089,1.62138105 10.6711089,2.17069556 L10.6711089,2.32287298 C10.6711089,3.26763105 10.4247278,3.86539315 9.909375,4.67339718 L9.18647177,4.67339718 C8.93546371,4.67339718 8.73199597,4.87689516 8.73199597,5.12787298 C8.73199597,5.37888105 8.93549395,5.58234879 9.18647177,5.58234879 L10.1592641,5.58234879 C10.1597177,5.58234879 10.1601714,5.58234879 10.160625,5.58234879 L13.0646976,5.58234879 L13.5494758,5.58234879 C13.8335081,5.58234879 14.0645565,5.81339718 14.0645565,6.09742944 C14.0645565,6.38146169 13.8335081,6.61251008 13.5494758,6.61251008 L13.0646976,6.61251008 L12.5799194,6.61251008 C12.3289113,6.61251008 12.1254435,6.81600806 12.1254435,7.06698589 C12.1254435,7.31799395 12.3289415,7.52149194 12.5799194,7.52149194 Z" id="Shape"></path>
                    </g>
                </g>
            </g>
        </g>
    </g>
</svg>