<?xml version="1.0" encoding="utf-8"?>
<!-- Generator: Adobe Illustrator 21.0.0, SVG Export Plug-In . SVG Version: 6.00 Build 0)  -->
<svg version="1.1" id="图层_1" xmlns="http://www.w3.org/2000/svg" xmlns:xlink="http://www.w3.org/1999/xlink" x="0px" y="0px"
	 viewBox="0 0 29 29" style="enable-background:new 0 0 29 29;" xml:space="preserve">
<style type="text/css">
	.st0{fill:none;}
	.st1{fill:#2A2A2A;}
</style>
<title>Group 8</title>
<desc>Created with Sketch.</desc>
<g id="symbol">
	<g id="Group-8">
		<rect id="Rectangle-3-Copy" class="st0" width="29" height="29"/>
		<g id="line" transform="translate(1.000000, 2.000000)">
			<g id="Group">
				<path id="Combined-Shape" class="st1" d="M27.3,11.8c-0.2,1-0.5,2-1,2.9c-0.2,0.4-1.4,2.1-1.8,2.5c-2,2.4-5.4,5.1-11.1,7.7
					c-0.5,0.2-1.1-0.2-1.1-0.7l0.3-2.5c0-0.4-0.3-0.8-0.7-0.8C5.2,20.2,0,15.8,0,10.5C0,4.7,6.1,0,13.7,0C21,0,27,4.4,27.4,10
					c0,0.2,0,0.7,0,1C27.3,11.3,27.3,11.5,27.3,11.8z M6.2,12.6V8.2c0-0.4-0.3-0.7-0.7-0.7S4.8,7.8,4.8,8.2v5.1
					c0,0.4,0.3,0.7,0.7,0.7h2.8C8.6,14,9,13.7,9,13.3c0-0.4-0.3-0.7-0.7-0.7H6.2z M10.5,14c0.3,0,0.5-0.2,0.5-0.5V8.1
					c0-0.3-0.2-0.5-0.5-0.5h-0.3c-0.3,0-0.5,0.2-0.5,0.5v5.4c0,0.3,0.2,0.5,0.5,0.5H10.5z M16.1,8.2v3.1c0,0-2.8-3.5-2.8-3.6
					c-0.1-0.1-0.3-0.2-0.5-0.2c-0.4,0-0.7,0.3-0.7,0.7v5.1c0,0.4,0.3,0.7,0.7,0.7s0.7-0.3,0.7-0.7v-3.1c0,0,2.8,3.6,2.9,3.6
					c0.1,0.1,0.3,0.2,0.5,0.2c0.4,0,0.7-0.3,0.7-0.7V8.2c0-0.4-0.3-0.7-0.7-0.7C16.4,7.5,16.1,7.8,16.1,8.2z M22.8,8.2
					c0-0.4-0.3-0.7-0.7-0.7h-2.8c-0.4,0-0.7,0.3-0.7,0.7v5.1c0,0.4,0.3,0.7,0.7,0.7h2.8c0.4,0,0.7-0.3,0.7-0.7
					c0-0.4-0.3-0.7-0.7-0.7H20v-1.2h2.1c0.4,0,0.7-0.3,0.7-0.7c0-0.4-0.3-0.7-0.7-0.7H20V8.9h2.1C22.5,8.9,22.8,8.6,22.8,8.2z"/>
			</g>
		</g>
	</g>
</g>
</svg>
