<?xml version="1.0" encoding="UTF-8"?>
<svg width="23px" height="24px" viewBox="0 0 23 24" version="1.1" xmlns="http://www.w3.org/2000/svg" xmlns:xlink="http://www.w3.org/1999/xlink">
    <!-- Generator: Sketch 51.3 (57544) - http://www.bohemiancoding.com/sketch -->
    <title>Group 12 Copy</title>
    <desc>Created with Sketch.</desc>
    <defs></defs>
    <g id="總監操刀" stroke="none" stroke-width="1" fill="none" fill-rule="evenodd">
        <g id="Group-12-Copy" fill="#FFFFFF" fill-rule="nonzero">
            <g id="share">
                <path d="M18.1879121,15.3 C16.8181319,15.3 15.5967033,15.9527473 14.8153846,16.9615385 L8.27307692,13.3071429 C8.42637363,12.867033 8.51043956,12.3923077 8.51043956,11.9027473 C8.51043956,11.4082418 8.42637363,10.9384615 8.26813187,10.4934066 L14.8054945,6.84395604 C15.5818681,7.85769231 16.8082418,8.51538462 18.182967,8.51538462 C20.5269231,8.51538462 22.4406593,6.60659341 22.4406593,4.25769231 C22.4406593,1.90879121 20.5318681,0 18.182967,0 C15.8340659,0 13.9252747,1.90879121 13.9252747,4.25769231 C13.9252747,4.7521978 14.0093407,5.22692308 14.1675824,5.66703297 L7.63516484,9.31648352 C6.85879121,8.2978022 5.63241758,7.64505495 4.25769231,7.64505495 C1.91373626,7.64505495 0,9.55384615 0,11.9027473 C0,14.2516484 1.91373626,16.1604396 4.26263736,16.1604396 C5.63736264,16.1604396 6.86373626,15.5027473 7.64505495,14.4840659 L14.1824176,18.1384615 C14.0241758,18.5835165 13.9351648,19.0631868 13.9351648,19.5576923 C13.9351648,21.9016484 15.843956,23.8153846 18.1928571,23.8153846 C20.5417582,23.8153846 22.4505495,21.9065934 22.4505495,19.5576923 C22.4505495,17.2087912 20.5368132,15.3 18.1879121,15.3 Z M18.1879121,1.34010989 C19.8,1.34010989 21.1104396,2.65054945 21.1104396,4.26263736 C21.1104396,5.87472527 19.8,7.18516484 18.1879121,7.18516484 C16.5758242,7.18516484 15.2653846,5.87472527 15.2653846,4.26263736 C15.2653846,2.65054945 16.5807692,1.34010989 18.1879121,1.34010989 Z M4.26263736,14.8252747 C2.65054945,14.8252747 1.34010989,13.5148352 1.34010989,11.9027473 C1.34010989,10.2906593 2.65054945,8.98021978 4.26263736,8.98021978 C5.87472527,8.98021978 7.18516484,10.2906593 7.18516484,11.9027473 C7.18516484,13.5148352 5.86978022,14.8252747 4.26263736,14.8252747 Z M18.1879121,22.4752747 C16.5758242,22.4752747 15.2653846,21.1648352 15.2653846,19.5527473 C15.2653846,17.9406593 16.5758242,16.6302198 18.1879121,16.6302198 C19.8,16.6302198 21.1104396,17.9406593 21.1104396,19.5527473 C21.1104396,21.1648352 19.8,22.4752747 18.1879121,22.4752747 Z" id="Shape"></path>
            </g>
        </g>
    </g>
</svg>