<?xml version="1.0" encoding="UTF-8"?>
<svg width="30px" height="30px" viewBox="0 0 30 30" version="1.1" xmlns="http://www.w3.org/2000/svg" xmlns:xlink="http://www.w3.org/1999/xlink">
    <!-- Generator: Sketch 51.3 (57544) - http://www.bohemiancoding.com/sketch -->
    <title>Group 10</title>
    <desc>Created with Sketch.</desc>
    <defs></defs>
    <g id="設計立吞" stroke="none" stroke-width="1" fill="none" fill-rule="evenodd">
        <g id="Group-10">
            <path d="M15,30 C6.71572875,30 0,23.2842712 0,15 C0,6.71572875 6.71572875,0 15,0 C23.2842712,0 30,6.71572875 30,15 C30,23.2842712 23.2842712,30 15,30 Z M13.0428013,8.775 C10.0168345,8.775 7.56428571,10.7969335 7.56428571,13.2902601 C7.56428571,14.727919 8.38423689,16.0030284 9.6561656,16.828418 L8.93391462,18.2570463 L10.9016148,17.4235293 C11.3234605,17.5716298 11.7617418,17.6935418 12.2301549,17.7504341 C12.1662388,17.4750032 12.1297154,17.1923479 12.1297154,16.9024682 C12.1297154,14.4127538 14.5868297,12.3872081 17.608231,12.3872081 C17.8848961,12.3872081 18.1551695,12.4097844 18.4217906,12.4422943 C17.9396812,10.354438 15.716317,8.775 13.0428013,8.775 Z M11.2166295,12.1614451 C10.8386119,12.1614451 10.531815,11.8580196 10.531815,11.4841561 C10.531815,11.1102925 10.8386119,10.8068671 11.2166295,10.8068671 C11.594647,10.8068671 11.9014439,11.1102925 11.9014439,11.4841561 C11.9014439,11.8580196 11.594647,12.1614451 11.2166295,12.1614451 Z M14.8689732,12.1614451 C14.4909556,12.1614451 14.1841588,11.8580196 14.1841588,11.4841561 C14.1841588,11.1102925 14.4909556,10.8068671 14.8689732,10.8068671 C15.2469908,10.8068671 15.5537877,11.1102925 15.5537877,11.4841561 C15.5537877,11.8580196 15.2469908,12.1614451 14.8689732,12.1614451 Z M22.0519159,16.7218578 C22.0519159,14.7270159 20.0075165,13.1096497 17.4864862,13.1096497 C14.965456,13.1096497 12.9210565,14.7270159 12.9210565,16.7218578 C12.9210565,18.7166998 14.965456,20.3340659 17.4864862,20.3340659 C17.9010273,20.3340659 18.2954804,20.2762706 18.6780634,20.1940929 L21.13883,21.237118 L20.2878339,19.554732 C21.3543183,18.893698 22.0519159,17.8768614 22.0519159,16.7218578 Z M16.1168573,16.4960948 C15.7388398,16.4960948 15.4320429,16.1926693 15.4320429,15.8188058 C15.4320429,15.4449423 15.7388398,15.1415168 16.1168573,15.1415168 C16.4948749,15.1415168 16.8016718,15.4449423 16.8016718,15.8188058 C16.8016718,16.1926693 16.4948749,16.4960948 16.1168573,16.4960948 Z M18.8561151,16.4960948 C18.4780976,16.4960948 18.1713007,16.1926693 18.1713007,15.8188058 C18.1713007,15.4449423 18.4780976,15.1415168 18.8561151,15.1415168 C19.2341327,15.1415168 19.5409296,15.4449423 19.5409296,15.8188058 C19.5409296,16.1926693 19.2341327,16.4960948 18.8561151,16.4960948 Z" id="Combined-Shape" fill="#2A2A2A"></path>
            <g id="Group-2" transform="translate(7.564286, 8.775000)"></g>
        </g>
    </g>
</svg>